<svg preserveAspectRatio="none" width="100%" height="100%" overflow="visible" style="display: block;" viewBox="0 0 81.5125 31.185" fill="none" xmlns="http://www.w3.org/2000/svg">
<g id="Logos">
<g id="GA Logo">
<path id="Vector" d="M13.3739 7.90204C13.2756 8.08078 13.1415 8.23272 12.9806 8.36678C12.8466 8.04504 12.6678 7.74117 12.4623 7.46411L10.1296 3.30822C11.7115 3.10266 13.0343 3.88915 13.5973 5.37276C13.8744 6.11456 13.785 7.20492 13.3739 7.90204ZM11.935 11.7809C11.4345 12.3975 10.4424 12.8623 9.62911 12.8623C9.42355 12.8623 9.20905 12.8265 9.02137 12.7461L11.9707 7.73223C11.9707 7.73223 11.9796 7.7501 11.9886 7.7501L12.4891 8.64384C12.8823 9.69845 12.6946 10.8246 11.935 11.7719V11.7809ZM5.46429 13.5683C4.6778 13.4522 3.77513 12.8355 3.35507 12.1384C3.24782 11.9596 3.17632 11.763 3.14057 11.5574L8.94987 11.5396C8.36 13.0232 7.0194 13.8007 5.45535 13.5594L5.46429 13.5683ZM0.727478 8.81365C0.450419 8.07185 0.548732 6.98149 0.959852 6.27543C1.05816 6.09669 1.20116 5.93581 1.36203 5.81069L4.18625 10.8961C2.59539 11.0927 1.27266 10.3062 0.727478 8.82259V8.81365ZM2.57752 2.23574C3.07801 1.61906 4.07006 1.15431 4.88336 1.15431C5.08892 1.15431 5.30342 1.19006 5.4911 1.2705L2.53283 6.27543C1.55865 5.00633 1.56759 3.4691 2.56858 2.23574H2.57752ZM7.15346 7.48198C5.71454 7.48198 6.22397 5.05995 4.32924 5.19401C4.54374 3.17416 6.6619 3.10266 8.38681 3.3976C9.36993 3.56741 9.87936 4.23771 9.97767 5.19401C8.08294 5.06889 8.59238 7.48198 7.15346 7.48198ZM7.6897 8.65278C8.36 8.34891 8.70856 7.81266 8.82474 7.19598C8.96774 6.43631 9.11968 6.00731 10.1922 6.00731C11.077 6.06987 11.6311 7.12448 11.3719 7.75904C11.0144 8.61703 10.1475 9.50183 9.58443 10.2883C8.94987 9.74314 8.31531 9.18902 7.68076 8.64384L7.6897 8.65278ZM4.71355 10.2883C4.15943 9.49289 3.28357 8.61703 2.92607 7.75904C2.66689 7.12448 3.22101 6.06987 4.10581 6.00731C5.16936 6.00731 5.33916 6.43631 5.47323 7.19598C5.58941 7.81266 5.93797 8.34891 6.60828 8.65278C5.97372 9.19796 5.33916 9.75208 4.70461 10.2973L4.71355 10.2883ZM5.68773 10.6905C5.80391 10.1632 6.42953 9.58227 7.23389 9.58227C7.27858 9.58227 7.31433 9.58227 7.35901 9.58227C8.0025 9.62695 8.62812 10.1364 8.73537 10.6905L8.76218 10.8246H5.66985L5.68773 10.6816V10.6905ZM8.41362 0.573382C8.59237 0.573382 8.77112 0.582321 8.94987 0.609133C9.73636 0.725319 10.648 1.342 11.0591 2.03912C11.1663 2.21786 11.2468 2.41448 11.2736 2.62004L5.46429 2.64686C5.98266 1.33306 7.08196 0.573382 8.40469 0.573382H8.41362ZM11.8813 2.88816C11.8813 2.88816 11.8813 2.79879 11.8635 2.62004C11.8277 2.30724 11.7294 2.00337 11.5685 1.74418C11.068 0.904067 10.0045 0.189075 9.04818 0.0460767C7.87738 -0.123734 6.8049 0.18014 6.00947 0.886193L5.79497 0.778945C5.50898 0.644885 5.19617 0.582322 4.88336 0.582322C3.90025 0.582322 2.74733 1.1275 2.13959 1.87824C1.33522 2.87029 1.07603 4.03215 1.35309 5.14039C1.33522 5.14039 1.32628 5.14932 1.30841 5.15826L1.09391 5.30126C0.83473 5.48001 0.620228 5.71238 0.468293 5.98944C-0.0232631 6.83849 -0.148384 8.1076 0.191236 9.01921C0.629168 10.1989 1.47822 11.0033 2.55964 11.334L2.57752 11.5574C2.60433 11.8702 2.71158 12.1741 2.87245 12.4333C3.37294 13.2734 4.43649 13.9973 5.38385 14.1403C5.59835 14.1761 5.81285 14.185 6.02735 14.185C6.49209 14.185 6.96577 14.1046 7.39476 13.9348C7.8327 13.765 8.22594 13.5058 8.55663 13.184L8.70856 13.2555C8.99456 13.3896 9.29842 13.4522 9.62017 13.4522C10.6033 13.4522 11.7562 12.907 12.3729 12.1562C13.1683 11.1821 13.4364 10.0381 13.1683 8.93877L13.2488 8.89409C13.5079 8.71534 13.7224 8.48297 13.8744 8.20591C14.3659 7.35686 14.4821 6.08775 14.1425 5.17614C13.7135 4.04109 12.9091 3.24566 11.8813 2.8971V2.88816Z" fill="var(--fill-0, white)"/>
<path id="Vector_2" d="M25.1622 5.77461C24.9835 6.18573 24.903 6.6326 24.903 7.08841C24.903 7.98215 25.2516 8.8312 25.8772 9.47469C26.1811 9.7875 26.5564 10.0377 26.9676 10.1897C27.4144 10.3684 27.8881 10.4489 28.3707 10.4399C28.8533 10.4399 29.327 10.3506 29.7739 10.1807C30.185 10.0199 30.5604 9.77856 30.8821 9.46575C31.1949 9.17082 31.4452 8.80439 31.6061 8.4022C31.7848 7.99109 31.8652 7.54422 31.8652 7.08841C31.8652 6.64154 31.7759 6.19467 31.6061 5.78355C31.4541 5.38137 31.2128 5.01494 30.9 4.71107C30.5872 4.39826 30.2118 4.15695 29.7918 3.99608C28.8891 3.65645 27.897 3.65645 26.9944 3.99608C26.5922 4.15695 26.2168 4.40719 25.904 4.71107C25.5912 5.006 25.341 5.37243 25.1801 5.76568L25.1622 5.77461ZM26.7531 7.78552C26.6637 7.56209 26.619 7.32972 26.6101 7.08841C26.6101 6.8471 26.6547 6.61473 26.7531 6.39129C26.8424 6.1768 26.9676 5.98911 27.1374 5.82824C27.3072 5.6763 27.4949 5.56012 27.7094 5.47074C27.9239 5.37243 28.1473 5.32775 28.3797 5.33668C28.612 5.33668 28.8355 5.38137 29.05 5.47074C29.2645 5.56012 29.4521 5.68524 29.622 5.84611C29.7828 6.00699 29.9169 6.19467 30.0063 6.40917C30.0956 6.6326 30.1403 6.86497 30.1403 7.10628C30.1403 7.34759 30.0956 7.57996 30.0063 7.8034C29.908 8.00896 29.7739 8.20558 29.613 8.36645C29.4432 8.51839 29.2555 8.63458 29.041 8.72395C28.8265 8.82226 28.6031 8.86695 28.3618 8.85801C28.1294 8.85801 27.906 8.81333 27.6915 8.72395C27.4859 8.62564 27.2982 8.50051 27.1374 8.34858C26.9765 8.18771 26.8514 8.00002 26.7531 7.78552ZM24.0987 6.74879L20.908 6.73092L20.8812 8.02683H22.2129C22.2039 8.19664 22.1503 8.35752 22.0609 8.50052C21.9894 8.6167 21.8911 8.72395 21.7749 8.80439C21.6498 8.87589 21.5247 8.93845 21.3817 8.9742C21.2298 9.00995 21.0778 9.02782 20.9169 9.02782C20.6756 9.02782 20.4433 8.98313 20.2198 8.89376C20.0232 8.81332 19.8445 8.67926 19.7104 8.50945C19.5674 8.33964 19.4691 8.13408 19.4065 7.91959C19.335 7.67828 19.2993 7.42803 19.2993 7.17778C19.2993 6.90966 19.335 6.64154 19.4155 6.39129C19.478 6.16786 19.5942 5.9623 19.7461 5.78355C19.8891 5.61374 20.059 5.47968 20.2556 5.39924C20.4611 5.30987 20.6935 5.26518 20.9169 5.26518C21.1851 5.26518 21.4532 5.32774 21.6856 5.47968C21.9358 5.66737 22.1235 5.92655 22.2307 6.22148L23.768 5.57799C23.482 4.98813 23.0977 4.55019 22.6061 4.2642C22.0877 3.96926 21.4979 3.81733 20.8991 3.8352C20.4343 3.8352 19.9696 3.91564 19.5317 4.07651C19.1473 4.22845 18.7898 4.46082 18.4949 4.75575C18.2 5.05068 17.9765 5.40818 17.8335 5.80143C17.5118 6.66835 17.5118 7.62465 17.8335 8.49158C17.9765 8.88482 18.2089 9.24232 18.5039 9.53725C18.8167 9.84112 19.1831 10.0735 19.5763 10.2344C19.9785 10.3952 20.4075 10.4667 20.8365 10.4667C21.1761 10.4667 21.5158 10.4131 21.8375 10.3237C22.1503 10.2344 22.4452 10.1092 22.7134 9.9305C22.9815 9.76069 23.2139 9.55513 23.4105 9.30488C23.616 9.03676 23.7769 8.74182 23.8842 8.42902C23.9646 8.18771 24.0272 7.92852 24.054 7.66934C24.0897 7.36547 24.1076 7.0616 24.1076 6.75773L24.0987 6.74879ZM34.5375 3.92457V8.87589H36.5127V10.2791L32.902 10.2701V3.91564L34.5375 3.93351V3.92457ZM39.9714 3.9067H37.5405V10.2701H39.9714C40.3915 10.2701 40.8026 10.1807 41.1869 10.0109C41.9377 9.67131 42.5186 9.05463 42.8314 8.29496C42.9923 7.91065 43.0727 7.50847 43.0727 7.09735C43.0727 6.67729 42.9833 6.26617 42.8314 5.88186C42.6795 5.50649 42.456 5.16687 42.17 4.87194C41.893 4.577 41.5534 4.3357 41.1869 4.17482C40.8116 3.99608 40.3915 3.89777 39.9714 3.9067ZM39.5425 8.87589H39.1581L39.1939 5.30987H39.5782C39.8284 5.30987 40.0787 5.35456 40.32 5.44393C40.5256 5.5333 40.7133 5.65843 40.8652 5.8193C41.0171 5.98017 41.1333 6.16786 41.2137 6.37342C41.2942 6.60579 41.3389 6.8471 41.3389 7.08841C41.3389 7.32972 41.3031 7.57103 41.2227 7.8034C41.1601 8.0179 41.035 8.20558 40.8741 8.36645C40.7222 8.53626 40.5256 8.66139 40.3111 8.74183C40.0698 8.8312 39.8106 8.87589 39.5514 8.87589H39.5425ZM48.891 3.74583L45.9863 10.2165H47.023L47.7112 8.60776H50.0975L50.7678 10.2165H51.8045L48.882 3.74583H48.891ZM48.0777 7.76765L48.6943 6.34661C48.739 6.23042 48.7837 6.11423 48.8284 5.98911C48.8641 5.88186 48.891 5.77461 48.9088 5.65843V5.62268C48.9088 5.62268 48.9356 5.6763 48.9356 5.70312C48.9446 5.72099 48.9535 5.7478 48.9535 5.76568L48.9803 5.86399C48.9982 5.92655 49.0161 5.99805 49.034 6.05167C49.0608 6.14105 49.0965 6.23936 49.1412 6.32873L49.7579 7.74978H48.0866L48.0777 7.76765ZM51.7062 3.98714L54.3785 10.4399L57.0597 3.98714H56.0498L54.7092 7.30291C54.6466 7.46378 54.593 7.62465 54.5394 7.79446C54.5126 7.88384 54.4858 7.96427 54.4589 8.05365L54.3785 8.31283C54.3428 8.14302 54.2981 7.96427 54.2444 7.79446C54.1908 7.62465 54.1372 7.46378 54.0657 7.30291L52.7251 3.98714H51.7152H51.7062ZM58.302 10.2076V3.9782H61.6625V4.85406H59.2762V6.39129H61.6625V7.28503H59.2762V9.287H61.6625V10.2076H58.302ZM63.7896 3.74583V10.2165H64.6922V5.88186C64.7816 6.00699 64.8799 6.13211 64.9693 6.2483C65.0676 6.36448 65.1659 6.48067 65.2732 6.58792L69.1699 10.4489V3.99608H68.2761V8.31283L68.1421 8.15196C68.0974 8.09834 68.0527 8.04471 68.008 8.00002C67.9812 7.97321 67.9544 7.9464 67.9365 7.91959C67.9186 7.90171 67.9097 7.88383 67.8918 7.86596C67.8561 7.82127 67.8203 7.78552 67.7756 7.74084C67.7488 7.71402 67.7131 7.67827 67.6863 7.64253C67.6595 7.60678 67.6326 7.57997 67.5969 7.54422L63.7806 3.74583H63.7896ZM71.2076 3.98714H72.1907V7.76765C72.1907 8.27708 72.3069 8.6882 72.5393 8.99207C72.7716 9.29594 73.1559 9.44788 73.6832 9.44788C74.2106 9.44788 74.577 9.29594 74.8183 8.98313C75.0596 8.67926 75.1847 8.26815 75.1847 7.76765V3.98714H76.1589V7.8749C76.1589 8.71501 75.9533 9.33169 75.5333 9.75175C75.1132 10.1629 74.4965 10.3595 73.6832 10.3595C72.8699 10.3595 72.2533 10.1539 71.8332 9.74281C71.4132 9.33169 71.1987 8.70608 71.1987 7.8749V3.98714H71.2076ZM78.1519 3.98714V10.2165H81.5124V9.29594H79.1261V7.29397H81.5124V6.40023H79.1261V4.863H81.5124V3.98714H78.1519Z" fill="var(--fill-0, white)"/>
</g>
<path id="APMEX Logo" d="M53.535 25.1939V23.7184L55.8084 27.1939L53.526 30.6695V29.1761H48.6725V28.1717H50.9098V26.1806H48.6725V25.1761H53.535V25.1939ZM62.5654 24.145H62.6737C62.8 24.145 62.9082 24.1006 62.9082 24.0028C62.9082 23.9139 62.8451 23.8517 62.6917 23.8517C62.6286 23.8517 62.5834 23.8517 62.5654 23.8606V24.145ZM62.5654 24.6961H62.3308V23.7006C62.4211 23.6917 62.5564 23.6739 62.7188 23.6739C62.9082 23.6739 62.9984 23.7006 63.0616 23.7539C63.1247 23.7984 63.1698 23.8695 63.1698 23.9672C63.1698 24.0917 63.0796 24.1717 62.9623 24.2072C63.0616 24.2517 63.1067 24.3317 63.1428 24.465C63.1698 24.6161 63.1969 24.6695 63.2149 24.705H62.9714C62.9714 24.705 62.9263 24.5806 62.8902 24.465C62.8721 24.3584 62.809 24.3139 62.6827 24.3139H62.5744V24.705L62.5654 24.6961ZM61.9429 24.1806C61.9429 24.625 62.2857 24.9717 62.7278 24.9717C63.1608 24.9717 63.4946 24.6161 63.4946 24.1806C63.4946 23.745 63.1608 23.3806 62.7097 23.3806C62.2587 23.3806 61.9339 23.7361 61.9339 24.1717M63.7562 24.1806C63.7562 24.7406 63.2961 25.185 62.7188 25.185C62.1414 25.185 61.6813 24.7406 61.6813 24.1806C61.6813 23.6206 62.1414 23.185 62.7278 23.185C63.3142 23.185 63.7562 23.6206 63.7562 24.1806ZM22.727 25.2917L23.8005 27.7095H21.7437L22.736 25.2917H22.727ZM30.2057 25.2117H32.2265C32.4881 25.2028 32.7407 25.2384 32.9843 25.3095C33.3271 25.4161 33.4895 25.5761 33.4895 25.7895C33.4805 25.9939 33.4264 26.1272 33.3271 26.2161C33.1647 26.3761 32.7949 26.4561 32.2265 26.4561H30.2057V25.2117ZM57.1526 25.3539L55.646 23.1939H46.1555V29.1761H45.6774V23.1939H43.1424L40.6074 27.8784L38.0904 23.1939H35.5464V24.6872C35.5103 24.5984 35.4381 24.5006 35.384 24.4028C34.8247 23.6117 33.9496 23.2117 32.7407 23.2117H27.6617V30.6872L24.3418 23.2117H21.049L17.7562 31.185H20.2912L20.6972 30.1984H24.9102L25.3432 31.185H30.2057V28.1984H32.7407C33.1738 28.1984 33.5797 28.145 33.9586 28.0384C34.5179 27.8517 34.96 27.5672 35.2577 27.1672C35.384 27.0161 35.4742 26.8739 35.5464 26.7139V31.1761H38.0904V26.8739L40.6074 31.1761L43.1424 26.8739V31.1761H55.646L57.1526 28.9984L58.6862 31.1761H61.2212L58.4336 27.185L59.8319 25.185H61.2122V23.1939H58.6952L57.1616 25.3539H57.1526Z" fill="var(--fill-0, white)"/>
</g>
</svg>
