<svg preserveAspectRatio="none" width="100%" height="100%" overflow="visible" style="display: block;" viewBox="0 0 43 40.0025" fill="none" xmlns="http://www.w3.org/2000/svg">
<g id="Group">
<path id="Vector" d="M23.2155 27.2315V30.001H20.5912V27.2593H17.5985V24.6106H20.5912H22.7274C23.639 24.6106 24.3849 23.8486 24.3849 22.9285C24.3849 22.0084 23.639 21.237 22.709 21.237H21.3002C18.9337 21.237 17 19.2947 17 16.8969C17 14.75 18.547 12.975 20.5727 12.6218V10.001H23.1971V12.5567H25.5912V15.2054H21.291C20.3702 15.2054 19.6151 15.9582 19.6151 16.8969C19.6151 17.8355 20.361 18.5883 21.291 18.5883H22.6998C25.0663 18.5883 27 20.5307 27 22.9285C27 25.1497 25.3333 26.9805 23.1971 27.2315H23.2155Z" fill="var(--fill-0, #197EEB)"/>
<path id="Vector_2" d="M34.1604 26.9987C35.2971 24.9247 35.9441 22.5405 35.9441 20.0056C35.9441 12.0464 29.5789 5.59391 21.7273 5.59391H21.7098H3.96076" stroke="var(--stroke-0, #197EEB)" stroke-width="3" stroke-miterlimit="10" stroke-linecap="round"/>
<path id="Vector_3" d="M9.30297 13.0036C8.16633 15.0776 7.51932 17.4619 7.51932 19.9967C7.51932 27.956 13.8845 34.4084 21.7361 34.4084C21.7361 34.4084 21.7536 34.4084 21.7623 34.4084H39.5114" stroke="var(--stroke-0, #197EEB)" stroke-width="3" stroke-miterlimit="10" stroke-linecap="round"/>
<path id="Vector_4" d="M0.262302 4.84066C0.262302 4.84066 0.227328 4.88498 0.209841 4.90271C0.174868 4.95589 0.148638 5.00906 0.122407 5.06224C0.122407 5.07997 0.104921 5.0977 0.0961773 5.11542C0.0699471 5.18633 0.043717 5.25724 0.0262302 5.33701C0.0262302 5.33701 0.0262302 5.33701 0.0262302 5.34587C0 5.42564 0 5.50541 0 5.59404C0 5.67381 0 5.76244 0.0262302 5.84221C0.0262302 5.84221 0.0262302 5.85108 0.0262302 5.85994C0.043717 5.93085 0.0612037 6.01062 0.0961773 6.07266C0.0961773 6.08152 0.104921 6.09039 0.113664 6.10811C0.139894 6.17015 0.174868 6.2322 0.209841 6.28538C0.218585 6.3031 0.236072 6.31197 0.244815 6.32969C0.279789 6.37401 0.314762 6.42719 0.358479 6.46264C0.358479 6.46264 0.358479 6.47151 0.367222 6.47151L4.97499 10.85C5.45588 11.3109 6.20781 11.2843 6.66246 10.7968C7.11712 10.3093 7.09089 9.52934 6.61 9.08618L4.20557 6.79945V4.37977L6.61 2.09304C7.09089 1.63215 7.11712 0.869911 6.66246 0.382431C6.65372 0.373567 6.64498 0.364704 6.63623 0.355841C6.18158 -0.10505 5.44713 -0.122776 4.97499 0.329251L0.375966 4.70771C0.375966 4.70771 0.375966 4.71658 0.367222 4.72544C0.332249 4.76089 0.297275 4.80521 0.271045 4.84066H0.262302Z" fill="var(--fill-0, #197EEB)"/>
<path id="Vector_5" d="M42.7377 35.1618C42.7377 35.1618 42.7727 35.1175 42.7902 35.0998C42.8251 35.0466 42.8514 34.9934 42.8776 34.9402C42.8776 34.9225 42.8951 34.9048 42.9038 34.8871C42.9301 34.8162 42.9563 34.7453 42.9738 34.6655C42.9738 34.6655 42.9738 34.6655 42.9738 34.6566C42.9913 34.5768 43 34.4971 43 34.4084C43 34.3287 43 34.24 42.9738 34.1603C42.9738 34.1603 42.9738 34.1514 42.9738 34.1425C42.9563 34.0716 42.9388 33.9919 42.9038 33.9298C42.9038 33.921 42.8951 33.9121 42.8863 33.8944C42.8601 33.8323 42.8251 33.7703 42.7902 33.7171C42.7814 33.6994 42.7639 33.6905 42.7552 33.6728C42.7202 33.6285 42.6852 33.5753 42.6415 33.5398C42.6415 33.5398 42.6415 33.531 42.6328 33.531L38.025 29.1525C37.5441 28.6916 36.7922 28.7182 36.3375 29.2057C35.8829 29.6932 35.9091 30.4731 36.39 30.9163L38.7944 33.203V35.6227L36.39 37.9094C35.9091 38.3703 35.8829 39.1326 36.3375 39.6201C36.3463 39.6289 36.355 39.6378 36.3638 39.6466C36.8184 40.1075 37.5529 40.1253 38.025 39.6732L42.6328 35.2948C42.6328 35.2948 42.6328 35.2859 42.6415 35.277C42.6765 35.2416 42.7115 35.1973 42.7377 35.1618Z" fill="var(--fill-0, #197EEB)"/>
</g>
</svg>
