<svg preserveAspectRatio="none" width="100%" height="100%" overflow="visible" style="display: block;" viewBox="0 0 156.713 77.9405" fill="none" xmlns="http://www.w3.org/2000/svg">
<g id="Group">
<path id="Vector" d="M6.69577 0.512322C7.66811 0.512322 8.43864 0.567362 9.02571 0.659096C9.61279 0.75083 10.1448 0.934298 10.6035 1.19115C11.3373 1.57644 11.906 2.05345 12.3097 2.6589C12.7133 3.26434 12.9151 3.94317 12.9151 4.67705C12.9151 5.28249 12.7683 5.85124 12.4931 6.3833C12.1996 6.91536 11.796 7.33733 11.2823 7.68592C11.1172 7.796 10.9521 7.88773 10.8053 7.97947C10.6585 8.0712 10.4017 8.18128 10.0898 8.32806C10.6035 8.47483 11.0071 8.60326 11.3006 8.71334C11.5942 8.82342 11.8877 8.9702 12.1996 9.13532C13.0068 9.57564 13.6122 10.1811 14.0525 10.915C14.4929 11.6488 14.713 12.4561 14.713 13.3367C14.713 14.4192 14.4011 15.3916 13.759 16.2906C13.1169 17.1896 12.2546 17.9051 11.1539 18.4188C10.8603 18.5656 10.5484 18.6757 10.2182 18.7857C9.88798 18.8958 9.55775 18.9509 9.17248 19.0059C8.78722 19.0609 8.38361 19.0976 7.90661 19.1343C7.44796 19.171 6.91592 19.1894 6.32884 19.1894H0.348026C0.623217 19.0426 0.825021 18.8958 0.990136 18.7123C1.15525 18.5289 1.28367 18.3271 1.3754 18.0519C1.46713 17.7767 1.52217 17.4464 1.55887 17.0611C1.59556 16.6759 1.6139 16.1621 1.6139 15.5567V4.18168C1.6139 3.57624 1.61391 3.08087 1.55887 2.67724C1.50383 2.27362 1.46713 1.96172 1.3754 1.68652C1.28367 1.41131 1.15525 1.19115 0.990136 1.02603C0.825021 0.86091 0.604871 0.695791 0.348026 0.549016H4.86116C5.118 0.549016 5.44823 0.549016 5.8335 0.549016H6.71412L6.69577 0.512322ZM4.34747 8.03451C4.60432 8.0712 4.80612 8.08955 4.95289 8.08955H5.42989C6.76915 8.08955 7.85157 7.81435 8.6588 7.26394C9.46602 6.71354 9.88798 5.99801 9.88798 5.08067C9.88798 4.23672 9.55775 3.55789 8.89729 3.06253C8.23683 2.56716 7.37457 2.29196 6.29215 2.29196C5.99861 2.29196 5.72343 2.29196 5.42989 2.32865C5.13635 2.36535 4.76943 2.40204 4.32912 2.47543V8.01616L4.34747 8.03451ZM4.34747 16.8777C4.86116 16.9877 5.30147 17.0611 5.65004 17.0978C5.99862 17.1345 6.40223 17.1529 6.84254 17.1529C8.36526 17.1529 9.53941 16.8593 10.3283 16.2355C11.1355 15.6301 11.5575 14.7678 11.5575 13.6303C11.5575 12.401 11.1172 11.447 10.2366 10.7682C9.77791 10.4196 9.26422 10.1627 8.6955 9.99762C8.12677 9.85084 7.39292 9.77745 6.47562 9.77745C6.09035 9.77745 5.76012 9.77745 5.44823 9.77745C5.13635 9.77745 4.76943 9.8325 4.32912 9.88754V16.841L4.34747 16.8777Z" fill="var(--fill-0, #333F48)"/>
<path id="Vector_2" d="M27.0198 17.3196C26.6896 17.7416 26.3593 18.1085 26.0658 18.4021C25.7723 18.6956 25.4604 18.9158 25.1485 19.0809C24.8366 19.246 24.5064 19.3745 24.1395 19.4479C23.7909 19.5212 23.3873 19.5579 22.9286 19.5579C21.9746 19.5579 21.1491 19.3745 20.4152 19.0259C19.6814 18.6773 19.1126 18.1819 18.709 17.5398C18.4155 17.0811 18.1953 16.5858 18.0853 16.0537C17.9752 15.5217 17.9201 14.8061 17.9201 13.9438V8.88011C17.9201 8.43979 17.9201 8.07285 17.9201 7.79765C17.9201 7.52245 17.8468 7.28394 17.7917 7.10047C17.7367 6.917 17.6083 6.75188 17.4615 6.6051C17.3147 6.45833 17.1129 6.29321 16.8744 6.0914H18.8191C19.2594 6.0914 19.5896 6.0547 19.8465 5.96297C20.1033 5.87124 20.3235 5.7428 20.5253 5.54099V13.4118C20.5253 14.1089 20.5803 14.6777 20.6904 15.118C20.8005 15.5583 20.9656 15.9253 21.2224 16.2372C21.4976 16.5858 21.8645 16.8426 22.3049 17.0261C22.7452 17.2096 23.2222 17.3013 23.7358 17.3013C24.7265 17.3013 25.5154 16.9894 26.1025 16.3656C26.6896 15.7418 26.9831 14.9346 26.9831 13.9071V8.84342C26.9831 8.40309 26.9831 8.03616 26.9831 7.76095C26.9831 7.48575 26.9281 7.24724 26.8547 7.06377C26.7813 6.88031 26.6896 6.71519 26.5428 6.56841C26.396 6.42164 26.2126 6.25652 25.9741 6.0547H27.9555C28.3591 6.0547 28.6893 6.01801 28.9278 5.92627C29.1663 5.83454 29.3864 5.70611 29.5883 5.5043V16.2922C29.5883 16.7509 29.5883 17.1178 29.5883 17.393C29.5883 17.6682 29.6433 17.8884 29.7167 18.0902C29.7901 18.2737 29.9001 18.4388 30.0469 18.5856C30.1937 18.7323 30.3955 18.8975 30.634 19.0993H27.1115V17.2462L27.0565 17.3013L27.0198 17.3196Z" fill="var(--fill-0, #333F48)"/>
<path id="Vector_3" d="M32.6551 19.1541C32.9119 18.9522 33.0954 18.7871 33.2421 18.6404C33.3889 18.4936 33.499 18.3285 33.5724 18.145C33.6457 17.9615 33.6824 17.723 33.7008 17.4662C33.7008 17.191 33.7008 16.824 33.7008 16.3653V3.33912C33.7008 2.88045 33.7008 2.51351 33.7008 2.23831C33.7008 1.96311 33.6274 1.74295 33.5724 1.55948C33.499 1.37601 33.3889 1.21089 33.2421 1.06411C33.0954 0.91734 32.8936 0.752219 32.6551 0.550404H34.6181C35.04 0.550404 35.3703 0.513711 35.6271 0.421977C35.884 0.330243 36.1041 0.201815 36.3059 0V16.347C36.3059 16.8057 36.3059 17.1726 36.3059 17.4478C36.3059 17.723 36.361 17.9432 36.4343 18.1266C36.5077 18.3101 36.6178 18.4752 36.7646 18.622C36.9113 18.7688 37.1131 18.9339 37.3516 19.1357H32.6367L32.6551 19.1541Z" fill="var(--fill-0, #333F48)"/>
<path id="Vector_4" d="M39.4056 19.1541C39.6624 18.9522 39.8459 18.7871 39.9927 18.6404C40.1394 18.4936 40.2495 18.3285 40.3229 18.145C40.3963 17.9615 40.433 17.723 40.4513 17.4662C40.4513 17.191 40.4513 16.824 40.4513 16.3653V3.33912C40.4513 2.88045 40.4513 2.51351 40.4513 2.23831C40.4513 1.96311 40.3779 1.74295 40.3229 1.55948C40.2495 1.37601 40.1394 1.21089 39.9927 1.06411C39.8459 0.91734 39.6441 0.752219 39.4056 0.550404H41.3686C41.7906 0.550404 42.1208 0.513711 42.3777 0.421977C42.6345 0.330243 42.8547 0.201815 43.0565 0V16.347C43.0565 16.8057 43.0565 17.1726 43.0565 17.4478C43.0565 17.723 43.1115 17.9432 43.1849 18.1266C43.2583 18.3101 43.3683 18.4752 43.5151 18.622C43.6619 18.7688 43.8637 18.9339 44.1022 19.1357H39.3872L39.4056 19.1541Z" fill="var(--fill-0, #333F48)"/>
<path id="Vector_5" d="M49.8936 16.3598C49.8936 16.8184 49.8936 17.1854 49.8936 17.4606C49.8936 17.7358 49.9487 17.9559 50.0221 18.1394C50.0955 18.3229 50.2055 18.488 50.3523 18.6348C50.4991 18.7815 50.7009 18.9467 50.9394 19.1485H46.2428C46.4996 18.9467 46.6831 18.7815 46.8299 18.6348C46.9766 18.488 47.0867 18.3229 47.1601 18.1394C47.2335 17.9559 47.2702 17.7174 47.2885 17.4606C47.3069 17.2037 47.2885 16.8184 47.2885 16.3598V8.89261C47.2885 8.45228 47.2885 8.08535 47.2885 7.81014C47.2885 7.53494 47.2335 7.29644 47.1601 7.11297C47.0867 6.9295 46.9766 6.76438 46.8299 6.6176C46.6831 6.47083 46.4813 6.30571 46.2428 6.1039H48.2058C48.6278 6.1039 48.958 6.0672 49.2148 5.99381C49.4717 5.92043 49.6918 5.77365 49.8936 5.57184V16.3598ZM48.5727 0.893404C49.0314 0.893404 49.435 1.05852 49.7836 1.42546C50.1322 1.77405 50.2973 2.17768 50.2973 2.6547C50.2973 3.13171 50.1322 3.57204 49.7836 3.92063C49.435 4.26922 49.013 4.43433 48.5177 4.43433C48.0223 4.43433 47.6187 4.26922 47.2885 3.92063C46.9399 3.57204 46.7748 3.16841 46.7748 2.6547C46.7748 2.14099 46.9399 1.7557 47.2885 1.42546C47.6371 1.07687 48.059 0.911751 48.5727 0.911751V0.893404Z" fill="var(--fill-0, #333F48)"/>
<path id="Vector_6" d="M60.6525 5.75499C62.5972 5.75499 64.23 6.36043 65.5509 7.57132C66.2664 8.23181 66.8168 9.00237 67.1837 9.84632C67.569 10.7086 67.7525 11.6076 67.7525 12.5433C67.7525 13.479 67.5506 14.4514 67.1837 15.277C66.7985 16.1209 66.2664 16.8731 65.5876 17.5153C64.9088 18.1574 64.1199 18.6528 63.2026 19.0014C62.2853 19.35 61.2946 19.5334 60.2489 19.5334C59.2032 19.5334 58.2492 19.3683 57.3869 19.0014C56.5063 18.6528 55.7358 18.1758 55.0937 17.5703C54.4516 16.9649 53.9379 16.2494 53.5709 15.4054C53.204 14.5798 53.0205 13.6625 53.0205 12.6901C53.0205 11.6076 53.2591 10.5985 53.7177 9.6812C54.1764 8.76386 54.8368 7.93826 55.6807 7.29612C56.3962 6.76406 57.1484 6.36044 57.9556 6.12193C58.7629 5.88342 59.6618 5.73664 60.6892 5.73664H60.6525V5.75499ZM60.1939 7.64471C59.5518 7.64471 58.9463 7.75479 58.4327 7.9933C57.919 8.23181 57.442 8.5437 57.075 8.96568C56.7081 9.38766 56.3962 9.88302 56.1761 10.4701C55.9559 11.0572 55.8458 11.6994 55.8458 12.3965C55.8458 13.1488 55.9559 13.8643 56.1944 14.5248C56.4329 15.1852 56.7448 15.7356 57.1668 16.2127C57.5887 16.6713 58.0657 17.0566 58.6161 17.3135C59.1665 17.5703 59.7903 17.7171 60.4507 17.7171C61.1112 17.7171 61.6983 17.607 62.2486 17.3869C62.799 17.1667 63.2577 16.8365 63.6429 16.4145C64.0282 15.9925 64.3401 15.4971 64.5419 14.91C64.7621 14.3413 64.8721 13.6992 64.8721 12.9836C64.8721 12.1764 64.7621 11.4425 64.5419 10.782C64.3217 10.1215 63.9915 9.57112 63.5879 9.09411C63.1659 8.63544 62.6706 8.2685 62.1019 8.01164C61.5331 7.75479 60.891 7.62636 60.1755 7.62636L60.1939 7.64471Z" fill="var(--fill-0, #333F48)"/>
<path id="Vector_7" d="M73.4658 7.94784C74.1446 7.14058 74.805 6.57183 75.4288 6.24158C76.0709 5.91134 76.8048 5.74622 77.6303 5.74622C78.5476 5.74622 79.3916 5.92969 80.1804 6.29662C80.9693 6.66356 81.5564 7.15892 81.9783 7.76437C82.1068 7.96618 82.2168 8.168 82.3086 8.38816C82.4003 8.60832 82.4737 8.86518 82.5287 9.15872C82.5838 9.45227 82.6205 9.80086 82.6388 10.1861C82.6571 10.5714 82.6388 11.0484 82.6388 11.5805V16.369C82.6388 16.8277 82.6388 17.1946 82.6388 17.4698C82.6388 17.745 82.6938 17.9652 82.7672 18.1487C82.8406 18.3321 82.9507 18.4972 83.0975 18.644C83.2442 18.7908 83.446 18.9559 83.6845 19.1577H78.9879C79.2264 18.9559 79.4282 18.7908 79.575 18.644C79.7218 18.4972 79.8319 18.3321 79.9052 18.1487C79.9786 17.9652 80.0153 17.7267 80.0337 17.4515C80.052 17.1763 80.0337 16.8093 80.0337 16.369V11.874C80.0337 11.1218 79.997 10.5347 79.9052 10.1128C79.8135 9.69078 79.6484 9.32384 79.4282 9.03029C79.153 8.68171 78.7494 8.38816 78.2357 8.14965C77.7221 7.92949 77.1717 7.81941 76.6029 7.81941C76.0342 7.81941 75.5205 7.92949 75.0435 8.14965C74.5665 8.36981 74.1996 8.68171 73.9428 9.04864C73.796 9.25046 73.7043 9.45227 73.6492 9.69078C73.5942 9.92929 73.5758 10.2412 73.5758 10.6632V16.369C73.5758 16.8277 73.5758 17.1946 73.5758 17.4698C73.5758 17.745 73.6309 17.9652 73.7043 18.1487C73.7776 18.3321 73.8694 18.4972 74.0162 18.644C74.1629 18.7908 74.3464 18.9559 74.5849 19.1577H69.9066C70.1635 18.9559 70.3469 18.7908 70.4937 18.644C70.6405 18.4972 70.7505 18.3321 70.8239 18.1487C70.8973 17.9652 70.934 17.7267 70.9523 17.4698C70.9707 17.213 70.9523 16.8277 70.9523 16.369V8.90187C70.9523 8.46154 70.9523 8.09461 70.9523 7.81941C70.9523 7.5442 70.8973 7.3057 70.8239 7.12223C70.7505 6.93876 70.6405 6.77364 70.4937 6.62687C70.3469 6.48009 70.1451 6.31497 69.9066 6.11316H71.7412C72.1632 6.11316 72.4934 6.07646 72.7503 6.00307C73.0071 5.92969 73.2273 5.78291 73.4291 5.5811V7.94784H73.4658Z" fill="var(--fill-0, #333F48)"/>
<path id="Vector_8" d="M1.60224 30.6681C1.60224 30.0626 1.60224 29.5673 1.5472 29.1636C1.49216 28.76 1.45547 28.4481 1.36374 28.1729C1.27201 27.8977 1.14359 27.6776 0.978478 27.5124C0.813363 27.3473 0.593206 27.1822 0.336361 27.0354H5.71176C5.43657 27.1822 5.23477 27.329 5.06965 27.5124C4.90454 27.6959 4.77612 27.8977 4.68439 28.1729C4.59266 28.4481 4.53761 28.7784 4.50092 29.1636C4.46423 29.5489 4.44589 30.0626 4.44589 30.6681V42.0431C4.44589 42.6485 4.44588 43.1439 4.50092 43.5475C4.53761 43.9328 4.59266 44.2631 4.68439 44.5383C4.77612 44.8135 4.90454 45.0336 5.06965 45.1987C5.23477 45.3639 5.45492 45.529 5.71176 45.6758H0.336361C0.611552 45.529 0.813363 45.3822 0.978478 45.1987C1.14359 45.0336 1.27201 44.8135 1.36374 44.5383C1.45547 44.2631 1.51051 43.9328 1.5472 43.5475C1.58389 43.1623 1.60224 42.6485 1.60224 42.0431V30.6681Z" fill="var(--fill-0, #333F48)"/>
<path id="Vector_9" d="M11.7037 34.4282C12.3825 33.6209 13.043 33.0522 13.6668 32.7219C14.3089 32.3917 15.0427 32.2265 15.8683 32.2265C16.7856 32.2265 17.6295 32.41 18.4184 32.7769C19.2073 33.1439 19.7944 33.6392 20.2163 34.2447C20.3447 34.4465 20.4548 34.6483 20.5465 34.8685C20.6383 35.0886 20.7116 35.3455 20.7667 35.639C20.8217 35.9326 20.8584 36.2812 20.8768 36.6665C20.8951 37.0517 20.8768 37.5288 20.8768 38.0608V42.8493C20.8768 43.308 20.8768 43.6749 20.8768 43.9501C20.8768 44.2253 20.9318 44.4455 21.0052 44.629C21.0786 44.8124 21.1887 44.9776 21.3354 45.1243C21.4822 45.2711 21.684 45.4362 21.9225 45.638H17.2259C17.4644 45.4362 17.6662 45.2711 17.813 45.1243C17.9597 44.9776 18.0698 44.8124 18.1432 44.629C18.2166 44.4455 18.2533 44.207 18.2716 43.9318C18.29 43.6566 18.2716 43.2897 18.2716 42.8493V38.3544C18.2716 37.6022 18.2349 37.0151 18.1432 36.5931C18.0515 36.1711 17.8864 35.8042 17.6662 35.5106C17.391 35.162 16.9874 34.8685 16.4737 34.63C15.96 34.3915 15.4096 34.2997 14.8409 34.2997C14.2722 34.2997 13.7585 34.4098 13.2815 34.63C12.8045 34.8501 12.4376 35.162 12.1807 35.529C12.034 35.7308 11.9422 35.9326 11.8872 36.1711C11.8322 36.4096 11.8138 36.7215 11.8138 37.1435V42.8493C11.8138 43.308 11.8138 43.6749 11.8138 43.9501C11.8138 44.2253 11.8688 44.4455 11.9422 44.629C12.0156 44.8124 12.1073 44.9776 12.2541 45.1243C12.4009 45.2711 12.5843 45.4362 12.8228 45.638H8.14459C8.40144 45.4362 8.5849 45.2711 8.73167 45.1243C8.87844 44.9776 8.98851 44.8124 9.0619 44.629C9.13528 44.4455 9.17197 44.207 9.19032 43.9501C9.20867 43.6933 9.19032 43.308 9.19032 42.8493V35.3822C9.19032 34.9419 9.19032 34.5749 9.19032 34.2997C9.19032 34.0245 9.13528 33.786 9.0619 33.6026C8.98851 33.4191 8.87844 33.254 8.73167 33.1072C8.5849 32.9604 8.38309 32.7953 8.14459 32.5935H9.9792C10.4012 32.5935 10.7314 32.5568 10.9882 32.4834C11.2451 32.41 11.4652 32.2632 11.667 32.0614V34.4282H11.7037Z" fill="var(--fill-0, #333F48)"/>
<path id="Vector_10" d="M28.1306 40.4896C28.1306 41.2785 28.1673 41.8473 28.2406 42.2142C28.314 42.5812 28.4425 42.8931 28.6443 43.1499C29.1763 43.7921 29.9101 44.1223 30.8274 44.1223C31.0476 44.1223 31.2311 44.1223 31.3962 44.0673C31.5613 44.0306 31.7631 43.9755 32.0199 43.8838L30.5522 45.9019C30.3504 45.9753 30.1853 46.012 30.0569 46.0304C29.9285 46.0304 29.745 46.0304 29.5249 46.0304C28.9378 46.0304 28.4058 45.9203 27.9288 45.7185C27.4518 45.5167 27.0115 45.2048 26.6078 44.7828C26.3877 44.5443 26.2226 44.3241 26.0758 44.104C25.9474 43.8838 25.8373 43.6269 25.7639 43.3334C25.6905 43.0398 25.6355 42.6729 25.6172 42.2509C25.5805 41.829 25.5805 41.3152 25.5805 40.6731V34.4352H23.6541V33.4078C24.6448 33.2427 25.4153 32.839 25.9841 32.1785C26.6812 31.4263 27.0481 30.2705 27.0481 28.711V28.3624H28.1673V32.5638H30.3688C30.8274 32.5638 31.176 32.5638 31.4145 32.5638C31.653 32.5638 31.8548 32.5088 32.0383 32.4354V34.9856C31.7998 34.7838 31.5796 34.6554 31.3411 34.582C31.1026 34.5086 30.7541 34.4719 30.2587 34.4719H28.1673V40.4713H28.1306V40.4896Z" fill="var(--fill-0, #333F48)"/>
<path id="Vector_11" d="M36.2829 38.8634C36.3563 40.5329 36.8884 41.8172 37.879 42.7529C38.8697 43.6886 40.2274 44.1472 41.9335 44.1472C42.8875 44.1472 43.7131 44.0372 44.4469 43.7987C45.1808 43.5602 45.9146 43.1749 46.6668 42.6428L45.1441 45.3398C44.5203 45.5966 43.8966 45.7618 43.3095 45.8719C42.7041 45.9636 42.0253 46.0186 41.2364 46.0186C40.0622 46.0186 38.9798 45.8535 38.0075 45.5049C37.0351 45.1563 36.1729 44.6977 35.4757 44.0739C34.7602 43.4684 34.2098 42.7345 33.8246 41.8906C33.4209 41.0466 33.2375 40.111 33.2375 39.1019C33.2375 38.0928 33.4393 37.1571 33.8613 36.2398C34.2649 35.3041 34.8336 34.5152 35.5491 33.8547C36.7783 32.7722 38.3377 32.2218 40.2457 32.2218C41.1813 32.2218 42.0253 32.3686 42.8141 32.6805C43.603 32.9924 44.2818 33.4144 44.8506 33.9648C45.4193 34.5152 45.8779 35.1757 46.1898 35.9279C46.5017 36.6801 46.6668 37.5057 46.6668 38.4047V38.8634H36.2829ZM43.7131 37.0837C43.3095 34.9922 42.0986 33.9648 40.1356 33.9648C39.1633 33.9648 38.356 34.24 37.7139 34.7904C37.0535 35.3408 36.6315 36.1114 36.4114 37.1204H43.7131V37.0837Z" fill="var(--fill-0, #333F48)"/>
<path id="Vector_12" d="M48.9159 45.638C49.1728 45.4362 49.3562 45.2711 49.503 45.1243C49.6498 44.9776 49.7598 44.8124 49.8332 44.629C49.9066 44.4455 49.9433 44.207 49.9617 43.9501C49.9617 43.6749 49.9617 43.308 49.9617 42.8493V35.3822C49.9617 34.9419 49.9617 34.5749 49.9617 34.2997C49.9617 34.0245 49.9066 33.786 49.8332 33.6026C49.7598 33.4191 49.6498 33.254 49.503 33.1072C49.3562 32.9604 49.1544 32.7953 48.9159 32.5935H50.879C51.3009 32.5935 51.6311 32.5568 51.888 32.4834C52.1448 32.41 52.365 32.2632 52.5668 32.0614V34.3915C53.3373 32.9421 54.4564 32.2082 55.9241 32.2082C56.181 32.2082 56.5112 32.2449 56.9148 32.3183V34.9235C56.5846 34.63 56.1443 34.4649 55.5755 34.4649C55.0802 34.4649 54.6032 34.5749 54.1629 34.7767C53.7226 34.9786 53.374 35.2721 53.1355 35.6207C52.7319 36.1711 52.5484 37.0334 52.5484 38.1893V42.8493C52.5484 43.308 52.5484 43.6749 52.5484 43.9501C52.5484 44.2253 52.6035 44.4455 52.6769 44.629C52.7503 44.8124 52.8603 44.9776 53.0071 45.1243C53.1539 45.2711 53.3557 45.4362 53.5942 45.638H48.8792H48.9159Z" fill="var(--fill-0, #333F48)"/>
<path id="Vector_13" d="M61.7165 34.4282C62.3953 33.6209 63.0557 33.0522 63.6795 32.7219C64.3216 32.3917 65.0555 32.2265 65.881 32.2265C66.7983 32.2265 67.6423 32.41 68.4311 32.7769C69.22 33.1439 69.8071 33.6392 70.2291 34.2447C70.3575 34.4465 70.4676 34.6483 70.5593 34.8685C70.651 35.0886 70.7244 35.3455 70.7794 35.639C70.8345 35.9326 70.8712 36.2812 70.8895 36.6665C70.9079 37.0517 70.8895 37.5288 70.8895 38.0608V42.8493C70.8895 43.308 70.8895 43.6749 70.8895 43.9501C70.8895 44.2253 70.9446 44.4455 71.0179 44.629C71.0913 44.8124 71.2014 44.9776 71.3482 45.1243C71.4949 45.2711 71.6967 45.4362 71.9352 45.638H67.2386C67.4771 45.4362 67.679 45.2711 67.8257 45.1243C67.9725 44.9776 68.0826 44.8124 68.1559 44.629C68.2293 44.4455 68.266 44.207 68.2844 43.9318C68.3027 43.6566 68.2844 43.2897 68.2844 42.8493V38.3544C68.2844 37.6022 68.2477 37.0151 68.1559 36.5931C68.0642 36.1711 67.8991 35.8042 67.679 35.5106C67.4038 35.162 67.0001 34.8685 66.4865 34.63C65.9728 34.3915 65.4224 34.2997 64.8537 34.2997C64.2849 34.2997 63.7712 34.4098 63.2942 34.63C62.8172 34.8501 62.4503 35.162 62.1935 35.529C62.0467 35.7308 61.955 35.9326 61.8999 36.1711C61.8449 36.4096 61.8266 36.7215 61.8266 37.1435V42.8493C61.8266 43.308 61.8266 43.6749 61.8266 43.9501C61.8266 44.2253 61.8816 44.4455 61.955 44.629C62.0284 44.8124 62.1201 44.9776 62.2669 45.1243C62.4136 45.2711 62.5971 45.4362 62.8356 45.638H58.1573C58.4142 45.4362 58.5976 45.2711 58.7444 45.1243C58.8912 44.9776 59.0013 44.8124 59.0746 44.629C59.148 44.4455 59.1847 44.207 59.2031 43.9501C59.2031 43.6749 59.2031 43.308 59.2031 42.8493V35.3822C59.2031 34.9419 59.2031 34.5749 59.2031 34.2997C59.2031 34.0245 59.148 33.786 59.0746 33.6026C59.0013 33.4191 58.8912 33.254 58.7444 33.1072C58.5976 32.9604 58.3958 32.7953 58.1573 32.5935H59.9919C60.4139 32.5935 60.7441 32.5568 61.001 32.4834C61.2578 32.41 61.478 32.2632 61.6798 32.0614V34.4282H61.7165Z" fill="var(--fill-0, #333F48)"/>
<path id="Vector_14" d="M82.4166 38.5749C82.1598 38.685 81.958 38.7767 81.7929 38.8501C81.6278 38.9235 81.426 38.9969 81.1875 39.0703C80.949 39.1437 80.6554 39.2171 80.2885 39.3088C79.9216 39.4005 79.4262 39.5106 78.8025 39.6574C77.4449 39.9876 76.7661 40.7032 76.7661 41.8407C76.7661 42.5745 77.0229 43.1433 77.5549 43.5469C78.087 43.9505 78.8208 44.1524 79.7748 44.1524C80.1417 44.1524 80.472 44.1524 80.7655 44.079C81.059 44.0239 81.4443 43.9322 81.9213 43.7854L80.2518 45.9136C79.9399 45.987 79.6831 46.0237 79.4813 46.0421C79.2611 46.0421 79.0043 46.0421 78.7107 46.0421C77.2798 46.0421 76.1606 45.6751 75.3718 44.9413C74.9131 44.5376 74.5462 44.0423 74.2893 43.4919C74.0325 42.9415 73.9041 42.3727 73.9041 41.804C73.9041 41.2352 74.0508 40.6481 74.326 40.1344C74.6196 39.6207 74.9865 39.2171 75.4818 38.9419C75.6836 38.8318 75.8854 38.74 76.0873 38.6483C76.2891 38.5566 76.5459 38.4648 76.8394 38.3731C77.133 38.2814 77.4449 38.208 77.8301 38.1163C78.197 38.0429 78.6557 37.9511 79.1877 37.8411C79.8115 37.7126 80.3252 37.5842 80.7472 37.4741C81.1508 37.364 81.481 37.2173 81.7195 37.0705C81.958 36.9237 82.1231 36.7402 82.2332 36.5568C82.3249 36.3733 82.38 36.1532 82.38 35.8963C82.38 35.3642 82.1231 34.9239 81.6278 34.5937C81.1324 34.2634 80.472 34.0983 79.6647 34.0983C79.3712 34.0983 79.0777 34.0983 78.8025 34.1533C78.5273 34.2084 78.2521 34.2451 77.9769 34.3368C77.7017 34.4285 77.3715 34.5386 77.0229 34.6854C76.6743 34.8322 76.2707 35.034 75.8121 35.2542L77.7017 32.4288C78.1053 32.337 78.4539 32.282 78.7107 32.2636C78.9676 32.2636 79.2978 32.2636 79.6647 32.2636C82.0681 32.2636 83.6458 32.9058 84.4347 34.1717C84.5631 34.3735 84.6549 34.557 84.7283 34.7221C84.8016 34.8872 84.8567 35.1074 84.8934 35.3459C84.9301 35.5844 84.9668 35.8779 84.9668 36.2265C84.9668 36.5751 84.9668 37.0154 84.9668 37.5475V41.1802C84.9668 41.5838 84.9668 41.9324 84.9668 42.1892C84.9668 42.4461 85.0218 42.6663 85.0585 42.813C85.0952 42.9598 85.1686 43.1066 85.2786 43.235C85.3704 43.3451 85.4988 43.4552 85.6639 43.5653C85.8657 43.7304 86.0859 43.8405 86.3427 43.8955C86.5996 43.9689 86.9298 44.0056 87.3517 44.0239L86.1226 45.877C85.4071 45.8219 84.8567 45.7485 84.4714 45.6568C84.0861 45.5651 83.7559 45.4183 83.444 45.2348C83.2239 45.1064 83.0404 44.9596 82.8936 44.8128C82.7469 44.6661 82.6368 44.4642 82.5451 44.2441C82.4717 44.0239 82.4167 43.7487 82.38 43.4368C82.3433 43.1249 82.3433 42.7397 82.3433 42.2626V38.63L82.38 38.5933L82.4166 38.5749Z" fill="var(--fill-0, #333F48)"/>
<path id="Vector_15" d="M92.774 40.4896C92.774 41.2785 92.8107 41.8473 92.8841 42.2142C92.9575 42.5812 93.0859 42.8931 93.2877 43.1499C93.8198 43.7921 94.5536 44.1223 95.4709 44.1223C95.6911 44.1223 95.8745 44.1223 96.0396 44.0673C96.2047 44.0306 96.4066 43.9755 96.6634 43.8838L95.1957 45.9019C94.9939 45.9753 94.8288 46.012 94.7004 46.0304C94.572 46.0304 94.3885 46.0304 94.1683 46.0304C93.5813 46.0304 93.0492 45.9203 92.5722 45.7185C92.0952 45.5167 91.6549 45.2048 91.2513 44.7828C91.0312 44.5443 90.866 44.3241 90.7193 44.104C90.5908 43.8838 90.4808 43.6269 90.4074 43.3334C90.334 43.0398 90.279 42.6729 90.2606 42.2509C90.2239 41.829 90.2239 41.3152 90.2239 40.6731V34.4352H88.2976V33.4078C89.2883 33.2427 90.0588 32.839 90.6275 32.1785C91.3247 31.4263 91.6916 30.2705 91.6916 28.711V28.3624H92.8107V32.5638H95.0123C95.4709 32.5638 95.8195 32.5638 96.058 32.5638C96.2965 32.5638 96.4983 32.5088 96.6817 32.4354V34.9856C96.4432 34.7838 96.2231 34.6554 95.9846 34.582C95.7461 34.5086 95.3975 34.4719 94.9022 34.4719H92.8107V40.4713H92.774V40.4896Z" fill="var(--fill-0, #333F48)"/>
<path id="Vector_16" d="M101.613 42.8498C101.613 43.3085 101.613 43.6754 101.613 43.9506C101.613 44.2258 101.669 44.446 101.742 44.6294C101.815 44.8129 101.925 44.978 102.072 45.1248C102.219 45.2716 102.421 45.4367 102.659 45.6385H97.9626C98.2194 45.4367 98.4029 45.2716 98.5497 45.1248C98.6964 44.978 98.8065 44.8129 98.8799 44.6294C98.9533 44.446 98.99 44.2075 99.0083 43.9506C99.0083 43.6754 99.0083 43.3085 99.0083 42.8498V35.3827C99.0083 34.9423 99.0083 34.5754 99.0083 34.3002C99.0083 34.025 98.9533 33.7865 98.8799 33.603C98.8065 33.4196 98.6964 33.2544 98.5497 33.1077C98.4029 32.9609 98.2011 32.7958 97.9626 32.5939H99.9256C100.348 32.5939 100.678 32.5572 100.935 32.4839C101.192 32.4105 101.412 32.2637 101.613 32.0619V42.8498ZM100.293 27.3835C100.751 27.3835 101.155 27.5486 101.503 27.9155C101.852 28.2641 102.017 28.6677 102.017 29.1447C102.017 29.6218 101.852 30.0621 101.503 30.4107C101.155 30.7593 100.733 30.9244 100.238 30.9244C99.7422 30.9244 99.3386 30.7593 99.0083 30.4107C98.6781 30.0621 98.4946 29.6585 98.4946 29.1447C98.4946 28.631 98.6598 28.2458 99.0083 27.9155C99.3569 27.5669 99.7789 27.4018 100.293 27.4018V27.3835Z" fill="var(--fill-0, #333F48)"/>
<path id="Vector_17" d="M112.417 32.2325C114.362 32.2325 115.995 32.838 117.315 34.0489C118.031 34.7093 118.581 35.4799 118.948 36.3239C119.334 37.1862 119.517 38.0851 119.517 39.0392C119.517 39.9932 119.315 40.9473 118.948 41.7729C118.563 42.6168 118.031 43.369 117.352 44.0112C116.673 44.6533 115.884 45.1487 114.967 45.4973C114.05 45.8458 113.059 46.0293 112.013 46.0293C110.968 46.0293 110.014 45.8642 109.151 45.4973C108.271 45.1487 107.5 44.6717 106.858 44.0662C106.216 43.4608 105.702 42.7452 105.335 41.9013C104.969 41.0757 104.785 40.1583 104.785 39.186C104.785 38.1035 105.024 37.0944 105.482 36.1771C105.941 35.2597 106.601 34.4341 107.445 33.792C108.161 33.2599 108.913 32.8563 109.72 32.6178C110.527 32.3793 111.426 32.2325 112.454 32.2325H112.417ZM111.958 34.1222C111.316 34.1222 110.711 34.2323 110.197 34.4708C109.665 34.7093 109.206 35.0212 108.84 35.4432C108.454 35.8652 108.161 36.3605 107.941 36.9476C107.72 37.5347 107.61 38.1769 107.61 38.8741C107.61 39.6263 107.72 40.3418 107.959 41.0023C108.197 41.6628 108.509 42.2132 108.931 42.6902C109.353 43.1489 109.83 43.5341 110.381 43.791C110.931 44.0662 111.555 44.1946 112.215 44.1946C112.876 44.1946 113.463 44.0846 114.013 43.8644C114.564 43.6442 115.022 43.314 115.407 42.892C115.793 42.47 116.105 41.9747 116.306 41.3876C116.527 40.8188 116.637 40.1767 116.637 39.4612C116.637 38.6539 116.527 37.92 116.306 37.2595C116.086 36.5991 115.756 36.0487 115.352 35.5716C114.949 35.0946 114.435 34.746 113.866 34.4892C113.298 34.2323 112.656 34.1039 111.94 34.1039L111.958 34.1222Z" fill="var(--fill-0, #333F48)"/>
<path id="Vector_18" d="M125.205 34.4282C125.884 33.6209 126.544 33.0522 127.168 32.7219C127.81 32.3917 128.544 32.2265 129.37 32.2265C130.287 32.2265 131.131 32.41 131.92 32.7769C132.709 33.1439 133.296 33.6392 133.718 34.2447C133.846 34.4465 133.956 34.6483 134.048 34.8685C134.14 35.0886 134.213 35.3455 134.268 35.639C134.323 35.9326 134.36 36.2812 134.378 36.6665C134.396 37.0517 134.378 37.5288 134.378 38.0608V42.8493C134.378 43.308 134.378 43.6749 134.378 43.9501C134.378 44.2253 134.433 44.4455 134.506 44.629C134.58 44.8124 134.69 44.9776 134.837 45.1243C134.983 45.2711 135.185 45.4362 135.424 45.638H130.727C130.966 45.4362 131.167 45.2711 131.314 45.1243C131.461 44.9776 131.571 44.8124 131.644 44.629C131.718 44.4455 131.755 44.207 131.773 43.9318C131.791 43.6566 131.773 43.2897 131.773 42.8493V38.3544C131.773 37.6022 131.736 37.0151 131.644 36.5931C131.553 36.1711 131.388 35.8042 131.167 35.5106C130.892 35.162 130.489 34.8685 129.975 34.63C129.461 34.3915 128.911 34.2997 128.342 34.2997C127.773 34.2997 127.26 34.4098 126.783 34.63C126.306 34.8501 125.939 35.162 125.682 35.529C125.535 35.7308 125.444 35.9326 125.388 36.1711C125.333 36.4096 125.315 36.7215 125.315 37.1435V42.8493C125.315 43.308 125.315 43.6749 125.315 43.9501C125.315 44.2253 125.37 44.4455 125.444 44.629C125.517 44.8124 125.609 44.9776 125.755 45.1243C125.902 45.2711 126.086 45.4362 126.324 45.638H121.646C121.903 45.4362 122.086 45.2711 122.233 45.1243C122.38 44.9776 122.49 44.8124 122.563 44.629C122.637 44.4455 122.673 44.207 122.692 43.9501C122.692 43.6749 122.692 43.308 122.692 42.8493V35.3822C122.692 34.9419 122.692 34.5749 122.692 34.2997C122.692 34.0245 122.637 33.786 122.563 33.6026C122.49 33.4191 122.38 33.254 122.233 33.1072C122.086 32.9604 121.884 32.7953 121.646 32.5935H123.48C123.902 32.5935 124.233 32.5568 124.49 32.4834C124.746 32.41 124.967 32.2632 125.168 32.0614V34.4282H125.205Z" fill="var(--fill-0, #333F48)"/>
<path id="Vector_19" d="M145.868 38.5749C145.611 38.685 145.41 38.7767 145.245 38.8501C145.079 38.9235 144.878 38.9969 144.639 39.0703C144.401 39.1437 144.107 39.2171 143.74 39.3088C143.373 39.4005 142.878 39.5106 142.254 39.6574C140.896 39.9876 140.218 40.7032 140.218 41.8407C140.218 42.5745 140.475 43.1433 141.007 43.5469C141.539 43.9505 142.272 44.1524 143.226 44.1524C143.593 44.1524 143.924 44.1524 144.217 44.079C144.511 44.0056 144.896 43.9322 145.373 43.7854L143.703 45.9136C143.392 45.987 143.135 46.0237 142.933 46.0421C142.713 46.0421 142.456 46.0421 142.162 46.0421C140.731 46.0421 139.612 45.6751 138.823 44.9413C138.365 44.5376 137.998 44.0423 137.741 43.4919C137.484 42.9415 137.356 42.3727 137.356 41.804C137.356 41.2352 137.502 40.6481 137.778 40.1344C138.071 39.6207 138.438 39.2171 138.933 38.9419C139.135 38.8318 139.337 38.74 139.539 38.6483C139.741 38.5566 139.998 38.4648 140.291 38.3731C140.585 38.2814 140.896 38.208 141.282 38.1163C141.667 38.0245 142.107 37.9511 142.639 37.8411C143.263 37.7126 143.777 37.5842 144.199 37.4741C144.602 37.364 144.933 37.2173 145.171 37.0705C145.41 36.9237 145.575 36.7402 145.685 36.5568C145.777 36.3733 145.832 36.1532 145.832 35.8963C145.832 35.3642 145.575 34.9239 145.079 34.5937C144.584 34.2634 143.924 34.0983 143.116 34.0983C142.823 34.0983 142.529 34.0983 142.254 34.1533C141.979 34.2084 141.704 34.2451 141.429 34.3368C141.153 34.4285 140.823 34.5386 140.475 34.6854C140.126 34.8322 139.722 35.034 139.264 35.2542L141.153 32.4288C141.557 32.337 141.906 32.282 142.162 32.2636C142.419 32.2636 142.749 32.2636 143.116 32.2636C145.52 32.2636 147.097 32.9058 147.886 34.1717C148.015 34.3735 148.106 34.557 148.18 34.7221C148.253 34.8872 148.308 35.1074 148.345 35.3459C148.382 35.5844 148.418 35.8779 148.418 36.2265C148.418 36.5751 148.418 37.0154 148.418 37.5475V41.1802C148.418 41.5838 148.418 41.9324 148.418 42.1892C148.418 42.4461 148.473 42.6663 148.51 42.813C148.547 42.9782 148.62 43.1066 148.73 43.235C148.822 43.3451 148.95 43.4552 149.116 43.5653C149.317 43.7304 149.537 43.8405 149.794 43.8955C150.051 43.9689 150.381 44.0056 150.803 44.0239L149.574 45.877C148.859 45.8219 148.308 45.7485 147.923 45.6568C147.538 45.5651 147.208 45.4183 146.896 45.2348C146.675 45.1064 146.492 44.9596 146.345 44.8128C146.198 44.6661 146.088 44.4642 145.997 44.2441C145.923 44.0239 145.868 43.7487 145.832 43.4368C145.795 43.1249 145.795 42.7397 145.795 42.2626V38.63L145.832 38.5933L145.868 38.5749Z" fill="var(--fill-0, #333F48)"/>
<path id="Vector_20" d="M152.016 45.6344C152.273 45.4326 152.457 45.2674 152.604 45.1207C152.75 44.9739 152.86 44.8088 152.934 44.6253C153.007 44.4418 153.044 44.2033 153.062 43.9465C153.062 43.6713 153.062 43.3043 153.062 42.8457V29.8194C153.062 29.3608 153.062 28.9938 153.062 28.7186C153.062 28.4434 152.989 28.2233 152.934 28.0398C152.86 27.8563 152.75 27.6912 152.604 27.5444C152.457 27.3977 152.255 27.2325 152.016 27.0307H153.979C154.401 27.0307 154.732 26.994 154.988 26.9023C155.245 26.8106 155.465 26.6821 155.667 26.4803V42.8273C155.667 43.286 155.667 43.6529 155.667 43.9281C155.667 44.2033 155.722 44.4235 155.796 44.607C155.869 44.7904 155.979 44.9556 156.126 45.1023C156.273 45.2491 156.475 45.4142 156.713 45.616H151.998L152.016 45.6344Z" fill="var(--fill-0, #333F48)"/>
<path id="Vector_21" d="M16.1079 56.8107C15.4657 56.2236 14.7502 55.7833 13.9614 55.5264C13.1725 55.2512 12.2185 55.1228 11.1177 55.1228C10.017 55.1228 8.89784 55.3063 7.94385 55.6732C6.98985 56.0401 6.14594 56.5539 5.44879 57.2143C4.75164 57.8748 4.20125 58.6637 3.81598 59.5994C3.43071 60.5351 3.22891 61.5258 3.22891 62.6083C3.22891 63.6908 3.44906 64.7549 3.87102 65.7089C4.29298 66.6813 4.88006 67.5252 5.6139 68.2408C6.34774 68.9563 7.22835 69.5434 8.21904 69.9654C9.20973 70.3873 10.2922 70.5892 11.4113 70.5892C12.0901 70.5892 12.7872 70.5341 13.5211 70.4424C14.2549 70.3506 14.842 70.2222 15.2823 70.0571V66.3143C15.2823 65.7089 15.2823 65.2135 15.2272 64.8099C15.1906 64.4246 15.1355 64.0944 15.0438 63.8192C14.952 63.544 14.8236 63.3238 14.6585 63.1587C14.4934 62.9936 14.2732 62.8285 14.0164 62.6817H18.291C18.181 63.0303 18.1259 63.599 18.1259 64.3512V70.3506C18.1259 70.791 18.1259 71.1029 18.1626 71.268C18.1626 71.4331 18.2177 71.6166 18.291 71.8C18.0892 71.8 17.9425 71.8367 17.8507 71.8367C17.759 71.8367 17.5755 71.8918 17.3003 71.9652C16.6582 72.0936 16.0712 72.2037 15.5575 72.2954C15.0438 72.3871 14.5668 72.4605 14.1265 72.5156C13.6862 72.5706 13.2642 72.6073 12.8423 72.6257C12.4203 72.6257 11.98 72.6257 11.5213 72.6257C9.96192 72.6257 8.60431 72.4605 7.37512 72.1486C6.16428 71.8184 5.04517 71.323 4.07283 70.6442C2.77026 69.7452 1.76122 68.6444 1.06407 67.3418C0.348572 66.0208 0 64.5898 0 63.0119C0 61.4341 0.385269 59.9113 1.11911 58.5537C1.85295 57.196 2.93537 56.0585 4.31132 55.1411C5.3387 54.4623 6.43948 53.9486 7.61362 53.6184C8.78777 53.2881 10.1454 53.123 11.6131 53.123C11.9983 53.123 12.3653 53.123 12.7138 53.123C13.0624 53.123 13.3926 53.1597 13.7412 53.1964C14.0898 53.2331 14.4384 53.2881 14.8236 53.3432C15.2089 53.4165 15.6308 53.4899 16.0895 53.5633V56.7924L16.1079 56.8107Z" fill="var(--fill-0, #333F48)"/>
<path id="Vector_22" d="M21.2371 72.1388C21.494 71.937 21.6774 71.7719 21.8242 71.6251C21.971 71.4783 22.081 71.3132 22.1544 71.1297C22.2278 70.9463 22.2645 70.7077 22.2829 70.4509C22.2829 70.1757 22.2829 69.8088 22.2829 69.3501V61.8829C22.2829 61.4426 22.2829 61.0757 22.2829 60.8005C22.2829 60.5253 22.2278 60.2868 22.1544 60.1033C22.081 59.9198 21.971 59.7547 21.8242 59.6079C21.6774 59.4612 21.4756 59.296 21.2371 59.0942H23.2002C23.6221 59.0942 23.9524 59.0575 24.2092 58.9841C24.466 58.9108 24.6862 58.764 24.888 58.5622V60.8922C25.6585 59.4428 26.7776 58.7089 28.2453 58.7089C28.5022 58.7089 28.8324 58.7456 29.236 58.819V61.4243C28.9058 61.1307 28.4655 60.9656 27.8968 60.9656C27.4014 60.9656 26.9244 61.0757 26.4841 61.2775C26.0438 61.4793 25.6952 61.7729 25.4567 62.1214C25.0531 62.6719 24.8697 63.5341 24.8697 64.69V69.3501C24.8697 69.8088 24.8697 70.1757 24.8697 70.4509C24.8697 70.7261 24.9247 70.9463 24.9981 71.1297C25.0715 71.3132 25.1815 71.4783 25.3283 71.6251C25.4751 71.7719 25.6769 71.937 25.9154 72.1388H21.2004H21.2371Z" fill="var(--fill-0, #333F48)"/>
<path id="Vector_23" d="M38.1864 58.7205C40.131 58.7205 41.7638 59.3259 43.0848 60.5368C43.8003 61.1973 44.3506 61.9679 44.7176 62.8118C45.1028 63.6741 45.2863 64.5731 45.2863 65.5088C45.2863 66.4445 45.0845 67.4169 44.7176 68.2425C44.3323 69.0864 43.8003 69.8387 43.1215 70.4808C42.4426 71.1229 41.6538 71.6183 40.7365 71.9669C39.8192 72.3155 38.8285 72.4989 37.7827 72.4989C36.737 72.4989 35.783 72.3338 34.9208 71.9669C34.0401 71.6183 33.2696 71.1413 32.6275 70.5358C31.9854 69.9304 31.4717 69.2149 31.1048 68.3709C30.7378 67.5453 30.5544 66.628 30.5544 65.6556C30.5544 64.5731 30.7929 63.5641 31.2515 62.6467C31.7102 61.6927 32.3706 60.9038 33.2146 60.2616C33.9301 59.7296 34.6823 59.3259 35.4895 59.0874C36.2967 58.8489 37.1957 58.7022 38.223 58.7022H38.1864V58.7205ZM37.7277 60.6102C37.0856 60.6102 36.4802 60.7203 35.9665 60.9588C35.4528 61.1973 34.9758 61.5092 34.6089 61.9312C34.2236 62.3532 33.9301 62.8485 33.7099 63.4356C33.4898 64.0227 33.3797 64.6649 33.3797 65.362C33.3797 66.1143 33.4898 66.8298 33.7283 67.4903C33.9668 68.1508 34.2786 68.7012 34.7006 69.1782C35.1226 69.6368 35.5996 70.0221 36.1499 70.279C36.7003 70.5358 37.3241 70.6826 37.9845 70.6826C38.645 70.6826 39.2321 70.5725 39.7825 70.3524C40.3329 70.1322 40.7915 69.802 41.1768 69.38C41.562 68.958 41.8739 68.4627 42.0757 67.8756C42.2959 67.3068 42.406 66.6647 42.406 65.9491C42.406 65.1419 42.2959 64.408 42.0757 63.7475C41.8556 63.087 41.5253 62.5366 41.1217 62.0596C40.6998 61.6009 40.2044 61.234 39.6357 60.9772C39.067 60.7203 38.4248 60.5919 37.7094 60.5919L37.7277 60.6102Z" fill="var(--fill-0, #333F48)"/>
<path id="Vector_24" d="M57.512 70.2842C57.1817 70.7061 56.8515 71.0731 56.558 71.3666C56.2644 71.6602 55.9525 71.8803 55.6406 72.0455C55.3288 72.2106 54.9985 72.339 54.6316 72.4124C54.283 72.4858 53.8794 72.5225 53.4208 72.5225C52.4668 72.5225 51.6412 72.339 50.9074 71.9904C50.1735 71.6418 49.6048 71.1465 49.2012 70.5043C48.9076 70.0457 48.6875 69.5503 48.5774 69.0182C48.4673 68.4678 48.4123 67.7707 48.4123 66.9084V61.8446C48.4123 61.4043 48.4123 61.0374 48.4123 60.7622C48.4123 60.487 48.3389 60.2485 48.2839 60.065C48.2288 59.8815 48.1004 59.7164 47.9537 59.5696C47.8069 59.4229 47.6051 59.2577 47.3666 59.0559H49.3113C49.7516 59.0559 50.0818 59.0192 50.3386 58.9275C50.5955 58.8358 50.8156 58.7073 51.0174 58.5055V66.3763C51.0174 67.0735 51.0725 67.6422 51.1826 68.0826C51.2926 68.5229 51.4577 68.8898 51.7146 69.2017C51.9898 69.5503 52.3567 69.8072 52.797 69.9906C53.2373 70.1741 53.7143 70.2658 54.228 70.2658C55.2187 70.2658 56.0076 69.9539 56.5947 69.3301C57.1817 68.7064 57.4753 67.8991 57.4753 66.8717V61.808C57.4753 61.3676 57.4753 61.0007 57.4753 60.7255C57.4753 60.4503 57.4202 60.2118 57.3468 60.0283C57.2735 59.8448 57.1817 59.6797 57.035 59.533C56.8882 59.3862 56.7047 59.2211 56.4662 59.0192H58.4476C58.8512 59.0192 59.1815 58.9825 59.42 58.8908C59.6584 58.7991 59.8786 58.6707 60.0804 58.4688V69.2568C60.0804 69.7154 60.0804 70.0824 60.0804 70.3576C60.0804 70.6328 60.1354 70.8529 60.2088 71.0547C60.2822 71.2382 60.3923 71.4033 60.5391 71.5501C60.6858 71.6969 60.8876 71.862 61.1261 72.0638H57.6037V70.2108L57.5486 70.2658L57.512 70.2842Z" fill="var(--fill-0, #333F48)"/>
<path id="Vector_25" d="M67.3913 69.8679C67.9968 70.1615 68.5471 70.3633 69.0058 70.4734C69.4644 70.5835 69.9965 70.6385 70.5652 70.6385C71.9779 70.6385 73.0786 70.2165 73.8308 69.3542C74.583 68.4919 74.9866 67.281 74.9866 65.7216C74.9866 64.9693 74.8765 64.2722 74.6747 63.6484C74.4729 63.0246 74.1794 62.4742 73.7941 62.0338C73.4089 61.5752 72.9686 61.2266 72.4365 60.9881C71.9045 60.7312 71.3174 60.6028 70.6753 60.6028C70.0332 60.6028 69.4094 60.7312 68.8407 61.0064C68.2536 61.2816 67.7766 61.6486 67.373 62.1439C67.1162 62.4742 66.951 62.8228 66.841 63.2264C66.7309 63.63 66.6758 64.1437 66.6758 64.7859V75.2069C66.6758 75.6472 66.6758 76.0325 66.7125 76.326C66.7492 76.6196 66.7859 76.8764 66.8777 77.0599C66.951 77.2617 67.0611 77.4268 67.1895 77.5552C67.318 77.6837 67.5014 77.8121 67.7216 77.9405H63.0433C63.2818 77.8121 63.4653 77.6837 63.5937 77.5552C63.7221 77.4268 63.8322 77.2617 63.9239 77.0599C64.0157 76.8581 64.0524 76.6196 64.089 76.3444C64.1257 76.0508 64.1257 75.6839 64.1257 75.2069V61.9054C64.1257 61.4651 64.1257 61.0982 64.1257 60.823C64.1257 60.5478 64.0524 60.3093 63.9973 60.1258C63.9423 59.9423 63.8139 59.7772 63.6671 59.6304C63.5203 59.4836 63.3185 59.3185 63.08 59.1167H65.043C65.465 59.1167 65.7952 59.08 66.0521 59.0066C66.3089 58.9332 66.5291 58.7865 66.7309 58.603V60.8046C67.2262 60.1808 67.905 59.6855 68.7306 59.3185C69.5562 58.9516 70.4368 58.7681 71.3724 58.7681C72.2347 58.7681 73.0786 58.9516 73.9409 59.3002C74.8032 59.6488 75.5187 60.1258 76.1057 60.7312C76.6745 61.3183 77.1148 62.0338 77.4267 62.8595C77.7385 63.6851 77.9036 64.5657 77.9036 65.483C77.9036 66.5105 77.7385 67.4462 77.39 68.2901C77.0414 69.1341 76.5827 69.9046 75.959 70.5468C75.3535 71.1889 74.638 71.6843 73.7941 72.0329C72.9685 72.3814 72.0513 72.5649 71.0789 72.5649C70.6753 72.5649 70.3084 72.5649 69.9965 72.4915C69.6846 72.4365 69.336 72.3448 68.9141 72.198L67.3913 69.923L67.428 69.8679H67.3913Z" fill="var(--fill-0, #333F48)"/>
</g>
</svg>
