<svg preserveAspectRatio="none" width="100%" height="100%" overflow="visible" style="display: block;" viewBox="0 0 44.7682 71.8087" fill="none" xmlns="http://www.w3.org/2000/svg">
<g id="Group">
<path id="Vector" d="M44.0238 14.9561L4.37788 37.8529C3.47892 38.3666 2.34146 37.8529 2.13966 36.8438L0.0298526 16.1853C-0.0985701 15.5432 0.19497 14.901 0.763699 14.5708L25.6593 0.205233C26.2281 -0.125009 26.9436 -0.051621 27.4206 0.388702L44.2623 12.5526C45.0328 13.2498 44.9044 14.479 44.0054 14.9927L44.0238 14.9561Z" fill="url(#paint0_linear_0_4)"/>
<path id="Vector_2" d="M44.0238 48.71L4.37788 71.6068C3.47892 72.1205 2.34146 71.6068 2.13966 70.5977L0.0298526 49.9392C-0.0985701 49.2971 0.19497 48.6549 0.763699 48.3247L25.6593 33.9592C26.2281 33.6289 26.9436 33.7023 27.4206 34.1426L44.2623 46.3066C45.0328 47.0037 44.9044 48.233 44.0054 48.7467L44.0238 48.71Z" fill="url(#paint1_linear_0_4)"/>
</g>
<defs>
<linearGradient id="paint0_linear_0_4" x1="-0.905798" y1="29.0647" x2="39.1446" y2="4.5181" gradientUnits="userSpaceOnUse">
<stop stop-color="#D99A46"/>
<stop offset="0.25" stop-color="#F1BB65"/>
<stop offset="0.51" stop-color="#FBCC73"/>
<stop offset="0.75" stop-color="#F1BB65"/>
<stop offset="1" stop-color="#D99A46"/>
</linearGradient>
<linearGradient id="paint1_linear_0_4" x1="1.84612" y1="60.1951" x2="36.9979" y2="40.4184" gradientUnits="userSpaceOnUse">
<stop stop-color="#B8B8B9"/>
<stop offset="0.25" stop-color="#C8C9C8"/>
<stop offset="0.5" stop-color="#D3D4D4"/>
<stop offset="0.75" stop-color="#C8C9C8"/>
<stop offset="1" stop-color="#B8B8B9"/>
</linearGradient>
</defs>
</svg>
