<svg preserveAspectRatio="none" width="100%" height="100%" overflow="visible" style="display: block;" viewBox="0 0 100 65.5173" fill="none" xmlns="http://www.w3.org/2000/svg">
<g id="Group">
<path id="Vector" d="M99.9998 5.04003H0V1.72421C0 0.772068 0.772069 0 1.72422 0H98.2758C99.2279 0 100 0.772068 100 1.72421L99.9998 5.04003Z" fill="var(--fill-0, #FF4B55)"/>
<path id="Vector_2" d="M99.9998 20.159H0V25.1988H99.9998V20.159Z" fill="var(--fill-0, #FF4B55)"/>
<path id="Vector_3" d="M99.9998 10.079H0V15.1188H99.9998V10.079Z" fill="var(--fill-0, #FF4B55)"/>
<path id="Vector_4" d="M99.9998 35.2785H1.72422C0.772069 35.2785 0 34.5064 0 33.5543V30.2385H99.9998V35.2785Z" fill="var(--fill-0, #FF4B55)"/>
<path id="Vector_5" d="M99.9998 50.3992H0V55.439H99.9998V50.3992Z" fill="var(--fill-0, #FF4B55)"/>
<path id="Vector_6" d="M98.2756 65.5172H1.72422C0.772069 65.5172 0 64.7451 0 63.7929V60.4773H99.9998V63.7931C99.9998 64.7453 99.2277 65.5172 98.2756 65.5172Z" fill="var(--fill-0, #FF4B55)"/>
<path id="Vector_7" d="M99.9998 40.3191H0V45.3589H99.9998V40.3191Z" fill="var(--fill-0, #FF4B55)"/>
</g>
</svg>
