<svg preserveAspectRatio="none" width="100%" height="100%" overflow="visible" style="display: block;" viewBox="0 0 100 65.5171" fill="none" xmlns="http://www.w3.org/2000/svg">
<path id="Vector" d="M99.9996 1.72421C99.9996 0.772066 99.2275 0 98.2754 0H90.5616L58.6203 20.9271V0H41.3789V20.9271L9.43785 0H1.72421C0.772067 0 0 0.772066 0 1.72421V6.18337L27.404 24.1378H0V41.3791H27.404L0 59.3338V63.7929C0 64.7451 0.772067 65.5171 1.72421 65.5171H9.43805L41.3793 44.5901V65.5171H58.6207V44.5901L90.5619 65.5171H98.2758C99.2279 65.5171 100 64.7451 100 63.7929V59.3338L72.596 41.3793H99.9996V24.138H72.5956L99.9996 6.18337V1.72421Z" fill="var(--fill-0, #F5F5F5)"/>
</svg>
