<svg preserveAspectRatio="none" width="100%" height="100%" overflow="visible" style="display: block;" viewBox="0 0 181.043 50" fill="none" xmlns="http://www.w3.org/2000/svg">
<g id="Group">
<path id="Vector" d="M0 12.499C0 5.37543 3.28517 0.138621 10.6999 0.138621C18.1147 0.138621 21.5387 5.37543 21.5387 12.499V37.501C21.5387 44.6246 18.2535 49.8614 10.6999 49.8614C3.14636 49.8614 0 44.6246 0 37.501V12.499ZM3.21962 37.7089C3.21962 43.015 5.31719 46.9272 10.7038 46.9272C16.0904 46.9272 18.3268 43.015 18.3268 37.7089V12.2911C18.3268 6.98498 16.1598 3.07278 10.7038 3.07278C5.24778 3.07278 3.21962 6.98498 3.21962 12.2911V37.7089Z" fill="var(--fill-0, white)"/>
<path id="Vector_2" d="M29.7897 49.4417H26.8516V0.558334H31.0467L45.7336 41.829V0.558334H48.6717V49.4417H45.1051L29.7897 5.86446V49.4417Z" fill="var(--fill-0, white)"/>
<path id="Vector_3" d="M70.7696 23.1844V26.1186H57.413V46.5114H73.4956V49.4455H54.1934V0.558334H73.4956V3.49249H57.413V23.1844H70.7696Z" fill="var(--fill-0, white)"/>
<path id="Vector_4" d="M90.2765 22.2064H101.046V37.7089C101.046 45.5295 97.1283 50 89.5786 50C82.0289 50 78.1114 45.5295 78.1114 37.7089V12.2911C78.1114 4.47054 82.0289 0 89.5786 0C97.1283 0 101.046 4.47054 101.046 12.2911V17.0389H93.7738V11.8021C93.7738 8.30959 92.2353 6.98498 89.7868 6.98498C87.3384 6.98498 85.7999 8.30959 85.7999 11.8021V38.1979C85.7999 41.6904 87.3384 42.9457 89.7868 42.9457C92.2353 42.9457 93.7738 41.6904 93.7738 38.1979V29.1875H90.2765V22.2064Z" fill="var(--fill-0, white)"/>
<path id="Vector_5" d="M105.384 12.2911C105.384 4.47054 109.509 0 117.063 0C124.617 0 128.742 4.47054 128.742 12.2911V37.7089C128.742 45.5295 124.617 50 117.063 50C109.509 50 105.384 45.5295 105.384 37.7089V12.2911ZM113.076 38.1979C113.076 41.6904 114.614 43.015 117.063 43.015C119.511 43.015 121.05 41.6866 121.05 38.1979V11.8021C121.05 8.30959 119.511 6.98498 117.063 6.98498C114.614 6.98498 113.076 8.30959 113.076 11.8021V38.1979Z" fill="var(--fill-0, white)"/>
<path id="Vector_6" d="M133.701 0.558334H141.394V42.4605H154.052V49.4455H133.701V0.558334Z" fill="var(--fill-0, white)"/>
<path id="Vector_7" d="M157.406 0.558337H169.575C177.268 0.558337 181.043 4.8171 181.043 12.6415V37.3623C181.043 45.1829 177.268 49.4455 169.575 49.4455H157.406V0.558337ZM165.099 7.54332V42.4605H169.433C171.881 42.4605 173.35 41.2052 173.35 37.7127V12.2911C173.35 8.79861 171.881 7.54332 169.433 7.54332H165.099Z" fill="var(--fill-0, white)"/>
</g>
</svg>
