<svg preserveAspectRatio="none" width="100%" height="100%" overflow="visible" style="display: block;" viewBox="0 0 106.006 37" fill="none" xmlns="http://www.w3.org/2000/svg">
<g id="Group">
<path id="Vector" d="M94.4201 0.429685H4.42797C2.14854 0.429685 0.300701 2.27439 0.300701 4.54995V32.5325C0.300701 34.808 2.14854 36.6527 4.42797 36.6527H94.4201C96.6995 36.6527 98.5473 34.808 98.5473 32.5325V4.54995C98.5473 2.27439 96.6995 0.429685 94.4201 0.429685Z" fill="var(--fill-0, white)"/>
<path id="Vector_2" d="M98.3292 4.85603C98.3292 2.38387 96.3186 0.37671 93.8364 0.37671H33.8849V36.6174H93.8305C95.0215 36.6174 96.1653 36.1465 97.0085 35.3048C97.8516 34.4631 98.3233 33.3271 98.3233 32.1381V4.85603H98.3292Z" fill="var(--fill-0, #197EEB)"/>
<path id="Vector_3" d="M93.8364 37H33.5075V0H93.8364C96.525 0 98.7065 2.17786 98.7124 4.85603V32.1381C98.7124 34.8221 96.5309 36.9941 93.8364 36.9941M34.2681 36.2407H93.8305C96.1005 36.2407 97.94 34.4042 97.9459 32.144V4.85603C97.9459 2.59577 96.1064 0.759306 93.8305 0.759306H34.2681V36.2407ZM14.8464 12.2313L13.2839 14.3856C12.4997 15.4628 12.7415 17.3758 13.8146 18.1468L16.7213 20.2364C17.2225 20.5954 17.2579 20.9545 17.022 21.3312L17.4465 21.6432L18.9206 19.6125C19.8286 18.3587 19.7519 16.6459 18.4017 15.6688L15.4655 13.538C15.1176 13.2849 15.0763 12.9259 15.2709 12.5315L14.8464 12.2313ZM17.3581 2.71349L14.9171 6.08034C13.7733 7.6637 14.1978 10.3478 15.7544 11.5014L19.7696 14.4386C20.5833 15.0331 20.6894 16.5517 20.0998 17.3287L20.4418 17.5818L23.2129 13.7028C24.457 11.9605 24.3863 9.38244 22.4287 7.96977L18.1364 4.86192C17.535 4.43223 17.2343 3.69058 17.7355 2.98425L17.364 2.72526M10.9255 23.821H14.1624L14.7402 25.7752H20.029L20.6069 23.821H23.8438L23.4193 22.3848H11.3559L10.9314 23.821M12.4408 30.3605C13.0068 30.0309 13.3606 29.5423 13.3606 28.8713C13.3606 27.5352 12.2639 26.9936 11.067 26.9936H7.72389V34.0805H11.0375C12.4526 34.0805 13.9502 33.4625 13.7084 31.8379C13.561 30.9079 13.1955 30.6901 12.4408 30.3546M9.22739 28.3416H10.9726C12.0575 28.3416 12.0988 29.8543 11.0375 29.8543H9.22739V28.3416ZM11.1731 32.7385H9.22739V31.1198H11.1731C12.6 31.1198 12.5115 32.7385 11.1731 32.7385ZM19.0857 30.3605C19.6517 30.0309 20.0055 29.5423 20.0055 28.8713C20.0055 27.5352 18.9088 26.9936 17.7119 26.9936H14.3688V34.0864H17.6824C19.0975 34.0864 20.5951 33.4683 20.3533 31.8438C20.2118 30.9138 19.8404 30.696 19.0857 30.3605ZM15.8782 28.3416H17.6057C18.6906 28.3416 18.7319 29.8543 17.6706 29.8543H15.8723V28.3416H15.8782ZM17.8121 32.7385H15.8723V31.1257H17.8121C19.239 31.1257 19.1505 32.7444 17.8121 32.7444V32.7385ZM26.9923 31.8438C26.8508 30.9138 26.4794 30.696 25.7247 30.3605C26.2907 30.0309 26.6445 29.5423 26.6445 28.8713C26.6445 27.5352 25.5478 26.9936 24.3509 26.9936H21.0078V34.0864H24.3214C25.7365 34.0864 27.2341 33.4683 26.9923 31.8438ZM22.5231 28.3474H24.2565C25.3414 28.3474 25.3827 29.8602 24.3214 29.8602H22.5172V28.3474H22.5231ZM24.457 32.7385H22.5113V31.1198H24.4511C25.878 31.1198 25.7895 32.7385 24.4511 32.7385H24.457Z" fill="var(--fill-0, #197EEB)"/>
<path id="Vector_4" d="M43.3304 17.0167L43.0061 16.122H40.7361L40.4 17.0167H39.1147L41.1606 11.7428H42.5698L44.6099 17.0167H43.3245H43.3304ZM41.8741 12.8611L41.0486 15.1273H42.6995L41.8741 12.8611ZM44.9106 14.3797C44.9106 12.7611 46.1369 11.6486 47.723 11.6486C48.6487 11.625 49.5036 12.1254 49.934 12.9435L48.9671 13.4203C48.7253 12.9553 48.2536 12.661 47.7289 12.6492C46.7678 12.6492 46.0721 13.385 46.0721 14.3738C46.0721 15.3627 46.7678 16.0985 47.7289 16.0985C48.2536 16.0926 48.7312 15.7983 48.973 15.3333L49.934 15.8101C49.5508 16.4634 48.8845 17.105 47.723 17.105C46.1428 17.105 44.9047 16.0043 44.9047 14.3797H44.9106ZM50.4116 14.3797C50.4116 12.7611 51.638 11.6486 53.224 11.6486C54.1497 11.625 55.0047 12.1254 55.4351 12.9435L54.4681 13.4203C54.2264 12.9553 53.7488 12.661 53.2182 12.6492C52.2571 12.6492 51.5613 13.385 51.5613 14.3738C51.5613 15.3627 52.2571 16.0985 53.2182 16.0985C53.7429 16.0926 54.2205 15.7983 54.4622 15.3333L55.4292 15.7983C55.0459 16.4516 54.3797 17.0932 53.2182 17.0932C51.6321 17.105 50.4057 16.0043 50.4057 14.3856L50.4116 14.3797ZM59.1614 17.0167L58.1237 15.1508H57.2983V17.0167H56.1721V11.7428H58.6485C59.751 11.7428 60.4232 12.4609 60.4232 13.4438C60.4232 14.4268 59.8336 14.8801 59.2675 15.0095L60.4586 17.0226H59.1614V17.0167ZM59.2675 13.4438C59.2675 13.0024 58.9256 12.7257 58.4716 12.7257H57.2924V14.1502H58.4716C58.9315 14.1561 59.2675 13.8912 59.2675 13.4438ZM61.3253 17.0167V11.7428H65.0752V12.7316H62.4514V13.8441H65.0103V14.833H62.4514V16.0278H65.0693V17.0167H61.3253ZM66.0068 17.0167V11.7428H68.094C69.7508 11.7428 70.9005 12.7905 70.9005 14.3856C70.9005 15.9808 69.7449 17.0167 68.094 17.0167H66.0068ZM69.7508 14.3856C69.7508 13.4556 69.173 12.7316 68.094 12.7316H67.1329V16.0278H68.094C69.1317 16.0278 69.7449 15.2803 69.7449 14.3856H69.7508ZM71.7555 17.0167V11.7428H72.8816V17.0167H71.7555ZM75.2047 17.0167V12.7316H73.6599V11.7428H77.8874V12.7316H76.3426V17.0167H75.2106H75.2047ZM78.6539 17.0167V11.7428H82.4038V12.7316H79.7801V13.8441H82.339V14.833H79.7801V16.0278H82.3979V17.0167H78.6539ZM83.3295 17.0167V11.7428H85.4167C87.0735 11.7428 88.2233 12.7905 88.2233 14.3856C88.2233 15.9808 87.0676 17.0167 85.4167 17.0167H83.3295ZM87.0794 14.3856C87.0794 13.4556 86.5016 12.7316 85.4226 12.7316H84.4616V16.0278H85.4226C86.4662 16.0278 87.0735 15.2803 87.0735 14.3856H87.0794ZM39.6807 26.0695V20.7956H42.4637C43.4719 20.7956 43.9849 21.4372 43.9849 22.1376C43.9849 22.8027 43.5721 23.2442 43.071 23.3443C43.6311 23.4325 44.0792 23.98 44.0792 24.6392C44.0792 25.4279 43.5486 26.0636 42.5403 26.0636H39.6748L39.6807 26.0695ZM42.841 22.3318C42.841 22.014 42.5816 21.755 42.2632 21.755H40.8128V22.9028H42.2219C42.5993 22.9028 42.841 22.6674 42.841 22.326V22.3318ZM42.9413 24.4862C42.9413 24.1565 42.7054 23.8681 42.2573 23.8681H40.8069V25.0924H42.2632C42.6818 25.0924 42.9413 24.8629 42.9413 24.4862ZM44.9872 23.9682V20.8015H46.1428V23.9329C46.1428 24.6686 46.5733 25.1748 47.3869 25.1748C48.2006 25.1748 48.6251 24.6686 48.6251 23.9329V20.8015H49.7807V23.9623C49.7807 25.2749 49.0024 26.1696 47.3928 26.1696C45.7832 26.1696 44.9931 25.269 44.9872 23.9741V23.9682ZM50.506 25.3279L51.1132 24.4744C51.5555 24.9335 52.1628 25.1866 52.7936 25.1866C53.4127 25.1866 53.7134 24.8982 53.7134 24.6039C53.7134 24.2154 53.224 24.1094 52.6403 23.9623C51.7736 23.7681 50.6651 23.5326 50.6651 22.326C50.6651 21.4489 51.4257 20.7249 52.6698 20.7249C53.513 20.7249 54.2087 20.978 54.7335 21.4607L54.1085 22.2848C53.6839 21.908 53.1356 21.702 52.5696 21.7079C52.0861 21.7079 51.8149 21.9198 51.8149 22.2377C51.8149 22.5791 52.2984 22.685 52.8703 22.8204C53.737 23.0264 54.8514 23.2854 54.8514 24.4803C54.8514 25.4456 54.1615 26.1696 52.7347 26.1696C51.7205 26.1578 50.9894 25.8223 50.5001 25.3279H50.506ZM55.6768 26.0695V20.7956H56.803V26.0695H55.6768ZM61.5552 26.0695L59.0317 22.632V26.0695H57.9055V20.7956H59.0612L61.514 24.1036V20.7956H62.6401V26.0695H61.5552ZM63.7486 26.0695V20.7956H67.4985V21.7844H64.8688V22.8969H67.4277V23.8858H64.8688V25.0807H67.4867V26.0695H63.7545H63.7486ZM68.0645 25.3279L68.6718 24.4744C69.114 24.9335 69.7213 25.1866 70.3522 25.1866C70.9713 25.1866 71.272 24.8982 71.272 24.6039C71.272 24.2154 70.7826 24.1094 70.2048 23.9623C69.3381 23.7681 68.2296 23.5326 68.2296 22.326C68.2296 21.4489 68.9902 20.7249 70.2343 20.7249C71.0774 20.7249 71.7732 20.978 72.2979 21.4607L71.6847 22.2848C71.2602 21.908 70.7119 21.702 70.1458 21.7079C69.6624 21.7079 69.3911 21.9198 69.3911 22.2377C69.3911 22.5791 69.8746 22.685 70.4465 22.8204C71.3133 23.0264 72.4276 23.2854 72.4276 24.4803C72.4276 25.4456 71.7378 26.1696 70.3109 26.1696C69.2909 26.1578 68.5598 25.8223 68.0645 25.3279ZM72.8816 25.3279L73.4948 24.4744C73.937 24.9335 74.5443 25.1866 75.1752 25.1866C75.7943 25.1866 76.095 24.8982 76.095 24.6039C76.095 24.2154 75.6056 24.1094 75.0278 23.9623C74.1611 23.7681 73.0526 23.5326 73.0526 22.326C73.0526 21.4489 73.8132 20.7249 75.0573 20.7249C75.9004 20.7249 76.5962 20.978 77.1209 21.4607L76.4959 22.2848C76.0714 21.908 75.5231 21.702 74.9571 21.7079C74.4736 21.7079 74.2024 21.9198 74.2024 22.2377C74.2024 22.5791 74.6858 22.685 75.2578 22.8204C76.1245 23.0264 77.2388 23.2854 77.2388 24.4803C77.2388 25.4456 76.549 26.1696 75.1221 26.1696C74.108 26.1578 73.3769 25.8223 72.8875 25.3279H72.8816Z" fill="var(--fill-0, white)"/>
<path id="Vector_5" d="M99.7383 33.8863V33.8686C99.7383 32.144 101.136 30.7431 102.863 30.7372C104.591 30.7313 106 32.1263 106.006 33.8509V33.8686C106.006 35.5932 104.609 36.9941 102.881 37C101.153 37.0059 99.7442 35.6109 99.7383 33.8863ZM105.717 33.8686V33.8509C105.717 32.8385 105.169 31.9026 104.284 31.3964C103.4 30.8902 102.315 30.8961 101.436 31.4023C100.558 31.9085 100.015 32.8503 100.021 33.8627V33.8804C100.021 34.8928 100.57 35.8287 101.454 36.3349C102.339 36.8411 103.423 36.8352 104.302 36.329C105.18 35.8228 105.717 34.881 105.717 33.8686ZM101.637 32.1793H103.081C103.429 32.1616 103.771 32.2852 104.031 32.5148C104.202 32.6796 104.296 32.9033 104.29 33.1387V33.1564C104.29 33.6744 103.942 33.9863 103.459 34.0982L104.455 35.3813H103.866L102.94 34.1747H102.12V35.3813H101.643V32.1793H101.637ZM103.034 33.745C103.482 33.745 103.795 33.539 103.795 33.1682V33.1505C103.795 32.815 103.518 32.5972 103.058 32.5972H102.114V33.7332H103.034V33.745ZM4.87607 37C2.18156 37 0.00589609 34.8221 0 32.144V4.85603C0 2.17786 2.18156 0 4.87607 0H34.2681V37H4.87607ZM4.87607 0.759306C2.60607 0.759306 0.766492 2.59577 0.760596 4.85603V32.1381C0.760596 34.3983 2.60018 36.2348 4.87017 36.2348H33.5016V0.759306H4.87607Z" fill="var(--fill-0, #197EEB)"/>
</g>
</svg>
