<svg preserveAspectRatio="none" width="100%" height="100%" overflow="visible" style="display: block;" viewBox="0 0 40.9846 27.5862" fill="none" xmlns="http://www.w3.org/2000/svg">
<g id="Group">
<path id="Vector" d="M2.05866 0.111219L2.4403 1.25575L3.64674 1.26493C3.80299 1.26629 3.86764 1.46551 3.74205 1.55829L2.77155 2.27508L3.13561 3.42527C3.18288 3.5741 3.01315 3.69754 2.886 3.60652L1.90456 2.90516L0.923115 3.60672C0.795967 3.69754 0.626631 3.5743 0.673506 3.42547L1.03757 2.27528L0.0670621 1.55848C-0.0585235 1.46551 0.00612474 1.26649 0.162374 1.26512L1.36882 1.25594L1.75046 0.111414C1.79968 -0.0370228 2.00905 -0.0370227 2.05866 0.111219Z" fill="var(--fill-0, #F5F5F5)"/>
<path id="Vector_2" d="M2.05788 6.09825L2.43952 7.24278L3.64596 7.25196C3.80221 7.25333 3.86686 7.45254 3.74127 7.54532L2.77077 8.26211L3.13483 9.41231C3.18209 9.56113 3.01237 9.68457 2.88522 9.59356L1.90378 8.89219L0.922334 9.59375C0.795186 9.68457 0.62585 9.56133 0.672725 9.4125L1.03679 8.26231L0.0662809 7.54551C-0.0593048 7.45254 0.00534349 7.25352 0.161593 7.25215L1.36804 7.24297L1.74968 6.09844C1.79889 5.9502 2.00827 5.9502 2.05788 6.09825Z" fill="var(--fill-0, #F5F5F5)"/>
<path id="Vector_3" d="M2.05788 12.0854L2.43952 13.2299L3.64596 13.2391C3.80221 13.2404 3.86686 13.4397 3.74127 13.5324L2.77077 14.2492L3.13483 15.3994C3.18209 15.5482 3.01237 15.6717 2.88522 15.5807L1.90378 14.8793L0.922334 15.5809C0.795186 15.6717 0.62585 15.5484 0.672725 15.3996L1.03679 14.2494L0.0662809 13.5326C-0.0593048 13.4397 0.00534349 13.2406 0.161593 13.2393L1.36804 13.2301L1.74968 12.0856C1.79889 11.9373 2.00827 11.9373 2.05788 12.0854Z" fill="var(--fill-0, #F5F5F5)"/>
<path id="Vector_4" d="M2.05788 18.0727L2.43952 19.2173L3.64596 19.2265C3.80221 19.2278 3.86686 19.427 3.74127 19.5198L2.77077 20.2366L3.13483 21.3868C3.18209 21.5356 3.01237 21.6591 2.88522 21.568L1.90378 20.8667L0.922334 21.5682C0.795186 21.6591 0.62585 21.5358 0.672725 21.387L1.03679 20.2368L0.0662809 19.52C-0.0593048 19.427 0.00534349 19.228 0.161593 19.2266L1.36804 19.2175L1.74968 18.0729C1.79889 17.9245 2.00827 17.9245 2.05788 18.0727Z" fill="var(--fill-0, #F5F5F5)"/>
<path id="Vector_5" d="M2.05788 24.0597L2.43952 25.2043L3.64596 25.2134C3.80221 25.2148 3.86686 25.414 3.74127 25.5068L2.77077 26.2236L3.13483 27.3738C3.18209 27.5226 3.01237 27.6461 2.88522 27.555L1.90378 26.8537L0.922334 27.5552C0.795186 27.6461 0.62585 27.5228 0.672725 27.374L1.03679 26.2238L0.0662809 25.507C-0.0593048 25.414 0.00534349 25.215 0.161593 25.2136L1.36804 25.2045L1.74968 24.0599C1.79889 23.9113 2.00827 23.9113 2.05788 24.0597Z" fill="var(--fill-0, #F5F5F5)"/>
<path id="Vector_6" d="M6.70477 3.0465L7.08641 4.19103L8.29285 4.20021C8.4491 4.20158 8.51375 4.4008 8.38816 4.49357L7.41766 5.21036L7.78172 6.36056C7.82898 6.50939 7.65926 6.63282 7.53211 6.54181L6.55067 5.84025L5.56922 6.54181C5.44207 6.63263 5.27274 6.50939 5.31961 6.36056L5.68368 5.21036L4.71317 4.49357C4.58758 4.4006 4.65223 4.20158 4.80848 4.20021L6.01492 4.19103L6.39656 3.0465C6.44559 2.89846 6.65535 2.89846 6.70477 3.0465Z" fill="var(--fill-0, #F5F5F5)"/>
<path id="Vector_7" d="M6.70477 9.03376L7.08641 10.1783L8.29285 10.1875C8.4491 10.1888 8.51375 10.388 8.38816 10.4808L7.41766 11.1976L7.78172 12.3478C7.82898 12.4966 7.65926 12.6201 7.53211 12.5291L6.55067 11.8275L5.56922 12.5291C5.44207 12.6199 5.27274 12.4968 5.31961 12.3478L5.68368 11.1976L4.71317 10.4808C4.58758 10.3879 4.65223 10.1888 4.80848 10.1875L6.01492 10.1783L6.39656 9.03376C6.44559 8.88551 6.65535 8.88551 6.70477 9.03376Z" fill="var(--fill-0, #F5F5F5)"/>
<path id="Vector_8" d="M6.70477 15.0209L7.08641 16.1654L8.29285 16.1746C8.4491 16.1759 8.51375 16.3752 8.38816 16.4679L7.41766 17.1847L7.78172 18.3349C7.82898 18.4837 7.65926 18.6072 7.53211 18.5162L6.55067 17.8146L5.56922 18.5162C5.44207 18.607 5.27274 18.4837 5.31961 18.3349L5.68368 17.1847L4.71317 16.4679C4.58758 16.375 4.65223 16.1759 4.80848 16.1746L6.01492 16.1654L6.39656 15.0209C6.44559 14.8726 6.65535 14.8726 6.70477 15.0209Z" fill="var(--fill-0, #F5F5F5)"/>
<path id="Vector_9" d="M6.70477 21.008L7.08641 22.1525L8.29285 22.1617C8.4491 22.163 8.51375 22.3622 8.38816 22.455L7.41766 23.1718L7.78172 24.322C7.82898 24.4708 7.65926 24.5943 7.53211 24.5033L6.55067 23.8017L5.56922 24.5033C5.44207 24.5941 5.27274 24.4708 5.31961 24.322L5.68368 23.1718L4.71317 22.455C4.58758 22.3621 4.65223 22.163 4.80848 22.1617L6.01492 22.1525L6.39656 21.008C6.44559 20.8599 6.65535 20.8599 6.70477 21.008Z" fill="var(--fill-0, #F5F5F5)"/>
<path id="Vector_10" d="M11.352 0.111181L11.7337 1.25571L12.9401 1.26489C13.0964 1.26626 13.161 1.46547 13.0354 1.55825L12.0649 2.27504L12.429 3.42523C12.4762 3.57406 12.3065 3.6975 12.1794 3.60648L11.1979 2.90492L10.2165 3.60648C10.0893 3.6973 9.91999 3.57406 9.96687 3.42523L10.3309 2.27504L9.36042 1.55825C9.23484 1.46528 9.29949 1.26626 9.45573 1.26489L10.6622 1.25571L11.0438 0.111181C11.093 -0.0370604 11.3026 -0.0370604 11.352 0.111181Z" fill="var(--fill-0, #F5F5F5)"/>
<path id="Vector_11" d="M11.352 6.09827L11.7337 7.2428L12.9401 7.25198C13.0964 7.25335 13.161 7.45257 13.0354 7.54534L12.0649 8.26213L12.429 9.41233C12.4762 9.56116 12.3065 9.68459 12.1794 9.59358L11.1979 8.89202L10.2165 9.59358C10.0893 9.6844 9.91999 9.56116 9.96687 9.41233L10.3309 8.26213L9.36042 7.54534C9.23484 7.45237 9.29949 7.25335 9.45573 7.25198L10.6622 7.2428L11.0438 6.09827C11.093 5.95023 11.3026 5.95023 11.352 6.09827Z" fill="var(--fill-0, #F5F5F5)"/>
<path id="Vector_12" d="M11.352 12.0854L11.7337 13.2299L12.9401 13.2391C13.0964 13.2405 13.161 13.4397 13.0354 13.5325L12.0649 14.2493L12.429 15.3994C12.4762 15.5483 12.3065 15.6717 12.1794 15.5807L11.1979 14.8791L10.2165 15.5807C10.0893 15.6715 9.91999 15.5483 9.96687 15.3994L10.3309 14.2493L9.36042 13.5325C9.23484 13.4395 9.29949 13.2405 9.45573 13.2391L10.6622 13.2299L11.0438 12.0854C11.093 11.9373 11.3026 11.9373 11.352 12.0854Z" fill="var(--fill-0, #F5F5F5)"/>
<path id="Vector_13" d="M11.352 18.0726L11.7337 19.2172L12.9401 19.2263C13.0964 19.2277 13.161 19.4269 13.0354 19.5197L12.0649 20.2365L12.429 21.3867C12.4762 21.5355 12.3065 21.659 12.1794 21.5679L11.1979 20.8664L10.2165 21.5679C10.0893 21.6588 9.91999 21.5355 9.96687 21.3867L10.3309 20.2365L9.36042 19.5197C9.23484 19.4267 9.29949 19.2277 9.45573 19.2263L10.6622 19.2172L11.0438 18.0726C11.093 17.9244 11.3026 17.9244 11.352 18.0726Z" fill="var(--fill-0, #F5F5F5)"/>
<path id="Vector_14" d="M11.352 24.0598L11.7337 25.2043L12.9401 25.2135C13.0964 25.2148 13.161 25.4141 13.0354 25.5068L12.0649 26.2236L12.429 27.3738C12.4762 27.5226 12.3065 27.6461 12.1794 27.5551L11.1979 26.8535L10.2165 27.5551C10.0893 27.6459 9.91999 27.5226 9.96687 27.3738L10.3309 26.2236L9.36042 25.5068C9.23484 25.4139 9.29949 25.2148 9.45573 25.2135L10.6622 25.2043L11.0438 24.0598C11.093 23.9113 11.3026 23.9113 11.352 24.0598Z" fill="var(--fill-0, #F5F5F5)"/>
<path id="Vector_15" d="M15.9994 3.0465L16.3811 4.19103L17.5875 4.20021C17.7438 4.20158 17.8084 4.4008 17.6828 4.49357L16.7123 5.21036L17.0764 6.36056C17.1237 6.50939 16.9539 6.63282 16.8268 6.54181L15.8453 5.84025L14.8639 6.54181C14.7367 6.63263 14.5674 6.50939 14.6143 6.36056L14.9783 5.21036L14.0078 4.49357C13.8823 4.4006 13.9469 4.20158 14.1031 4.20021L15.3096 4.19103L15.6912 3.0465C15.7403 2.89846 15.95 2.89846 15.9994 3.0465Z" fill="var(--fill-0, #F5F5F5)"/>
<path id="Vector_16" d="M15.9994 9.03376L16.3811 10.1783L17.5875 10.1875C17.7438 10.1888 17.8084 10.388 17.6828 10.4808L16.7123 11.1976L17.0764 12.3478C17.1237 12.4966 16.9539 12.6201 16.8268 12.5291L15.8453 11.8275L14.8639 12.5291C14.7367 12.6199 14.5674 12.4968 14.6143 12.3478L14.9783 11.1976L14.0078 10.4808C13.8823 10.3879 13.9469 10.1888 14.1031 10.1875L15.3096 10.1783L15.6912 9.03376C15.7403 8.88551 15.95 8.88551 15.9994 9.03376Z" fill="var(--fill-0, #F5F5F5)"/>
<path id="Vector_17" d="M15.9994 15.0209L16.3811 16.1654L17.5875 16.1746C17.7438 16.1759 17.8084 16.3752 17.6828 16.4679L16.7123 17.1847L17.0764 18.3349C17.1237 18.4837 16.9539 18.6072 16.8268 18.5162L15.8453 17.8146L14.8639 18.5162C14.7367 18.607 14.5674 18.4837 14.6143 18.3349L14.9783 17.1847L14.0078 16.4679C13.8823 16.375 13.9469 16.1759 14.1031 16.1746L15.3096 16.1654L15.6912 15.0209C15.7403 14.8726 15.95 14.8726 15.9994 15.0209Z" fill="var(--fill-0, #F5F5F5)"/>
<path id="Vector_18" d="M15.9994 21.008L16.3811 22.1525L17.5875 22.1617C17.7438 22.163 17.8084 22.3622 17.6828 22.455L16.7123 23.1718L17.0764 24.322C17.1237 24.4708 16.9539 24.5943 16.8268 24.5033L15.8453 23.8017L14.8639 24.5033C14.7367 24.5941 14.5674 24.4708 14.6143 24.322L14.9783 23.1718L14.0078 22.455C13.8823 22.3621 13.9469 22.163 14.1031 22.1617L15.3096 22.1525L15.6912 21.008C15.7403 20.8599 15.95 20.8599 15.9994 21.008Z" fill="var(--fill-0, #F5F5F5)"/>
<path id="Vector_19" d="M20.6463 0.111181L21.028 1.25571L22.2344 1.26489C22.3907 1.26626 22.4553 1.46547 22.3297 1.55825L21.3592 2.27504L21.7233 3.42523C21.7706 3.57406 21.6008 3.6975 21.4737 3.60648L20.4921 2.90492L19.5106 3.60648C19.3835 3.6973 19.2141 3.57406 19.261 3.42523L19.6251 2.27504L18.6546 1.55825C18.529 1.46528 18.5936 1.26626 18.7499 1.26489L19.9563 1.25571L20.338 0.111181C20.3874 -0.0370604 20.5969 -0.0370604 20.6463 0.111181Z" fill="var(--fill-0, #F5F5F5)"/>
<path id="Vector_20" d="M20.6463 6.09827L21.028 7.2428L22.2344 7.25198C22.3907 7.25335 22.4553 7.45257 22.3297 7.54534L21.3592 8.26213L21.7233 9.41233C21.7706 9.56116 21.6008 9.68459 21.4737 9.59358L20.4921 8.89202L19.5106 9.59358C19.3835 9.6844 19.2141 9.56116 19.261 9.41233L19.6251 8.26213L18.6546 7.54534C18.529 7.45237 18.5936 7.25335 18.7499 7.25198L19.9563 7.2428L20.338 6.09827C20.3874 5.95023 20.5969 5.95023 20.6463 6.09827Z" fill="var(--fill-0, #F5F5F5)"/>
<path id="Vector_21" d="M20.6463 12.0854L21.028 13.2299L22.2344 13.2391C22.3907 13.2405 22.4553 13.4397 22.3297 13.5325L21.3592 14.2493L21.7233 15.3994C21.7706 15.5483 21.6008 15.6717 21.4737 15.5807L20.4921 14.8791L19.5106 15.5807C19.3835 15.6715 19.2141 15.5483 19.261 15.3994L19.6251 14.2493L18.6546 13.5325C18.529 13.4395 18.5936 13.2405 18.7499 13.2391L19.9563 13.2299L20.338 12.0854C20.3874 11.9373 20.5969 11.9373 20.6463 12.0854Z" fill="var(--fill-0, #F5F5F5)"/>
<path id="Vector_22" d="M20.6463 18.0726L21.028 19.2172L22.2344 19.2263C22.3907 19.2277 22.4553 19.4269 22.3297 19.5197L21.3592 20.2365L21.7233 21.3867C21.7706 21.5355 21.6008 21.659 21.4737 21.5679L20.4921 20.8664L19.5106 21.5679C19.3835 21.6588 19.2141 21.5355 19.261 21.3867L19.6251 20.2365L18.6546 19.5197C18.529 19.4267 18.5936 19.2277 18.7499 19.2263L19.9563 19.2172L20.338 18.0726C20.3874 17.9244 20.5969 17.9244 20.6463 18.0726Z" fill="var(--fill-0, #F5F5F5)"/>
<path id="Vector_23" d="M20.6463 24.0598L21.028 25.2043L22.2344 25.2135C22.3907 25.2148 22.4553 25.4141 22.3297 25.5068L21.3592 26.2236L21.7233 27.3738C21.7706 27.5226 21.6008 27.6461 21.4737 27.5551L20.4921 26.8535L19.5106 27.5551C19.3835 27.6459 19.2141 27.5226 19.261 27.3738L19.6251 26.2236L18.6546 25.5068C18.529 25.4139 18.5936 25.2148 18.7499 25.2135L19.9563 25.2043L20.338 24.0598C20.3874 23.9113 20.5969 23.9113 20.6463 24.0598Z" fill="var(--fill-0, #F5F5F5)"/>
<path id="Vector_24" d="M25.2936 3.0465L25.6752 4.19103L26.8817 4.20021C27.0379 4.20158 27.1025 4.4008 26.977 4.49357L26.0065 5.21036L26.3705 6.36056C26.4178 6.50939 26.2481 6.63282 26.1209 6.54181L25.1395 5.84025L24.158 6.54181C24.0309 6.63263 23.8615 6.50939 23.9084 6.36056L24.2725 5.21036L23.302 4.49357C23.1764 4.4006 23.241 4.20158 23.3973 4.20021L24.6037 4.19103L24.9854 3.0465C25.0348 2.89846 25.2442 2.89846 25.2936 3.0465Z" fill="var(--fill-0, #F5F5F5)"/>
<path id="Vector_25" d="M25.2936 9.03376L25.6752 10.1783L26.8817 10.1875C27.0379 10.1888 27.1025 10.388 26.977 10.4808L26.0065 11.1976L26.3705 12.3478C26.4178 12.4966 26.2481 12.6201 26.1209 12.5291L25.1395 11.8275L24.158 12.5291C24.0309 12.6199 23.8615 12.4968 23.9084 12.3478L24.2725 11.1976L23.302 10.4808C23.1764 10.3879 23.241 10.1888 23.3973 10.1875L24.6037 10.1783L24.9854 9.03376C25.0348 8.88551 25.2442 8.88551 25.2936 9.03376Z" fill="var(--fill-0, #F5F5F5)"/>
<path id="Vector_26" d="M25.2936 15.0209L25.6752 16.1654L26.8817 16.1746C27.0379 16.1759 27.1025 16.3752 26.977 16.4679L26.0065 17.1847L26.3705 18.3349C26.4178 18.4837 26.2481 18.6072 26.1209 18.5162L25.1395 17.8146L24.158 18.5162C24.0309 18.607 23.8615 18.4837 23.9084 18.3349L24.2725 17.1847L23.302 16.4679C23.1764 16.375 23.241 16.1759 23.3973 16.1746L24.6037 16.1654L24.9854 15.0209C25.0348 14.8726 25.2442 14.8726 25.2936 15.0209Z" fill="var(--fill-0, #F5F5F5)"/>
<path id="Vector_27" d="M25.2936 21.008L25.6752 22.1525L26.8817 22.1617C27.0379 22.163 27.1025 22.3622 26.977 22.455L26.0065 23.1718L26.3705 24.322C26.4178 24.4708 26.2481 24.5943 26.1209 24.5033L25.1395 23.8017L24.158 24.5033C24.0309 24.5941 23.8615 24.4708 23.9084 24.322L24.2725 23.1718L23.302 22.455C23.1764 22.3621 23.241 22.163 23.3973 22.1617L24.6037 22.1525L24.9854 21.008C25.0348 20.8599 25.2442 20.8599 25.2936 21.008Z" fill="var(--fill-0, #F5F5F5)"/>
<path id="Vector_28" d="M29.9408 0.111181L30.3225 1.25571L31.5289 1.26489C31.6852 1.26626 31.7498 1.46547 31.6242 1.55825L30.6537 2.27504L31.0178 3.42523C31.065 3.57406 30.8953 3.6975 30.7682 3.60648L29.7867 2.90492L28.8053 3.60648C28.6781 3.6973 28.5088 3.57406 28.5557 3.42523L28.9197 2.27504L27.9492 1.55825C27.8236 1.46528 27.8883 1.26626 28.0445 1.26489L29.251 1.25571L29.6326 0.111181C29.6816 -0.0370604 29.8914 -0.0370604 29.9408 0.111181Z" fill="var(--fill-0, #F5F5F5)"/>
<path id="Vector_29" d="M29.9408 6.09827L30.3225 7.2428L31.5289 7.25198C31.6852 7.25335 31.7498 7.45257 31.6242 7.54534L30.6537 8.26213L31.0178 9.41233C31.065 9.56116 30.8953 9.68459 30.7682 9.59358L29.7867 8.89202L28.8053 9.59358C28.6781 9.6844 28.5088 9.56116 28.5557 9.41233L28.9197 8.26213L27.9492 7.54534C27.8236 7.45237 27.8883 7.25335 28.0445 7.25198L29.251 7.2428L29.6326 6.09827C29.6816 5.95023 29.8914 5.95023 29.9408 6.09827Z" fill="var(--fill-0, #F5F5F5)"/>
<path id="Vector_30" d="M29.9408 12.0854L30.3225 13.2299L31.5289 13.2391C31.6852 13.2405 31.7498 13.4397 31.6242 13.5325L30.6537 14.2493L31.0178 15.3994C31.065 15.5483 30.8953 15.6717 30.7682 15.5807L29.7867 14.8791L28.8053 15.5807C28.6781 15.6715 28.5088 15.5483 28.5557 15.3994L28.9197 14.2493L27.9492 13.5325C27.8236 13.4395 27.8883 13.2405 28.0445 13.2391L29.251 13.2299L29.6326 12.0854C29.6816 11.9373 29.8914 11.9373 29.9408 12.0854Z" fill="var(--fill-0, #F5F5F5)"/>
<path id="Vector_31" d="M29.9408 18.0726L30.3225 19.2172L31.5289 19.2263C31.6852 19.2277 31.7498 19.4269 31.6242 19.5197L30.6537 20.2365L31.0178 21.3867C31.065 21.5355 30.8953 21.659 30.7682 21.5679L29.7867 20.8664L28.8053 21.5679C28.6781 21.6588 28.5088 21.5355 28.5557 21.3867L28.9197 20.2365L27.9492 19.5197C27.8236 19.4267 27.8883 19.2277 28.0445 19.2263L29.251 19.2172L29.6326 18.0726C29.6816 17.9244 29.8914 17.9244 29.9408 18.0726Z" fill="var(--fill-0, #F5F5F5)"/>
<path id="Vector_32" d="M29.9408 24.0598L30.3225 25.2043L31.5289 25.2135C31.6852 25.2148 31.7498 25.4141 31.6242 25.5068L30.6537 26.2236L31.0178 27.3738C31.065 27.5226 30.8953 27.6461 30.7682 27.5551L29.7867 26.8535L28.8053 27.5551C28.6781 27.6459 28.5088 27.5226 28.5557 27.3738L28.9197 26.2236L27.9492 25.5068C27.8236 25.4139 27.8883 25.2148 28.0445 25.2135L29.251 25.2043L29.6326 24.0598C29.6816 23.9113 29.8914 23.9113 29.9408 24.0598Z" fill="var(--fill-0, #F5F5F5)"/>
<path id="Vector_33" d="M34.5877 3.0465L34.9693 4.19103L36.1758 4.20021C36.332 4.20158 36.3967 4.4008 36.2711 4.49357L35.3006 5.21036L35.6647 6.36056C35.7119 6.50939 35.5422 6.63282 35.4151 6.54181L34.4336 5.84025L33.4522 6.54181C33.325 6.63263 33.1557 6.50939 33.2026 6.36056L33.5666 5.21036L32.5961 4.49357C32.4705 4.4006 32.5352 4.20158 32.6914 4.20021L33.8979 4.19103L34.2795 3.0465C34.3287 2.89846 34.5385 2.89846 34.5877 3.0465Z" fill="var(--fill-0, #F5F5F5)"/>
<path id="Vector_34" d="M34.5877 9.03376L34.9693 10.1783L36.1758 10.1875C36.332 10.1888 36.3967 10.388 36.2711 10.4808L35.3006 11.1976L35.6647 12.3478C35.7119 12.4966 35.5422 12.6201 35.4151 12.5291L34.4336 11.8275L33.4522 12.5291C33.325 12.6199 33.1557 12.4968 33.2026 12.3478L33.5666 11.1976L32.5961 10.4808C32.4705 10.3879 32.5352 10.1888 32.6914 10.1875L33.8979 10.1783L34.2795 9.03376C34.3287 8.88551 34.5385 8.88551 34.5877 9.03376Z" fill="var(--fill-0, #F5F5F5)"/>
<path id="Vector_35" d="M34.5877 15.0209L34.9693 16.1654L36.1758 16.1746C36.332 16.1759 36.3967 16.3752 36.2711 16.4679L35.3006 17.1847L35.6647 18.3349C35.7119 18.4837 35.5422 18.6072 35.4151 18.5162L34.4336 17.8146L33.4522 18.5162C33.325 18.607 33.1557 18.4837 33.2026 18.3349L33.5666 17.1847L32.5961 16.4679C32.4705 16.375 32.5352 16.1759 32.6914 16.1746L33.8979 16.1654L34.2795 15.0209C34.3287 14.8726 34.5385 14.8726 34.5877 15.0209Z" fill="var(--fill-0, #F5F5F5)"/>
<path id="Vector_36" d="M34.5877 21.008L34.9693 22.1525L36.1758 22.1617C36.332 22.163 36.3967 22.3622 36.2711 22.455L35.3006 23.1718L35.6647 24.322C35.7119 24.4708 35.5422 24.5943 35.4151 24.5033L34.4336 23.8017L33.4522 24.5033C33.325 24.5941 33.1557 24.4708 33.2026 24.322L33.5666 23.1718L32.5961 22.455C32.4705 22.3621 32.5352 22.163 32.6914 22.1617L33.8979 22.1525L34.2795 21.008C34.3287 20.8599 34.5385 20.8599 34.5877 21.008Z" fill="var(--fill-0, #F5F5F5)"/>
<path id="Vector_37" d="M39.235 0.111181L39.6166 1.25571L40.823 1.26489C40.9793 1.26626 41.0439 1.46547 40.9184 1.55825L39.9478 2.27504L40.3119 3.42523C40.3592 3.57406 40.1894 3.6975 40.0623 3.60648L39.0809 2.90492L38.0994 3.60648C37.9723 3.6973 37.8029 3.57406 37.8498 3.42523L38.2139 2.27504L37.2434 1.55825C37.1178 1.46528 37.1824 1.26626 37.3387 1.26489L38.5451 1.25571L38.9268 0.111181C38.976 -0.0370604 39.1853 -0.0370604 39.235 0.111181Z" fill="var(--fill-0, #F5F5F5)"/>
<path id="Vector_38" d="M39.235 6.09827L39.6166 7.2428L40.823 7.25198C40.9793 7.25335 41.0439 7.45257 40.9184 7.54534L39.9478 8.26213L40.3119 9.41233C40.3592 9.56116 40.1894 9.68459 40.0623 9.59358L39.0809 8.89202L38.0994 9.59358C37.9723 9.6844 37.8029 9.56116 37.8498 9.41233L38.2139 8.26213L37.2434 7.54534C37.1178 7.45237 37.1824 7.25335 37.3387 7.25198L38.5451 7.2428L38.9268 6.09827C38.976 5.95023 39.1853 5.95023 39.235 6.09827Z" fill="var(--fill-0, #F5F5F5)"/>
<path id="Vector_39" d="M39.235 12.0854L39.6166 13.2299L40.823 13.2391C40.9793 13.2405 41.0439 13.4397 40.9184 13.5325L39.9478 14.2493L40.3119 15.3994C40.3592 15.5483 40.1894 15.6717 40.0623 15.5807L39.0809 14.8791L38.0994 15.5807C37.9723 15.6715 37.8029 15.5483 37.8498 15.3994L38.2139 14.2493L37.2434 13.5325C37.1178 13.4395 37.1824 13.2405 37.3387 13.2391L38.5451 13.2299L38.9268 12.0854C38.976 11.9373 39.1853 11.9373 39.235 12.0854Z" fill="var(--fill-0, #F5F5F5)"/>
<path id="Vector_40" d="M39.235 18.0726L39.6166 19.2172L40.823 19.2263C40.9793 19.2277 41.0439 19.4269 40.9184 19.5197L39.9478 20.2365L40.3119 21.3867C40.3592 21.5355 40.1894 21.659 40.0623 21.5679L39.0809 20.8664L38.0994 21.5679C37.9723 21.6588 37.8029 21.5355 37.8498 21.3867L38.2139 20.2365L37.2434 19.5197C37.1178 19.4267 37.1824 19.2277 37.3387 19.2263L38.5451 19.2172L38.9268 18.0726C38.976 17.9244 39.1853 17.9244 39.235 18.0726Z" fill="var(--fill-0, #F5F5F5)"/>
<path id="Vector_41" d="M39.235 24.0598L39.6166 25.2043L40.823 25.2135C40.9793 25.2148 41.0439 25.4141 40.9184 25.5068L39.9478 26.2236L40.3119 27.3738C40.3592 27.5226 40.1894 27.6461 40.0623 27.5551L39.0809 26.8535L38.0994 27.5551C37.9723 27.6459 37.8029 27.5226 37.8498 27.3738L38.2139 26.2236L37.2434 25.5068C37.1178 25.4139 37.1824 25.2148 37.3387 25.2135L38.5451 25.2043L38.9268 24.0598C38.976 23.9113 39.1853 23.9113 39.235 24.0598Z" fill="var(--fill-0, #F5F5F5)"/>
</g>
</svg>
