<svg preserveAspectRatio="none" width="100%" height="100%" overflow="visible" style="display: block;" viewBox="0 0 69.0255 40.0167" fill="none" xmlns="http://www.w3.org/2000/svg">
<g id="Group">
<path id="Vector" d="M64.95 24.127C64.234 21.4202 61.7864 19.5322 59.0058 19.5322H51.896L47.9498 4.59482C47.2338 1.88805 44.7862 0 42.0055 0H27.0366C24.256 0 21.8084 1.88805 21.0924 4.59482L17.1462 19.5322H10.0364C7.25576 19.5322 4.80813 21.4202 4.09215 24.127L0.0127611 39.4152C-0.02054 39.5489 0.0127611 39.716 0.096014 39.8329C0.179267 39.9499 0.329122 40.0167 0.478977 40.0167H68.5465C68.6964 40.0167 68.8296 39.9499 68.9295 39.8329C69.0128 39.716 69.0461 39.5656 69.0128 39.4152L64.9667 24.127H64.95ZM30.9329 24.127C30.5166 22.5731 29.5176 21.3033 28.2355 20.4845H40.8233C39.5246 21.2865 38.5255 22.5731 38.1259 24.127L34.5294 37.6942L30.9329 24.127Z" fill="var(--fill-0, #197EEB)"/>
<path id="Vector_2" d="M43.2543 10.7602L42.0222 5.61403C41.8224 4.81203 42.505 3.9599 43.5374 3.70927C44.5697 3.45865 45.5521 3.90977 45.7519 4.72849L46.984 9.87469C47.1839 10.6767 46.5012 11.5288 45.4688 11.7794C44.4365 12.0301 43.4541 11.5789 43.2543 10.7602Z" fill="var(--fill-0, white)"/>
<path id="Vector_3" d="M59.9548 30.3425L58.7227 25.1963C58.5229 24.3943 59.2056 23.5422 60.2379 23.2916C61.2702 23.0409 62.2526 23.4921 62.4524 24.3108L63.6846 29.457C63.8844 30.259 63.2017 31.1111 62.1694 31.3617C61.137 31.6124 60.1547 31.1612 59.9548 30.3425Z" fill="var(--fill-0, white)"/>
<path id="Vector_4" d="M25.638 29.7577L24.4059 24.6115C24.2061 23.8095 24.8887 22.9574 25.9211 22.7068C26.9534 22.4561 27.9358 22.9073 28.1356 23.726L29.3677 28.8722C29.5675 29.6742 28.8849 30.5263 27.8525 30.7769C26.8202 31.0276 25.8378 30.5764 25.638 29.7577Z" fill="var(--fill-0, white)"/>
</g>
</svg>
