<svg preserveAspectRatio="none" width="100%" height="100%" overflow="visible" style="display: block;" viewBox="0 0 100.001 65.5174" fill="none" xmlns="http://www.w3.org/2000/svg">
<g id="Group">
<path id="Vector" d="M99.9996 27.5862H55.1722V0H44.8274V27.5862H0V37.9309H44.8274V65.5171H55.1722V37.9309H99.9996V27.5862Z" fill="var(--fill-0, #FF4B55)"/>
<path id="Vector_2" d="M34.9512 41.3794L0.0494033 64.0349C0.171473 64.8676 0.857994 65.5174 1.72459 65.5174H4.09939L41.2848 41.3796H34.9512V41.3794V41.3794Z" fill="var(--fill-0, #FF4B55)"/>
<path id="Vector_3" d="M67.6549 41.3794H61.3213L98.4526 65.4816C99.3181 65.3894 100.001 64.6828 100.001 63.7929V62.3754L67.6549 41.3794Z" fill="var(--fill-0, #FF4B55)"/>
<path id="Vector_4" d="M0.00126037 3.62766L31.5986 24.1381H37.9322L1.00575 0.168303C0.415907 0.442325 0.00126037 1.03119 0.00126037 1.72435V3.62766Z" fill="var(--fill-0, #FF4B55)"/>
<path id="Vector_5" d="M64.9556 24.1382L99.9412 1.42797C99.7959 0.622891 99.1241 0.000432968 98.277 0.000432968H95.8069L58.6221 24.1382H64.9556Z" fill="var(--fill-0, #FF4B55)"/>
</g>
</svg>
