<svg preserveAspectRatio="none" width="100%" height="100%" overflow="visible" style="display: block;" viewBox="0 0 100 21.2219" fill="none" xmlns="http://www.w3.org/2000/svg">
<g id="IBT" clip-path="url(#clip0_0_4)">
<path id="Vector" fill-rule="evenodd" clip-rule="evenodd" d="M88.9813 1.87907C88.5492 3.07606 88.1199 4.26604 87.6878 5.46392H90.3051C89.8633 4.26762 89.4248 3.07966 88.9813 1.87907ZM86.6704 8.80482H84.7955C84.7981 8.79026 84.7965 8.77807 84.8016 8.77084C85.2277 8.18624 85.5164 7.53103 85.7788 6.86341C86.4904 5.05412 87.2016 3.24476 87.9032 1.43171C88.0167 1.13864 88.0894 0.828617 88.1637 0.522276C88.191 0.409887 88.1682 0.285329 88.1682 0.152846C88.2 0.152846 88.2389 0.152846 88.2781 0.152846C88.7412 0.152846 89.2042 0.154991 89.6672 0.150899C89.7521 0.150131 89.7926 0.172635 89.8264 0.255689C90.7257 2.47131 91.627 4.68637 92.5331 6.89939C92.8003 7.55174 93.0949 8.19183 93.4785 8.8008H91.3331C91.3215 8.67495 91.3135 8.54569 91.2971 8.41752C91.2312 7.91154 91.0386 7.44277 90.8656 6.96842C90.8482 6.92068 90.828 6.87392 90.8103 6.82624C90.7334 6.61977 90.7338 6.61968 90.5093 6.61968C89.4701 6.61968 88.4312 6.62074 87.3923 6.61785C87.3035 6.61756 87.2608 6.64035 87.2289 6.72881C87.0373 7.26215 86.8254 7.78916 86.7276 8.35106C86.7019 8.4973 86.69 8.64585 86.6704 8.80482Z" fill="var(--fill-0, white)"/>
<path id="Vector_2" fill-rule="evenodd" clip-rule="evenodd" d="M94.5749 0.158103H96.5138C96.4842 0.291462 96.4405 0.419215 96.4293 0.549817C96.3939 0.955325 96.3485 1.36175 96.3466 1.76804C96.3379 3.68367 96.3428 5.59936 96.3428 7.51498C96.3428 7.55061 96.346 7.58621 96.3476 7.62711C96.3775 7.63087 96.4016 7.63662 96.426 7.63656C97.0312 7.6344 97.6367 7.63916 98.2415 7.62682C98.854 7.61428 99.4489 7.49878 100.02 7.27251C100.044 7.26322 100.068 7.25614 100.103 7.2444C100.03 7.76881 99.9585 8.28582 99.8865 8.80514H94.5855C94.6238 8.6144 94.6778 8.42836 94.6949 8.23891C94.7248 7.89855 94.7466 7.55621 94.7473 7.21463C94.7505 5.27714 94.7469 3.33968 94.744 1.40216C94.7434 0.98282 94.7045 0.567463 94.5749 0.158103Z" fill="var(--fill-0, white)"/>
<path id="Vector_3" fill-rule="evenodd" clip-rule="evenodd" d="M77.7257 8.81154H76.0248C76.0627 8.60293 76.1122 8.39794 76.1347 8.1901C76.1617 7.93723 76.1778 7.68196 76.1785 7.42768C76.1823 5.41051 76.1817 3.39338 76.1791 1.37622C76.1791 1.31991 76.1563 1.2545 76.1228 1.20884C75.8714 0.865328 75.6148 0.525669 75.3489 0.170118C75.392 0.166221 75.4215 0.161186 75.4508 0.161142C76.0781 0.160704 76.7051 0.162718 77.3322 0.158422C77.4113 0.157902 77.4505 0.194197 77.4923 0.247261C78.4685 1.48545 79.4457 2.72281 80.4219 3.96106C80.8637 4.52151 81.3061 5.08148 81.7428 5.64608C81.8746 5.81694 81.9875 6.00267 82.1212 6.19936C82.1235 6.16669 82.1254 6.15421 82.1254 6.14174C82.118 4.6454 82.1119 3.14907 82.1022 1.65279C82.1003 1.40187 82.0942 1.14982 82.0685 0.900527C82.0431 0.656225 81.9907 0.414727 81.9495 0.167359H83.6444C83.6122 0.325106 83.5678 0.481405 83.5508 0.640595C83.5199 0.929511 83.4878 1.22014 83.4871 1.5101C83.4817 3.89138 83.4833 6.27264 83.483 8.65392C83.483 8.70113 83.483 8.74836 83.483 8.80711C83.4485 8.80997 83.4177 8.81473 83.3868 8.81482C83.0695 8.81534 82.7524 8.81775 82.4354 8.81225C82.3894 8.81145 82.3293 8.78373 82.301 8.74833C80.8399 6.90949 79.3804 5.06926 77.9241 3.2264C77.7785 3.04203 77.655 2.84032 77.5151 2.63796C77.5215 2.71695 77.5325 2.79002 77.5331 2.86322C77.5405 3.58032 77.5486 4.29746 77.5518 5.0146C77.5547 5.67723 77.5518 6.33997 77.5527 7.00267C77.5534 7.60637 77.5383 8.21174 77.7257 8.81154Z" fill="var(--fill-0, white)"/>
<path id="Vector_4" fill-rule="evenodd" clip-rule="evenodd" d="M66.8994 4.29283C66.8997 4.65109 66.9405 5.00399 67.0334 5.35039C67.3855 6.66309 68.3666 7.52836 69.627 7.67154C70.8527 7.81084 71.9608 7.19711 72.4441 6.0682C72.8318 5.16209 72.8161 4.23733 72.499 3.31987C72.0576 2.04092 70.9971 1.26966 69.6849 1.25425C68.7595 1.24339 68.0029 1.59325 67.4624 2.35562C67.0527 2.93372 66.9013 3.59325 66.8994 4.29283ZM74.3997 4.36862C74.3685 5.32379 74.1502 6.2174 73.6135 7.0155C73.0035 7.92305 72.1505 8.49685 71.0958 8.759C69.8984 9.05659 68.7158 9.00672 67.5807 8.49097C66.4421 7.97367 65.7161 7.09142 65.4026 5.88675C65.1087 4.75595 65.1804 3.63894 65.6656 2.57063C66.2222 1.34532 67.183 0.571823 68.4711 0.213425C69.5318 -0.0818389 70.5994 -0.0723383 71.6424 0.296479C73.0887 0.807762 73.9531 1.84162 74.2688 3.3317C74.3408 3.67135 74.3576 4.02267 74.3997 4.36862Z" fill="var(--fill-0, white)"/>
<path id="Vector_5" fill-rule="evenodd" clip-rule="evenodd" d="M56.1621 1.30368C55.6846 1.31713 55.2254 1.32203 54.7675 1.34515C54.3106 1.36818 53.8688 1.47448 53.4321 1.64479V0.169564H60.5061V1.64396C60.0694 1.47803 59.6228 1.36673 59.1601 1.34453C58.7026 1.32264 58.2444 1.31726 57.7801 1.30448C57.7759 1.35789 57.7711 1.38941 57.7714 1.42093C57.774 3.52154 57.7756 5.62222 57.7823 7.72283C57.7833 8.08704 57.8357 8.44685 57.9476 8.80653H55.9981C56.0318 8.63981 56.0759 8.47254 56.0981 8.30248C56.1273 8.07926 56.1556 7.85392 56.1563 7.62942C56.1617 5.56151 56.1611 3.4936 56.1621 1.42571C56.1621 1.39383 56.1621 1.362 56.1621 1.30368Z" fill="var(--fill-0, white)"/>
<path id="Vector_6" fill-rule="evenodd" clip-rule="evenodd" d="M61.8074 0.165168H63.7338C63.6949 0.399926 63.6428 0.630611 63.6215 0.8641C63.5939 1.16435 63.5801 1.4668 63.5794 1.76832C63.5759 3.57717 63.5772 5.38601 63.5781 7.19486C63.5785 7.65357 63.5891 8.11187 63.6887 8.56264C63.7064 8.64354 63.7299 8.72325 63.7527 8.80997H61.8087C62.0238 8.10183 61.9797 7.37534 61.981 6.65331C61.9842 4.97186 61.9826 3.29045 61.9801 1.60896C61.9794 1.12477 61.9592 0.64182 61.8074 0.165168Z" fill="var(--fill-0, white)"/>
<path id="Vector_7" fill-rule="evenodd" clip-rule="evenodd" d="M42.1055 0.171951H43.8039C43.7675 0.359424 43.7138 0.542389 43.7 0.728373C43.6707 1.11628 43.6486 1.50581 43.6479 1.89468C43.6434 4.15228 43.6457 6.40984 43.6457 8.66746V8.81354C43.6077 8.81678 43.5797 8.82122 43.5521 8.82125C43.2347 8.82174 42.9177 8.82453 42.6006 8.81842C42.5518 8.81746 42.4881 8.78695 42.4579 8.749C41.4219 7.44685 40.3887 6.14215 39.3553 4.83778C38.9302 4.30119 38.5026 3.76669 38.0817 3.22666C37.9418 3.04684 37.8199 2.85271 37.6846 2.65766C37.683 2.67136 37.6801 2.68301 37.6804 2.69457C37.6894 3.16395 37.7045 3.63328 37.7074 4.10267C37.7158 5.33698 37.7106 6.57141 37.7296 7.80553C37.7347 8.14 37.8071 8.4735 37.8495 8.81289H36.1891C36.2273 8.58672 36.2801 8.35961 36.3013 8.12965C36.3293 7.82569 36.3444 7.51949 36.3447 7.21424C36.3486 5.27344 36.3473 3.3327 36.344 1.39188C36.344 1.33247 36.3193 1.26369 36.2839 1.21532C36.0479 0.89181 35.8061 0.572685 35.5662 0.25194C35.5495 0.229786 35.535 0.206188 35.5113 0.171513C35.5576 0.169236 35.5887 0.166434 35.6199 0.166391C36.2434 0.166128 36.8669 0.164683 37.4904 0.169061C37.5392 0.169412 37.6048 0.197082 37.6344 0.234427C39.0309 1.9991 40.4257 3.76521 41.8164 5.53434C41.982 5.74457 42.1244 5.97273 42.2762 6.19058C42.2762 6.11994 42.2762 6.04633 42.2762 5.97273C42.2727 4.61093 42.273 3.24916 42.2633 1.88741C42.2608 1.49845 42.2376 1.1091 42.2077 0.721193C42.1936 0.53836 42.1415 0.35846 42.1055 0.171951Z" fill="var(--fill-0, white)"/>
<path id="Vector_8" fill-rule="evenodd" clip-rule="evenodd" d="M29.9154 1.31609V4.33952C30.2162 4.33952 30.5115 4.35569 30.8043 4.33479C31.0748 4.3155 31.3486 4.27968 31.6101 4.21006C32.0986 4.08 32.4244 3.76582 32.5293 3.26084C32.5682 3.07397 32.5842 2.87809 32.5788 2.68724C32.5588 1.99541 32.2048 1.56648 31.5287 1.41595C31.2991 1.36486 31.0626 1.33268 30.8277 1.32003C30.527 1.30383 30.2248 1.31609 29.9154 1.31609ZM30.0832 8.81813H28.1322C28.1662 8.65032 28.2109 8.48624 28.2307 8.3192C28.2607 8.06653 28.29 7.81186 28.2906 7.55797C28.2953 5.50788 28.2959 3.45785 28.2908 1.40781C28.2898 0.993154 28.2539 0.579241 28.1215 0.171983C28.1605 0.16975 28.1919 0.166423 28.2233 0.166423C29.1311 0.166641 30.0389 0.161869 30.9466 0.169619C31.5169 0.174478 32.0791 0.247287 32.6228 0.432527C33.6785 0.792238 34.2508 1.62199 34.2177 2.73624C34.201 3.2963 34.0807 3.82338 33.7688 4.29759C33.4952 4.71395 33.1293 5.01968 32.6714 5.2163C32.6453 5.22743 32.6199 5.23981 32.5778 5.25932C33.4286 6.43981 34.1534 7.69785 35.11 8.82154H34.9814C34.3907 8.82154 33.8 8.81939 33.2093 8.82383C33.1183 8.82447 33.0672 8.79775 33.0187 8.71942C32.3646 7.66505 31.7057 6.6136 31.0513 5.55945C31.0024 5.48074 30.9517 5.45775 30.8587 5.46273C30.5896 5.4772 30.3198 5.47659 30.0502 5.48158C30.0075 5.48241 29.9647 5.4817 29.9087 5.4817C29.9087 5.5328 29.9086 5.57167 29.9087 5.61061C29.9102 6.28421 29.908 6.95788 29.9148 7.63148C29.9187 8.02858 29.9573 8.4228 30.0832 8.81813Z" fill="var(--fill-0, white)"/>
<path id="Vector_9" fill-rule="evenodd" clip-rule="evenodd" d="M50.4412 5.47756C49.9987 4.27939 49.5595 3.08962 49.117 1.89223C48.6849 3.0901 48.2556 4.27977 47.8235 5.47756H50.4412ZM53.6158 8.81543H51.4926C51.4363 8.51042 51.4058 8.20797 51.3215 7.92129C51.2 7.50711 51.0376 7.10502 50.8971 6.69617C50.8714 6.62129 50.8199 6.6327 50.7669 6.6327C49.9103 6.63244 49.0534 6.63248 48.1968 6.63248C47.9598 6.63254 47.7225 6.63029 47.4859 6.63514C47.4524 6.63585 47.4003 6.6637 47.3897 6.69145C47.1778 7.24846 46.9598 7.80412 46.8563 8.39469C46.8325 8.53003 46.8248 8.6681 46.8087 8.81331H44.9328C44.9341 8.80473 44.9325 8.79251 44.9376 8.78537C45.3621 8.2 45.6518 7.54524 45.9148 6.87791C46.5955 5.15026 47.2765 3.42264 47.9463 1.69062C48.0884 1.32281 48.1916 0.938884 48.2949 0.557588C48.3267 0.439904 48.2997 0.306325 48.2997 0.166268H48.4006C48.8711 0.166268 49.3412 0.168369 49.8116 0.164239C49.8936 0.163553 49.9296 0.188771 49.9608 0.26574C50.8746 2.51477 51.7891 4.76357 52.71 7.00971C52.9637 7.62842 53.2479 8.23386 53.6158 8.81543Z" fill="var(--fill-0, white)"/>
<path id="Vector_10" fill-rule="evenodd" clip-rule="evenodd" d="M5.36286 2.69662C5.36286 2.88931 5.3628 3.1101 5.36286 3.3309C5.36315 4.66032 5.36145 5.98971 5.36492 7.3191C5.36624 7.81418 5.3808 8.3091 5.53228 8.78781C5.53531 8.7974 5.53138 8.80916 5.53042 8.82405H3.83592C3.8708 8.64791 3.91701 8.47592 3.93675 8.3009C3.96736 8.03003 3.99659 7.75723 3.9974 7.48518C4.00302 5.4492 4.00193 3.41325 4.00016 1.37726C4.0001 1.32779 3.97801 1.27061 3.94826 1.2302C3.70887 0.90455 3.46508 0.582141 3.22289 0.25855C3.20604 0.236047 3.19115 0.212011 3.16676 0.176022C3.21107 0.173658 3.24183 0.170637 3.27267 0.170593C3.89608 0.17033 4.51949 0.171031 5.14289 0.169409C5.20486 0.169236 5.24945 0.180575 5.29158 0.234077C6.68389 2.00255 8.07942 3.76849 9.47042 5.53797C9.63592 5.74852 9.77839 5.97707 9.93235 6.19852C9.93235 6.13006 9.93257 6.06029 9.93232 5.99051C9.92804 4.76682 9.92588 3.54309 9.91823 2.3194C9.91537 1.86447 9.91135 1.40892 9.88543 0.9549C9.87061 0.695537 9.81068 0.438756 9.77045 0.176635H11.4654C11.4353 0.308681 11.3895 0.436479 11.3795 0.567035C11.3458 1.00568 11.3041 1.44525 11.3026 1.8846C11.295 4.15006 11.299 6.4155 11.299 8.68093V8.82804C10.9247 8.82804 10.5642 8.83042 10.2039 8.82431C10.1687 8.82376 10.1277 8.77649 10.1004 8.74219C9.40707 7.86971 8.71505 6.99617 8.02312 6.12251C7.25888 5.15752 6.49325 4.19354 5.73232 3.22585C5.59344 3.04924 5.47424 2.85717 5.36286 2.69662Z" fill="var(--fill-0, white)"/>
<path id="Vector_11" fill-rule="evenodd" clip-rule="evenodd" d="M26.4791 1.65151C26.325 1.60139 26.1822 1.54941 26.0363 1.50848C25.5808 1.38072 25.1147 1.3302 24.6426 1.3288C24.1031 1.32718 23.5635 1.32665 23.024 1.32617C22.9958 1.32613 22.9677 1.33086 22.9343 1.33383V3.59871H25.7577V4.96006C24.8329 4.69624 23.8878 4.75026 22.9375 4.74383V7.64633C22.9606 7.64945 22.9847 7.65553 23.0087 7.65547C23.6722 7.65338 24.3359 7.65823 24.9992 7.64588C25.6043 7.6346 26.1921 7.5191 26.7573 7.29826C26.7776 7.29035 26.798 7.2828 26.8188 7.27662C26.8245 7.27489 26.832 7.27875 26.8531 7.28273C26.7772 7.79502 26.7014 8.30769 26.625 8.82363H21.1659C21.1986 8.6791 21.2447 8.53772 21.2602 8.39302C21.2924 8.09309 21.3268 7.79141 21.3279 7.49039C21.3346 5.56 21.3333 3.62958 21.3328 1.69919C21.3327 1.18651 21.3206 0.674392 21.1587 0.174274H26.4791V1.65151Z" fill="var(--fill-0, white)"/>
<path id="Vector_12" fill-rule="evenodd" clip-rule="evenodd" d="M17.1287 1.32914C17.1263 1.36864 17.1232 1.39701 17.1232 1.42538C17.1255 3.52717 17.126 5.62894 17.1327 7.73074C17.1338 8.07656 17.1773 8.42 17.2807 8.75296C17.287 8.77328 17.2904 8.7945 17.2968 8.82232H15.3475C15.3817 8.65466 15.425 8.48987 15.447 8.32232C15.4764 8.09907 15.5059 7.8737 15.5065 7.64913C15.5119 5.5765 15.5112 3.50383 15.5123 1.43116C15.5123 1.40243 15.5123 1.37371 15.5123 1.33037C14.5849 1.31715 13.6645 1.29136 12.7798 1.65887V0.177728H19.8581V1.65961C18.9789 1.29224 18.0595 1.31837 17.1287 1.32914Z" fill="var(--fill-0, white)"/>
<path id="Vector_13" fill-rule="evenodd" clip-rule="evenodd" d="M1.94732 8.82386H0C0.204548 8.14498 0.172763 7.45154 0.17377 6.76141C0.17609 5.15942 0.175565 3.55733 0.173551 1.95533C0.173157 1.65695 0.173726 1.35749 0.149427 1.06056C0.125172 0.764945 0.070182 0.471826 0.0284144 0.175687H1.94356C1.76975 0.751022 1.77071 1.33726 1.77058 1.92323C1.77018 3.51434 1.76966 5.10547 1.77102 6.69653C1.77132 7.05328 1.77517 7.41006 1.78468 7.76662C1.79422 8.12331 1.83612 8.47637 1.94732 8.82386Z" fill="var(--fill-0, white)"/>
<path id="Vector_14" fill-rule="evenodd" clip-rule="evenodd" d="M76.0759 16.9831C76.1206 16.9057 76.1598 16.8331 76.2035 16.7632C76.9485 15.5679 77.6948 14.3732 78.4395 13.1777C78.5971 12.9246 78.7643 12.6755 78.8247 12.3705H80.5997C80.5685 12.5151 80.5222 12.6549 80.5103 12.7975C80.4781 13.1924 80.4412 13.5884 80.4402 13.984C80.4347 15.9292 80.4386 17.8745 80.4431 19.8197C80.444 20.2026 80.481 20.5829 80.5926 20.9523C80.5987 20.972 80.5984 20.9938 80.6013 21.0179H78.8916C78.9276 20.8432 78.9807 20.6747 78.9942 20.5031C79.0257 20.1079 79.0531 19.7112 79.0553 19.3149C79.0643 17.8396 79.0617 16.3643 79.0653 14.889C79.0656 14.7657 79.0785 14.6423 79.0839 14.5465C78.0669 16.1697 77.0376 17.8123 75.9945 19.4771C74.9559 17.8338 73.9312 16.2123 72.9161 14.6056C72.9225 14.7334 72.937 14.8875 72.9373 15.0417C72.9402 16.4733 72.9341 17.905 72.9453 19.3365C72.9486 19.7686 72.9926 20.2006 73.028 20.6318C73.0386 20.7602 73.0833 20.8858 73.1135 21.0181H71.4003C71.4328 20.8632 71.4762 20.7109 71.4952 20.5555C71.5254 20.3066 71.5572 20.0558 71.5579 19.8057C71.563 17.7293 71.5624 15.653 71.5595 13.5766C71.5588 13.183 71.5219 12.7918 71.4039 12.4126C71.4 12.3997 71.3984 12.386 71.3942 12.3642H71.5415C72.0627 12.3642 72.5842 12.3655 73.1055 12.3628C73.1749 12.3624 73.2164 12.3808 73.255 12.4423C74.073 13.7466 74.8945 15.0488 75.7125 16.3532C75.8396 16.5554 75.9518 16.7669 76.0759 16.9831Z" fill="var(--fill-0, white)"/>
<path id="Vector_15" fill-rule="evenodd" clip-rule="evenodd" d="M88.0495 19.4584C87.9704 19.9907 87.8948 20.5005 87.818 21.0161H82.3807C82.4228 20.7237 82.4756 20.4311 82.5042 20.136C82.527 19.901 82.527 19.6632 82.527 19.4267C82.5273 17.5107 82.5257 15.5947 82.5231 13.6787C82.5228 13.2375 82.4907 12.7996 82.3521 12.3692H87.6714V13.8429C87.4977 13.7884 87.3309 13.7288 87.1598 13.6837C86.7241 13.5688 86.2791 13.5236 85.8289 13.5226C85.2894 13.5214 84.7498 13.5206 84.2103 13.5201C84.1855 13.5201 84.1604 13.5242 84.1283 13.5271V15.7974H86.9531V17.1551C86.0235 16.89 85.0785 16.9446 84.1289 16.9381V19.842C84.1604 19.845 84.1884 19.8501 84.2167 19.85C84.8656 19.8481 85.5145 19.8524 86.1633 19.8416C86.7797 19.8314 87.3781 19.7162 87.954 19.4918C87.9772 19.4827 88.001 19.4753 88.0495 19.4584Z" fill="var(--fill-0, white)"/>
<path id="Vector_16" fill-rule="evenodd" clip-rule="evenodd" d="M94.3797 14.1904C94.0714 14.0242 93.7701 13.8404 93.4514 13.6952C92.927 13.4563 92.3759 13.3254 91.7948 13.4208C91.4148 13.4831 91.0916 13.6433 90.9263 14.0189C90.7434 14.4349 90.8668 14.9082 91.235 15.234C91.5064 15.474 91.8312 15.6228 92.1543 15.7745C92.6086 15.9877 93.0717 16.1847 93.5135 16.4212C93.9971 16.68 94.3929 17.0403 94.6251 17.5555C94.8132 17.9736 94.8578 18.413 94.8045 18.8589C94.6633 20.0391 93.9369 20.7035 92.8369 20.9976C91.8967 21.2489 90.9575 21.1721 90.0369 20.8814C89.7646 20.7955 89.508 20.6603 89.2466 20.5423C89.2144 20.5277 89.1765 20.4804 89.1762 20.4479C89.1717 19.9313 89.173 19.4146 89.173 18.875C89.2543 18.9382 89.3199 18.9917 89.3881 19.0418C90.0614 19.5365 90.8048 19.8595 91.6405 19.9463C91.9392 19.9773 92.2379 19.9595 92.5241 19.8501C93.0263 19.6579 93.2244 19.2204 93.1861 18.7499C93.1434 18.2255 92.8247 17.8822 92.3948 17.6432C91.9726 17.4086 91.5299 17.2107 91.0935 17.0018C90.7254 16.8253 90.3617 16.6426 90.0411 16.3852C89.4389 15.9018 89.1852 15.2709 89.2498 14.5083C89.3295 13.5636 89.8533 12.9428 90.6942 12.5632C91.307 12.2865 91.9562 12.1986 92.6231 12.2246C93.1913 12.2467 93.7434 12.3473 94.2688 12.574C94.3543 12.6108 94.3874 12.6551 94.3861 12.7511C94.3807 13.2028 94.3839 13.6545 94.3836 14.1062C94.3836 14.141 94.3804 14.1758 94.3797 14.1904Z" fill="var(--fill-0, white)"/>
<path id="Vector_17" fill-rule="evenodd" clip-rule="evenodd" d="M67.7128 12.3686H69.655C69.4627 13.008 69.4823 13.6608 69.482 14.3115C69.481 15.9064 69.4813 17.5013 69.482 19.0961C69.4823 19.7395 69.4652 20.3849 69.6566 21.0175H67.7267C67.7656 20.7999 67.8196 20.584 67.8392 20.3651C67.8678 20.0429 67.8832 19.7185 67.8839 19.395C67.8878 17.5889 67.8861 15.7829 67.8855 13.9768C67.8852 13.5142 67.8759 13.052 67.7736 12.5975C67.7569 12.5235 67.7347 12.4508 67.7128 12.3686Z" fill="var(--fill-0, white)"/>
<path id="Vector_18" fill-rule="evenodd" clip-rule="evenodd" d="M42.1061 19.4586C42.0289 19.9849 41.9537 20.498 41.8778 21.0162H36.4125C36.6109 20.3599 36.5858 19.6885 36.5861 19.0196C36.5871 17.2603 36.5874 15.5009 36.5833 13.7416C36.5823 13.2826 36.5556 12.8247 36.4125 12.3728H41.7279V13.8428C41.555 13.7882 41.391 13.7294 41.2231 13.6851C40.7874 13.57 40.3424 13.5239 39.8923 13.5229C39.3488 13.5217 38.8058 13.521 38.2623 13.5203C38.2408 13.5203 38.2193 13.5235 38.1903 13.5257V15.7951H41.0035V17.1527C40.0813 16.8906 39.1395 16.9444 38.1923 16.9379V19.8395C38.2122 19.8426 38.236 19.8495 38.2601 19.8494C38.9273 19.8473 39.5945 19.8524 40.2617 19.8395C40.863 19.8277 41.4472 19.7119 42.009 19.4922C42.0353 19.4819 42.0627 19.4736 42.1061 19.4586Z" fill="var(--fill-0, white)"/>
<path id="Vector_19" fill-rule="evenodd" clip-rule="evenodd" d="M49.8707 18.9098C50.1688 19.0955 50.4543 19.2981 50.7617 19.4601C51.3649 19.778 52.0048 19.9796 52.6974 19.9518C53.0566 19.9374 53.3916 19.8461 53.6402 19.5632C53.99 19.1652 53.9672 18.4891 53.5952 18.0554C53.3225 17.7375 52.9604 17.5498 52.5929 17.3698C52.0833 17.1205 51.5646 16.8877 51.0691 16.6131C50.6177 16.3629 50.2572 16.0044 50.0759 15.5054C49.7289 14.5515 49.9858 13.3254 51.1267 12.6939C51.7826 12.3309 52.4936 12.2068 53.2328 12.2221C53.8344 12.2345 54.4199 12.3351 54.9759 12.5797C55.0543 12.6142 55.0833 12.6546 55.0823 12.7416C55.0781 13.2293 55.0804 13.7172 55.0804 14.225C55.0418 14.1999 55.0164 14.1844 54.9923 14.1674C54.4299 13.7725 53.8196 13.4936 53.1315 13.4091C52.8325 13.3723 52.536 13.3866 52.2453 13.4806C51.4222 13.7465 51.3714 14.668 51.8383 15.1444C52.0405 15.3507 52.2797 15.5021 52.5376 15.6237C52.9357 15.8115 53.3453 15.9759 53.7373 16.1749C54.0476 16.3324 54.3572 16.5029 54.6354 16.7101C55.2543 17.1712 55.5305 17.8091 55.517 18.5776C55.4965 19.7715 54.8151 20.6422 53.6158 20.9768C52.6466 21.247 51.681 21.1787 50.7309 20.8803C50.4585 20.7948 50.2016 20.6597 49.9411 20.5399C49.9064 20.524 49.8717 20.4639 49.8714 20.424C49.8665 19.9287 49.8682 19.4332 49.8685 18.9379C49.8685 18.924 49.8707 18.9098 49.8707 18.9098Z" fill="var(--fill-0, white)"/>
<path id="Vector_20" fill-rule="evenodd" clip-rule="evenodd" d="M43.2392 18.8901C43.4093 19.0106 43.5666 19.1329 43.7341 19.2392C44.3321 19.6188 44.9775 19.8795 45.6878 19.9414C45.9238 19.962 46.1717 19.949 46.4035 19.8995C47.0219 19.7672 47.3437 19.2549 47.2302 18.6304C47.1714 18.3068 46.9974 18.0545 46.7485 17.8481C46.4138 17.5704 46.0164 17.404 45.6299 17.2169C45.2241 17.0204 44.8145 16.8291 44.4219 16.6083C44.0457 16.3967 43.7338 16.1042 43.5315 15.7142C43.0878 14.859 43.236 13.5643 44.2305 12.8592C44.6608 12.5541 45.1421 12.3797 45.6585 12.2925C46.5238 12.1463 47.3707 12.2145 48.1952 12.5214C48.4466 12.6151 48.445 12.6198 48.445 12.89V14.1029V14.2276C48.399 14.1969 48.3672 14.1762 48.336 14.1545C47.7785 13.7658 47.1733 13.4922 46.4929 13.4088C46.1939 13.3722 45.8974 13.3865 45.6067 13.4809C44.7846 13.7479 44.7376 14.6631 45.1939 15.1381C45.3916 15.3436 45.6277 15.4942 45.882 15.6146C46.2862 15.8062 46.6968 15.9848 47.1032 16.172C47.4717 16.3416 47.8222 16.5413 48.1286 16.8108C48.5762 17.205 48.8241 17.7032 48.8714 18.2948C48.9267 18.9843 48.7797 19.6198 48.319 20.1579C47.9402 20.5999 47.4489 20.8592 46.8936 21.0002C46.0029 21.2264 45.1145 21.1779 44.2392 20.9233C43.9305 20.8334 43.6386 20.6866 43.3389 20.5654C43.2588 20.5332 43.2309 20.4784 43.2318 20.3879C43.2373 19.9254 43.2341 19.4628 43.2344 19.0002C43.2344 18.9654 43.2373 18.9306 43.2392 18.8901Z" fill="var(--fill-0, white)"/>
<path id="Vector_21" fill-rule="evenodd" clip-rule="evenodd" d="M63.8518 21.0185H61.8964C61.9273 20.8761 61.973 20.7401 61.9842 20.6013C62.0177 20.1882 62.0575 19.7742 62.0595 19.3604C62.0672 17.4556 62.0627 15.5508 62.0627 13.646V13.5245C61.1341 13.5116 60.2132 13.4855 59.327 13.8546V12.3736H66.4035V13.8512C65.5257 13.487 64.6055 13.5114 63.6807 13.524C63.6775 13.555 63.6723 13.5794 63.6723 13.6038C63.6733 15.6397 63.672 17.6756 63.6775 19.7115C63.6784 20.1482 63.7077 20.5841 63.8518 21.0185Z" fill="var(--fill-0, white)"/>
<path id="Vector_22" fill-rule="evenodd" clip-rule="evenodd" d="M32.9662 12.3742H34.6694C34.4614 13.0506 34.4948 13.7404 34.4945 14.4268C34.4929 16.5785 34.4939 18.7301 34.4939 20.8818V21.0165C34.4527 21.019 34.4209 21.0224 34.389 21.0225C34.1376 21.023 33.8849 21.0084 33.6347 21.0273C33.4357 21.0424 33.3157 20.9714 33.1932 20.8159C31.7881 19.0305 30.3736 17.2523 28.9656 15.4695C28.826 15.2931 28.7103 15.0981 28.5836 14.9118C28.5678 14.8888 28.5517 14.8662 28.5562 14.8478C28.5585 15.9318 28.5588 17.0157 28.564 18.0996C28.5672 18.7875 28.5672 19.4757 28.591 20.163C28.6009 20.4471 28.6694 20.7293 28.7119 21.0162H27.0334C27.0701 20.8332 27.1234 20.6538 27.1386 20.4712C27.1694 20.1017 27.1948 19.7305 27.1958 19.36C27.2013 17.4414 27.199 15.5227 27.1955 13.6041C27.1955 13.5378 27.1681 13.4611 27.1289 13.4071C26.8804 13.0661 26.6251 12.7302 26.3611 12.3778C26.4051 12.3737 26.4347 12.3687 26.4643 12.3686C27.0878 12.3682 27.7109 12.3699 28.3344 12.3662C28.4138 12.3658 28.4588 12.3954 28.5054 12.4542C29.6813 13.9471 30.8627 15.4361 32.0347 16.9322C32.4025 17.4015 32.7463 17.8897 33.1009 18.3689C33.1067 18.3764 33.1161 18.3811 33.1353 18.396C33.1353 18.3463 33.1353 18.3082 33.135 18.2701C33.1289 16.9924 33.1238 15.7147 33.1154 14.437C33.1125 14.0185 33.1135 13.5993 33.0874 13.182C33.0707 12.9121 33.0083 12.645 32.9662 12.3742Z" fill="var(--fill-0, white)"/>
<path id="Vector_23" fill-rule="evenodd" clip-rule="evenodd" d="M13.137 12.372H14.8087C14.7701 12.588 14.7158 12.7997 14.6974 13.0144C14.6691 13.3513 14.654 13.6902 14.6524 14.0283C14.6469 15.2517 14.6547 16.4752 14.6473 17.6986C14.6437 18.2473 14.5569 18.7854 14.353 19.2987C14.0087 20.1659 13.3849 20.7351 12.4852 20.9761C11.5453 21.2278 10.6013 21.2173 9.67781 20.8942C8.78489 20.582 8.25916 19.9235 8.00289 19.0331C7.86302 18.5475 7.80771 18.0488 7.8061 17.5453C7.8016 16.2891 7.80514 15.0329 7.80128 13.7766C7.79968 13.3068 7.77491 12.8383 7.63022 12.3761H9.55562C9.51768 12.5954 9.46624 12.8148 9.44501 13.037C9.41736 13.3264 9.40321 13.6181 9.40193 13.9089C9.39775 15.0813 9.39774 16.2538 9.40256 17.4262C9.40417 17.8272 9.44276 18.2254 9.55337 18.6139C9.77169 19.3823 10.326 19.8312 11.1238 19.8932C11.4318 19.9172 11.7366 19.9123 12.036 19.837C12.6148 19.6914 12.9662 19.3107 13.1418 18.7519C13.2784 18.3158 13.3074 17.865 13.31 17.4139C13.3167 16.2014 13.3148 14.9888 13.3096 13.7763C13.3077 13.3069 13.2839 12.8381 13.137 12.372Z" fill="var(--fill-0, white)"/>
<path id="Vector_24" fill-rule="evenodd" clip-rule="evenodd" d="M16.2209 18.8721C16.6039 19.1968 17.0055 19.4365 17.4405 19.6197C17.9553 19.8365 18.4875 19.9802 19.0521 19.9526C19.4148 19.9348 19.7537 19.8433 19.9994 19.5515C20.3331 19.1558 20.3129 18.5101 19.9608 18.0767C19.7273 17.7894 19.4164 17.6059 19.0923 17.4464C18.7071 17.2569 18.3138 17.0839 17.926 16.8996C17.5929 16.7413 17.2762 16.5555 16.9968 16.3114C16.5016 15.8788 16.2714 15.3305 16.2868 14.6779C16.3106 13.6616 16.8306 12.9795 17.7354 12.5685C18.3473 12.2905 18.9968 12.2024 19.664 12.2283C20.2396 12.2506 20.7984 12.3517 21.3296 12.5852C21.4084 12.6197 21.4351 12.6608 21.4344 12.7474C21.4296 13.2349 21.4322 13.7226 21.4322 14.2333C21.3904 14.2045 21.3624 14.1855 21.3347 14.1662C20.7756 13.7739 20.1682 13.4973 19.4839 13.4126C19.1852 13.3756 18.8888 13.3895 18.5978 13.4828C17.7679 13.7489 17.7238 14.6721 18.1852 15.1454C18.3839 15.3494 18.6203 15.4997 18.8743 15.6199C19.2788 15.8113 19.6894 15.9891 20.0955 16.1766C20.4637 16.3466 20.8142 16.5468 21.1199 16.8169C21.5733 17.2177 21.8187 17.7249 21.8608 18.3241C21.9113 19.0431 21.7412 19.6963 21.2354 20.236C20.827 20.6718 20.3113 20.921 19.7367 21.0353C18.5945 21.2628 17.4923 21.1218 16.4344 20.6286C16.2714 20.5528 16.2077 20.4596 16.2154 20.2731C16.2328 19.8551 16.2209 19.4359 16.2209 19.0172V18.8721Z" fill="var(--fill-0, white)"/>
<path id="Vector_25" fill-rule="evenodd" clip-rule="evenodd" d="M23.199 12.3739H25.1363C25.1045 12.5124 25.0575 12.6471 25.0456 12.7847C25.0119 13.1719 24.9726 13.5604 24.9717 13.9484C24.9659 15.8886 24.971 17.8288 24.9746 19.769C24.9755 20.1881 25.0128 20.6035 25.1463 21.0148H23.2025C23.2328 20.8838 23.2781 20.7555 23.2894 20.6243C23.3251 20.2081 23.3697 19.7909 23.372 19.3738C23.381 17.5829 23.3781 15.7919 23.3742 14.0009C23.3733 13.5211 23.3681 13.0401 23.2501 12.5696C23.2347 12.5068 23.2177 12.4442 23.199 12.3739Z" fill="var(--fill-0, white)"/>
<path id="Vector_26" fill-rule="evenodd" clip-rule="evenodd" d="M1.77332 15.8965C1.93248 15.8965 2.07781 15.8966 2.22315 15.8965C2.59453 15.8963 2.96657 15.8947 3.32991 15.8042C3.68103 15.7169 3.97524 15.5508 4.10708 15.1892C4.21061 14.9052 4.22315 14.612 4.14534 14.3205C4.03762 13.9159 3.73698 13.7181 3.35402 13.6237C2.83987 13.4969 2.31512 13.506 1.791 13.5166C1.78553 13.5167 1.78007 13.5248 1.77332 13.5303V15.8965ZM1.77364 19.8579C2.2029 19.8579 2.61833 19.8684 3.0328 19.8537C3.2492 19.8459 3.46785 19.8104 3.67846 19.7587C4.11704 19.651 4.46238 19.414 4.59035 18.9581C4.64534 18.7619 4.66785 18.5494 4.66335 18.3452C4.6492 17.6893 4.31255 17.2885 3.67653 17.1386C3.05563 16.9922 2.42412 17.0328 1.79486 17.033C1.78875 17.033 1.78297 17.0397 1.77364 17.0452V19.8579ZM0.0241197 21.0255C0.066885 20.7399 0.120582 20.4654 0.145984 20.1883C0.171064 19.9096 0.175564 19.6285 0.176207 19.3483C0.178458 17.5785 0.17943 15.8086 0.175893 14.0387C0.174928 13.5516 0.177179 13.0628 0.0565998 12.5848C0.0398795 12.5182 0.0215434 12.4521 0 12.3716C0.0434084 12.3716 0.0784654 12.3716 0.113514 12.3716C0.940845 12.3718 1.76849 12.3695 2.59614 12.3733C3.16528 12.376 3.73569 12.393 4.28553 12.5542C4.52733 12.625 4.76463 12.7285 4.98425 12.8519C5.32026 13.0407 5.54148 13.3404 5.66624 13.7031C5.82315 14.1593 5.86271 14.6291 5.75788 15.1012C5.62573 15.6967 5.23891 16.0775 4.68811 16.3086C4.65595 16.3222 4.62444 16.3367 4.59261 16.3505C4.79808 16.4213 5.00451 16.476 5.19711 16.5619C5.8312 16.8447 6.19068 17.3363 6.27235 18.0267C6.33473 18.5558 6.29325 19.0746 6.08393 19.5688C5.81737 20.1978 5.32091 20.5723 4.68939 20.7863C4.15885 20.9659 3.6074 21.0193 3.05274 21.0243C2.05756 21.0334 1.06206 21.0274 0.0668835 21.0276C0.0488771 21.0276 0.0311936 21.0259 0.0241197 21.0255Z" fill="var(--fill-0, white)"/>
</g>
<defs>
<clipPath id="clip0_0_4">
<rect width="100" height="21.2219" fill="white"/>
</clipPath>
</defs>
</svg>
