<svg preserveAspectRatio="none" width="100%" height="100%" overflow="visible" style="display: block;" viewBox="0 0 149.608 74.3778" fill="none" xmlns="http://www.w3.org/2000/svg">
<g id="Group">
<path id="Vector" d="M6.36839 0.527336C7.30003 0.527336 8.02309 0.582945 8.5793 0.666358C9.1355 0.74977 9.65 0.930498 10.0811 1.16684C10.7763 1.52829 11.3186 1.98706 11.708 2.55705C12.0973 3.12704 12.2781 3.78044 12.2781 4.47555C12.2781 5.04554 12.139 5.58772 11.8748 6.1021C11.5967 6.60258 11.2074 7.00574 10.7207 7.33939C10.5677 7.45061 10.4009 7.53402 10.2618 7.61743C10.1228 7.70085 9.87248 7.81206 9.58047 7.95109C10.0671 8.09011 10.4565 8.21523 10.7346 8.31254C11.0127 8.40986 11.2908 8.56278 11.5967 8.7157C12.3615 9.13277 12.9455 9.71666 13.3627 10.4118C13.7798 11.1069 13.9884 11.8715 13.9884 12.7195C13.9884 13.7483 13.6964 14.6797 13.0846 15.5417C12.4727 16.4036 11.6523 17.0709 10.6095 17.5714C10.3314 17.7104 10.0393 17.8216 9.71953 17.9189C9.39971 18.0162 9.0938 18.0719 8.71836 18.1275C8.34292 18.1831 7.96747 18.2109 7.5086 18.2526C7.07754 18.2943 6.56305 18.3082 6.00684 18.3082H0.291857C0.556054 18.1692 0.750708 18.0301 0.903664 17.8494C1.05662 17.6687 1.18178 17.488 1.26521 17.2238C1.34864 16.9597 1.40425 16.6538 1.44596 16.2785C1.48768 15.917 1.5016 15.4165 1.5016 14.8466V4.00287C1.5016 3.43289 1.48768 2.96021 1.44596 2.57095C1.40425 2.18169 1.36255 1.88975 1.26521 1.62561C1.16788 1.36147 1.05662 1.15293 0.903664 1.00001C0.750708 0.847086 0.542149 0.68026 0.291857 0.541238H4.60243C4.85272 0.541238 5.15863 0.541238 5.53407 0.527336H6.36839ZM4.12966 7.70085C4.37996 7.74255 4.56073 7.75646 4.69978 7.75646H5.15865C6.43792 7.75646 7.46688 7.49231 8.24557 6.97794C9.02425 6.46356 9.41361 5.76845 9.41361 4.90651C9.41361 4.10019 9.09379 3.46069 8.46806 2.98802C7.84232 2.51534 7.02192 2.2512 5.99294 2.2512C5.71484 2.2512 5.45065 2.2512 5.17255 2.29291C4.89445 2.33462 4.54682 2.36242 4.12966 2.43193V7.71475V7.70085ZM4.12966 16.1534C4.61634 16.2646 5.0335 16.3341 5.36722 16.3619C5.70094 16.3897 6.07637 16.4175 6.50743 16.4175C7.95356 16.4175 9.07989 16.1395 9.84467 15.5417C10.6095 14.9717 11.0127 14.1514 11.0127 13.0671C11.0127 11.8993 10.5956 10.9957 9.76124 10.3284C9.33018 9.9947 8.8296 9.75837 8.3012 9.59154C7.7589 9.45252 7.06364 9.38301 6.18762 9.38301C5.82608 9.38301 5.50627 9.38301 5.21426 9.39691C4.92225 9.41081 4.57462 9.45252 4.14356 9.50813V16.1395L4.12966 16.1534Z" fill="var(--fill-0, #344049)"/>
<path id="Vector_2" d="M25.8079 16.5068C25.4881 16.9099 25.1822 17.2575 24.9041 17.5355C24.626 17.8136 24.334 18.0221 24.0281 18.175C23.7222 18.3279 23.4163 18.4531 23.0686 18.5226C22.7349 18.5921 22.3595 18.6338 21.9145 18.6338C21.0107 18.6338 20.2181 18.4531 19.5228 18.1333C18.8276 17.8136 18.2853 17.327 17.8959 16.7153C17.6178 16.2843 17.4093 15.8116 17.298 15.2973C17.1868 14.7829 17.1451 14.1156 17.1451 13.2954V8.45741C17.1451 8.04035 17.145 7.69279 17.1311 7.42865C17.1172 7.16451 17.0616 6.94208 17.006 6.76135C16.9504 6.58062 16.8252 6.4277 16.6862 6.28868C16.5471 6.14966 16.3525 5.99673 16.13 5.8021H17.9794C18.3965 5.8021 18.7163 5.7604 18.9527 5.67698C19.1891 5.59357 19.4116 5.46845 19.5924 5.27382V12.781C19.5924 13.4483 19.648 13.9905 19.7453 14.4075C19.8426 14.8246 20.0095 15.1721 20.2459 15.478C20.5101 15.8116 20.8577 16.048 21.2749 16.2287C21.692 16.4094 22.1509 16.4929 22.6376 16.4929C23.5831 16.4929 24.334 16.2009 24.8902 15.6031C25.4464 15.0053 25.7245 14.2407 25.7245 13.2676V8.42961C25.7245 8.01254 25.7245 7.66499 25.7106 7.40085C25.6967 7.13671 25.655 6.91427 25.5855 6.73355C25.5159 6.55282 25.4325 6.39989 25.2935 6.26087C25.1544 6.12185 24.9736 5.96893 24.7512 5.7743H26.6423C27.0316 5.7743 27.3375 5.73259 27.5739 5.64918C27.8103 5.56577 28.005 5.44065 28.1996 5.24602V15.5475C28.1996 15.9785 28.1996 16.326 28.2135 16.5902C28.2274 16.8543 28.2692 17.0628 28.3387 17.2575C28.4082 17.4382 28.5194 17.5911 28.6585 17.7301C28.7976 17.8692 28.9922 18.0221 29.2147 18.2167H25.8497V16.4511L25.794 16.5068H25.8079Z" fill="var(--fill-0, #344049)"/>
<path id="Vector_3" d="M31.1476 18.2535C31.398 18.0589 31.565 17.906 31.7041 17.767C31.8433 17.6279 31.9546 17.475 32.0241 17.2943C32.0937 17.1135 32.1354 16.8911 32.1493 16.6548C32.1493 16.3906 32.1633 16.0431 32.1633 15.6121V3.16969C32.1633 2.73872 32.1633 2.39117 32.1493 2.12703C32.1354 1.86289 32.0798 1.65436 32.0241 1.48753C31.9546 1.3068 31.8433 1.15388 31.7041 1.01486C31.565 0.875836 31.3702 0.722912 31.1476 0.528282H33.012C33.4154 0.528282 33.7215 0.486575 33.9719 0.403162C34.2224 0.31975 34.4311 0.19463 34.6119 0V15.5982C34.6119 16.0292 34.6119 16.3767 34.6259 16.6409C34.6398 16.905 34.6815 17.1136 34.7511 17.2804C34.8207 17.4472 34.9319 17.614 35.0711 17.753C35.2102 17.8921 35.405 18.045 35.6276 18.2396H31.1198H31.1337L31.1476 18.2535Z" fill="var(--fill-0, #344049)"/>
<path id="Vector_4" d="M37.5715 18.2535C37.8219 18.0589 37.9889 17.906 38.128 17.767C38.2671 17.6279 38.3784 17.475 38.448 17.2943C38.5176 17.1135 38.5593 16.8911 38.5732 16.6548C38.5732 16.3906 38.5871 16.0431 38.5871 15.6121V3.16969C38.5871 2.73872 38.5872 2.39117 38.5732 2.12703C38.5593 1.86289 38.5037 1.65436 38.448 1.48753C38.3784 1.3068 38.2671 1.15388 38.128 1.01486C37.9889 0.875836 37.7941 0.722912 37.5715 0.528282H39.4358C39.8393 0.528282 40.1454 0.486575 40.3958 0.403162C40.6463 0.31975 40.855 0.19463 41.0358 0V15.5982C41.0358 16.0292 41.0358 16.3767 41.0498 16.6409C41.0637 16.905 41.1054 17.1136 41.175 17.2804C41.2445 17.4472 41.3558 17.614 41.495 17.753C41.6341 17.8921 41.8289 18.045 42.0515 18.2396H37.5437H37.5576L37.5715 18.2535Z" fill="var(--fill-0, #344049)"/>
<path id="Vector_5" d="M47.5996 15.6233C47.5996 16.0542 47.5996 16.4018 47.6135 16.6659C47.6274 16.9301 47.6692 17.1386 47.7387 17.3054C47.8083 17.4722 47.9196 17.6391 48.0588 17.7781C48.1979 17.9171 48.3927 18.07 48.6153 18.2647H44.1214C44.3718 18.07 44.5388 17.9171 44.6779 17.7781C44.817 17.6391 44.9283 17.4861 44.9979 17.3054C45.0674 17.1247 45.1092 16.9023 45.1231 16.6659C45.137 16.4296 45.137 16.0542 45.137 15.6233V8.50535C45.137 8.08829 45.137 7.74074 45.1231 7.47659C45.1231 7.21245 45.0674 6.99002 44.9979 6.80929C44.9283 6.62856 44.817 6.47564 44.6779 6.33662C44.5388 6.1976 44.344 6.04467 44.1214 5.85004H45.9857C46.3892 5.85004 46.6953 5.80834 46.9457 5.73883C47.1961 5.66931 47.4048 5.53029 47.5857 5.33566V15.6372L47.5996 15.6233ZM46.3335 0.85917C46.7648 0.85917 47.1544 1.01209 47.4883 1.35965C47.8222 1.6933 47.9752 2.06866 47.9752 2.52743C47.9752 2.9862 47.8222 3.40326 47.4883 3.73692C47.1544 4.07057 46.7509 4.22349 46.2779 4.22349C45.8049 4.22349 45.4152 4.07057 45.1092 3.73692C44.7753 3.40326 44.6222 3.02791 44.6222 2.52743C44.6222 2.02695 44.7753 1.66549 45.1092 1.35965C45.4431 1.026 45.8466 0.873072 46.3335 0.873072V0.85917Z" fill="var(--fill-0, #344049)"/>
<path id="Vector_6" d="M57.9145 5.48429C59.7639 5.48429 61.3352 6.05428 62.5866 7.20816C63.268 7.83376 63.7964 8.57057 64.144 9.3769C64.5055 10.1971 64.6863 11.0591 64.6863 11.9627C64.6863 12.8663 64.4916 13.7839 64.144 14.5763C63.7825 15.3826 63.268 16.0916 62.6283 16.7033C61.9887 17.315 61.2378 17.7877 60.3618 18.1213C59.4858 18.455 58.5402 18.6218 57.5391 18.6218C56.5379 18.6218 55.6341 18.4689 54.7997 18.1213C53.9654 17.7877 53.2285 17.3428 52.6167 16.7589C52.0048 16.175 51.5182 15.5077 51.1705 14.7014C50.8229 13.9229 50.6421 13.0471 50.6421 12.1017C50.6421 11.073 50.8646 10.1137 51.3096 9.22397C51.7546 8.33423 52.3803 7.56962 53.1729 6.95792C53.8542 6.45744 54.5634 6.06818 55.3421 5.84575C56.1208 5.62332 56.969 5.48429 57.9562 5.48429H57.9145ZM57.4695 7.27767C56.8577 7.27767 56.2876 7.38889 55.787 7.61132C55.3004 7.83376 54.8415 8.1396 54.4938 8.54277C54.1462 8.94593 53.8542 9.4186 53.6317 9.97469C53.4231 10.5308 53.3119 11.1425 53.3119 11.8098C53.3119 12.5188 53.4232 13.2 53.6456 13.8395C53.8681 14.4651 54.174 14.9934 54.5773 15.4382C54.9805 15.8692 55.4394 16.2446 55.9539 16.4809C56.4684 16.7172 57.0663 16.8702 57.7059 16.8702C58.3455 16.8702 58.8879 16.7589 59.4163 16.5504C59.9446 16.3419 60.3757 16.0221 60.7373 15.619C61.0988 15.2158 61.4047 14.7431 61.5994 14.187C61.8079 13.6449 61.9192 13.0332 61.9192 12.352C61.9192 11.5873 61.8079 10.8922 61.5994 10.2527C61.3908 9.61323 61.071 9.09885 60.6955 8.65398C60.2923 8.22302 59.8195 7.87546 59.2772 7.62522C58.7349 7.37499 58.1231 7.26377 57.4418 7.26377H57.4556L57.4695 7.27767Z" fill="var(--fill-0, #344049)"/>
<path id="Vector_7" d="M70.1101 7.54332C70.7498 6.7787 71.3894 6.23651 71.9734 5.91676C72.5853 5.59702 73.2805 5.44409 74.0731 5.44409C74.9491 5.44409 75.7556 5.62482 76.4926 5.97237C77.2296 6.31993 77.7997 6.7926 78.2029 7.36259C78.3281 7.55722 78.4254 7.75185 78.5227 7.96038C78.6201 8.16891 78.6757 8.41915 78.7313 8.69719C78.787 8.97524 78.8148 9.30889 78.8426 9.67034C78.8704 10.0318 78.8565 10.4906 78.8565 10.991V15.5648C78.8565 15.9958 78.8565 16.3434 78.8704 16.6075C78.8843 16.8716 78.926 17.0802 78.9955 17.247C79.0651 17.4138 79.1763 17.5807 79.3153 17.7197C79.4544 17.8587 79.649 18.0116 79.8715 18.2063H75.3802C75.6027 18.0116 75.7973 17.8587 75.9364 17.7197C76.0754 17.5807 76.1867 17.4277 76.2562 17.247C76.3258 17.0663 76.3675 16.8438 76.3814 16.5797C76.3953 16.3156 76.3952 15.968 76.3952 15.5509V11.2552C76.3952 10.5462 76.3535 9.97619 76.2701 9.57303C76.1867 9.16987 76.0198 8.82231 75.8113 8.54427C75.5471 8.21062 75.1716 7.93257 74.671 7.71014C74.1843 7.50161 73.656 7.39039 73.1137 7.39039C72.5714 7.39039 72.0847 7.50161 71.6258 7.71014C71.1669 7.91867 70.8193 8.21062 70.5829 8.57207C70.4439 8.7667 70.3605 8.96133 70.3048 9.18377C70.2492 9.4062 70.2353 9.71205 70.2353 10.1152V15.5648C70.2353 15.9958 70.2353 16.3434 70.2492 16.6075C70.2631 16.8716 70.3048 17.0802 70.3743 17.247C70.4439 17.4138 70.5273 17.5807 70.6663 17.7197C70.8054 17.8587 70.9862 18.0116 71.2087 18.2063H66.7451C66.9954 18.0116 67.1623 17.8587 67.3013 17.7197C67.4404 17.5807 67.5516 17.4277 67.6211 17.247C67.6906 17.0663 67.7324 16.8438 67.7463 16.6075C67.7602 16.3712 67.7602 15.9958 67.7602 15.5648V8.44695C67.7602 8.02989 67.7602 7.68234 67.7463 7.4182C67.7463 7.15406 67.6906 6.93162 67.6211 6.75089C67.5516 6.57017 67.4404 6.41724 67.3013 6.27822C67.1623 6.1392 66.9676 5.98628 66.7451 5.79165H68.4971C68.9004 5.79165 69.2063 5.74994 69.4566 5.68043C69.7069 5.61092 69.9155 5.4719 70.0962 5.27727V7.52941L70.1101 7.54332Z" fill="var(--fill-0, #344049)"/>
<path id="Vector_8" d="M1.48826 29.278C1.48826 28.7081 1.47435 28.2354 1.43261 27.8461C1.39087 27.4569 1.34913 27.1649 1.25174 26.9008C1.16826 26.6366 1.04305 26.4281 0.890007 26.2752C0.736964 26.1223 0.528266 25.9554 0.277832 25.8164H5.41173C5.14738 25.9554 4.9526 26.0944 4.79955 26.2752C4.64651 26.4559 4.5213 26.6366 4.43782 26.9008C4.35435 27.1649 4.29869 27.4708 4.25695 27.8461C4.21521 28.2215 4.20131 28.7081 4.20131 29.278V40.1356C4.20131 40.7056 4.2013 41.1783 4.25695 41.5675C4.29869 41.929 4.34043 42.2488 4.43782 42.5129C4.53522 42.777 4.64651 42.9856 4.79955 43.1385C4.9526 43.2914 5.1613 43.4582 5.41173 43.5973H0.277832C0.542179 43.4582 0.736964 43.3192 0.890007 43.1385C1.04305 42.9856 1.16826 42.777 1.25174 42.5129C1.33522 42.2488 1.39087 41.9429 1.43261 41.5675C1.47435 41.2061 1.48826 40.7056 1.48826 40.1356V29.278Z" fill="var(--fill-0, #344049)"/>
<path id="Vector_9" d="M11.1515 32.8285C11.7911 32.0639 12.4307 31.5217 13.0148 31.202C13.6266 30.8822 14.3218 30.7293 15.1144 30.7293C15.9904 30.7293 16.797 30.9101 17.5339 31.2576C18.2848 31.6052 18.841 32.0778 19.2442 32.6478C19.3694 32.8425 19.4667 33.0371 19.5641 33.2456C19.6614 33.4541 19.717 33.7044 19.7726 33.9824C19.8283 34.2605 19.8561 34.5941 19.8839 34.9556C19.9117 35.317 19.8978 35.7758 19.8978 36.2763V40.8501C19.8978 41.281 19.8978 41.6286 19.9117 41.8927C19.9256 42.1569 19.9673 42.3654 20.0368 42.5322C20.1064 42.6991 20.2176 42.8659 20.3567 43.0049C20.4957 43.1439 20.6904 43.2969 20.9129 43.4915H16.4215C16.644 43.2969 16.8387 43.1439 16.9777 43.0049C17.1168 42.8659 17.228 42.713 17.2975 42.5322C17.3671 42.3515 17.4088 42.1291 17.4227 41.8649C17.4366 41.6008 17.4366 41.2532 17.4366 40.8362V36.5404C17.4366 35.8314 17.3949 35.2614 17.3114 34.8583C17.228 34.4551 17.0611 34.1075 16.8526 33.8295C16.5884 33.4959 16.2129 33.2178 15.7124 32.9954C15.2118 32.7729 14.6973 32.6756 14.155 32.6756C13.6127 32.6756 13.126 32.7868 12.6671 32.9954C12.2083 33.2039 11.8606 33.4959 11.6242 33.8573C11.4852 34.0519 11.4018 34.2466 11.3461 34.469C11.2905 34.6914 11.2766 34.9973 11.2766 35.4004V40.8501C11.2766 41.281 11.2766 41.6286 11.2905 41.8927C11.3044 42.1569 11.3462 42.3654 11.4157 42.5322C11.4852 42.6991 11.5686 42.8659 11.7077 43.0049C11.8467 43.1439 12.0275 43.2969 12.25 43.4915H7.78644C8.03673 43.2969 8.20358 43.1439 8.34263 43.0049C8.48169 42.8659 8.59292 42.713 8.66245 42.5322C8.73197 42.3515 8.77368 42.1291 8.78759 41.8927C8.80149 41.6564 8.80151 41.281 8.80151 40.8501V33.7322C8.80151 33.3151 8.80149 32.9676 8.78759 32.7034C8.77368 32.4393 8.73197 32.2169 8.66245 32.0361C8.59292 31.8554 8.48169 31.7025 8.34263 31.5635C8.20358 31.4244 8.00892 31.2715 7.78644 31.0769H9.53848C9.94172 31.0769 10.2476 31.0352 10.4979 30.9657C10.7482 30.8962 10.9568 30.7571 11.1376 30.5625V32.8146L11.1515 32.8285Z" fill="var(--fill-0, #344049)"/>
<path id="Vector_10" d="M26.8512 38.5996C26.8512 39.3503 26.8929 39.8925 26.9624 40.24C27.0319 40.5876 27.1571 40.8795 27.3518 41.1298C27.8523 41.7414 28.5615 42.0612 29.4236 42.0612C29.6322 42.0612 29.813 42.0612 29.9659 42.0056C30.1189 41.9639 30.3135 41.9222 30.5638 41.8249L29.1733 43.7434C28.9787 43.8129 28.8257 43.8546 28.7006 43.8685C28.5754 43.8685 28.4086 43.8824 28.2 43.8824C27.6438 43.8824 27.1293 43.7712 26.6843 43.5904C26.2394 43.4097 25.8083 43.1039 25.4328 42.7007C25.2243 42.4783 25.0713 42.2697 24.9323 42.0612C24.8071 41.8527 24.7098 41.6024 24.6403 41.3244C24.5707 41.0463 24.5151 40.6988 24.5012 40.2956C24.4595 39.8925 24.4595 39.4059 24.4595 38.7942V32.8441H22.624V31.8709C23.5696 31.718 24.3065 31.3287 24.8349 30.7031C25.5024 29.9941 25.85 28.882 25.85 27.3805V27.0469H26.9207V31.0646H29.0204C29.4514 31.0646 29.7852 31.0646 30.0215 31.0507C30.244 31.0507 30.4387 30.9951 30.6195 30.9256V33.3445C30.397 33.1499 30.1884 33.0248 29.952 32.9553C29.7156 32.8858 29.3958 32.8441 28.923 32.8441H26.9346V38.5718H26.8929L26.8512 38.5996Z" fill="var(--fill-0, #344049)"/>
<path id="Vector_11" d="M34.6657 37.0833C34.7353 38.6681 35.2359 39.9054 36.1814 40.7952C37.127 41.6849 38.4201 42.1159 40.0609 42.1159C40.9648 42.1159 41.7574 42.0047 42.4526 41.7822C43.1479 41.5598 43.8431 41.1844 44.5662 40.6839L43.1201 43.2697C42.5221 43.52 41.9381 43.6729 41.368 43.7702C40.7979 43.8536 40.1444 43.9092 39.3935 43.9092C38.2811 43.9092 37.2521 43.7563 36.3066 43.4227C35.361 43.089 34.5545 42.6581 33.901 42.0603C33.2196 41.4903 32.6912 40.7813 32.3297 39.9888C31.9404 39.1825 31.7735 38.2928 31.7735 37.3196C31.7735 36.3465 31.9682 35.4706 32.3714 34.5809C32.7608 33.6912 33.303 32.9404 33.9705 32.3149C35.1385 31.2861 36.6403 30.7578 38.4619 30.7578C39.3518 30.7578 40.1583 30.8968 40.9092 31.1888C41.66 31.4807 42.2997 31.8839 42.842 32.4122C43.3843 32.9404 43.8153 33.566 44.1212 34.2751C44.4271 34.9841 44.5801 35.7765 44.5801 36.6245V37.0555H34.6657H34.6797L34.6657 37.0833ZM41.7435 35.4011C41.3541 33.4131 40.2139 32.4122 38.3228 32.4122C37.3912 32.4122 36.6264 32.6763 36.0145 33.1907C35.3888 33.719 34.9856 34.4419 34.777 35.4011H41.7435Z" fill="var(--fill-0, #344049)"/>
<path id="Vector_12" d="M46.6654 43.5149C46.9157 43.3203 47.0826 43.1674 47.2216 43.0283C47.3607 42.8893 47.4719 42.7364 47.5414 42.5557C47.6109 42.3749 47.6527 42.1525 47.6666 41.9162C47.6666 41.652 47.6805 41.3045 47.6805 40.8735V33.7556C47.6805 33.3386 47.6805 32.991 47.6666 32.7269C47.6527 32.4627 47.6109 32.2403 47.5414 32.0596C47.4719 31.8788 47.3607 31.7259 47.2216 31.5869C47.0826 31.4479 46.8879 31.2949 46.6654 31.1003H48.5287C48.9319 31.1003 49.2379 31.0586 49.4881 30.9891C49.7384 30.9196 49.947 30.7806 50.1278 30.5859V32.7964C50.8647 31.4201 51.9215 30.725 53.3399 30.725C53.5901 30.725 53.896 30.7667 54.2854 30.8362V33.3108C53.9656 33.0327 53.5484 32.8798 53.0061 32.8798C52.5334 32.8798 52.0745 32.991 51.6573 33.1717C51.2402 33.3525 50.9065 33.6444 50.684 33.9781C50.2946 34.5063 50.1278 35.3266 50.1278 36.4248V40.8735C50.1278 41.3045 50.1278 41.652 50.1417 41.9162C50.1556 42.1803 50.1973 42.3889 50.2668 42.5557C50.3364 42.7225 50.4476 42.8893 50.5866 43.0283C50.7257 43.1674 50.9204 43.3203 51.1429 43.5149H46.6376H46.6515H46.6654Z" fill="var(--fill-0, #344049)"/>
<path id="Vector_13" d="M58.9304 32.8285C59.5701 32.0639 60.2097 31.5217 60.7937 31.202C61.4056 30.8822 62.1008 30.7293 62.8934 30.7293C63.7694 30.7293 64.5759 30.9101 65.3129 31.2576C66.0499 31.6052 66.62 32.0778 67.0232 32.6478C67.1484 32.8425 67.2457 33.0371 67.3431 33.2456C67.4404 33.4541 67.496 33.7044 67.5516 33.9824C67.6073 34.2605 67.6351 34.5941 67.6629 34.9556C67.6907 35.317 67.6768 35.7758 67.6768 36.2763V40.8501C67.6768 41.281 67.6768 41.6286 67.6907 41.8927C67.7046 42.1569 67.7463 42.3654 67.8158 42.5322C67.8854 42.6991 67.9966 42.8659 68.1356 43.0049C68.2747 43.1439 68.4694 43.2969 68.6919 43.4915H64.2005C64.423 43.2969 64.6176 43.1439 64.7567 43.0049C64.8958 42.8659 65.007 42.713 65.0765 42.5322C65.1461 42.3515 65.1878 42.1291 65.2017 41.8649C65.2156 41.6008 65.2156 41.2532 65.2156 40.8362V36.5404C65.2156 35.8314 65.1739 35.2614 65.0905 34.8583C65.007 34.4551 64.8401 34.1075 64.6316 33.8295C64.3674 33.4959 63.9919 33.2178 63.4913 32.9954C62.9907 32.7729 62.4763 32.6756 61.934 32.6756C61.3917 32.6756 60.905 32.7868 60.4461 32.9954C59.9872 33.2039 59.6396 33.4959 59.4032 33.8573C59.2642 34.0519 59.1808 34.2466 59.1251 34.469C59.0695 34.6914 59.0556 34.9973 59.0556 35.4004V40.8501C59.0556 41.281 59.0556 41.6286 59.0695 41.8927C59.0834 42.1569 59.1251 42.3654 59.1946 42.5322C59.2642 42.6991 59.3476 42.8659 59.4867 43.0049C59.6257 43.1439 59.8065 43.2969 60.029 43.4915H55.5654C55.8157 43.2969 55.9826 43.1439 56.1216 43.0049C56.2607 42.8659 56.3719 42.713 56.4415 42.5322C56.511 42.3515 56.5527 42.1291 56.5666 41.8927C56.5666 41.6286 56.5805 41.281 56.5805 40.8501V33.7322C56.5805 33.3151 56.5805 32.9676 56.5666 32.7034C56.5527 32.4393 56.511 32.2169 56.4415 32.0361C56.3719 31.8554 56.2607 31.7025 56.1216 31.5635C55.9826 31.4244 55.7879 31.2715 55.5654 31.0769H57.3174C57.7207 31.0769 58.0266 31.0352 58.2769 30.9657C58.5272 30.8962 58.7358 30.7571 58.9166 30.5625V32.8146L58.9304 32.8285Z" fill="var(--fill-0, #344049)"/>
<path id="Vector_14" d="M78.6616 36.7948C78.4113 36.906 78.2305 36.9894 78.0636 37.0589C77.8968 37.1284 77.716 37.198 77.4935 37.2675C77.271 37.337 76.9929 37.4065 76.6314 37.4899C76.2699 37.5733 75.811 37.6845 75.2131 37.8235C73.9199 38.1433 73.2803 38.8245 73.2803 39.895C73.2803 40.5901 73.5306 41.1323 74.0312 41.5215C74.5317 41.9108 75.2409 42.0915 76.1447 42.0915C76.4924 42.0915 76.8122 42.0776 77.0903 42.022C77.3684 41.9664 77.7299 41.883 78.1888 41.744L76.6036 43.7737C76.3116 43.8432 76.0613 43.8849 75.8666 43.8988C75.6581 43.8988 75.4078 43.9127 75.1297 43.9127C73.767 43.9127 72.7102 43.5651 71.9315 42.87C71.5004 42.4808 71.1528 42.0081 70.9025 41.4937C70.6522 40.9793 70.541 40.4232 70.541 39.895C70.541 39.3667 70.68 38.7967 70.9442 38.3101C71.2223 37.8235 71.57 37.4343 72.0427 37.1701C72.2374 37.0589 72.432 36.9755 72.6128 36.8921C72.7936 36.8087 73.0439 36.7114 73.322 36.628C73.6001 36.5446 73.8921 36.475 74.2675 36.3777C74.6152 36.3082 75.0462 36.2248 75.5607 36.1136C76.1587 35.9885 76.6453 35.8633 77.0485 35.766C77.4379 35.6548 77.7438 35.5158 77.9802 35.3768C78.2166 35.2377 78.3696 35.057 78.4669 34.8902C78.5503 34.7095 78.606 34.5009 78.606 34.2646C78.606 33.7641 78.3557 33.3332 77.8968 33.0273C77.424 32.7076 76.7983 32.5546 76.0335 32.5546C75.7554 32.5546 75.4773 32.5685 75.2131 32.6102C74.9489 32.6519 74.6847 32.6937 74.4344 32.791C74.1841 32.8883 73.8643 32.9856 73.5306 33.1246C73.1968 33.2636 72.8214 33.4583 72.3764 33.6668L74.1702 30.9559C74.5596 30.8725 74.8794 30.8169 75.1297 30.803C75.38 30.803 75.6859 30.7891 76.0335 30.7891C78.3139 30.7891 79.8435 31.4008 80.5944 32.6102C80.7195 32.8049 80.8029 32.9717 80.8725 33.1385C80.942 33.3054 80.9976 33.5 81.0254 33.7363C81.0533 33.9727 81.0949 34.2368 81.0949 34.5704C81.0949 34.9041 81.1089 35.3212 81.1089 35.8216V39.2972C81.1089 39.6864 81.1089 40.0062 81.1228 40.2564C81.1367 40.5067 81.1784 40.7152 81.2062 40.8542C81.234 40.9932 81.3174 41.1323 81.4148 41.2574C81.4982 41.3686 81.6234 41.4659 81.7763 41.5771C81.971 41.7301 82.1796 41.8413 82.416 41.8969C82.6662 41.9664 82.9722 42.0081 83.3754 42.022L82.2074 43.7876C81.526 43.732 80.9976 43.6625 80.6361 43.579C80.2746 43.4956 79.9547 43.3566 79.6627 43.1759C79.4541 43.0508 79.2734 42.9117 79.1343 42.7727C78.9953 42.6337 78.884 42.4391 78.8006 42.2305C78.7311 42.022 78.6755 41.7579 78.6477 41.4659C78.6199 41.174 78.606 40.7986 78.606 40.3537V36.8782L78.6477 36.8365L78.6616 36.7948Z" fill="var(--fill-0, #344049)"/>
<path id="Vector_15" d="M88.562 38.5996C88.562 39.3503 88.6038 39.8925 88.6733 40.24C88.7428 40.5876 88.868 40.8795 89.0626 41.1298C89.5632 41.7414 90.2724 42.0612 91.1345 42.0612C91.3431 42.0612 91.5239 42.0612 91.6768 42.0056C91.8298 41.9639 92.0244 41.9222 92.2747 41.8249L90.8842 43.7434C90.6895 43.8129 90.5366 43.8546 90.4114 43.8685C90.2863 43.8685 90.1194 43.8824 89.9108 43.8824C89.3546 43.8824 88.8401 43.7712 88.3952 43.5904C87.9502 43.4097 87.5192 43.1039 87.1437 42.7007C86.9351 42.4783 86.7822 42.2697 86.6432 42.0612C86.518 41.8527 86.4206 41.6024 86.3511 41.3244C86.2816 41.0463 86.226 40.6988 86.2121 40.2956C86.1703 39.8925 86.1703 39.4059 86.1703 38.7942V32.8441H84.3349V31.8709C85.2804 31.718 86.0174 31.3287 86.5458 30.7031C87.2133 29.9941 87.5609 28.882 87.5609 27.3805V27.0469H88.6316V31.0646H90.7312C91.1623 31.0646 91.496 31.0646 91.7324 31.0507C91.9549 31.0507 92.1496 30.9951 92.3304 30.9256V33.3445C92.1079 33.1499 91.8993 33.0248 91.6629 32.9553C91.4265 32.8858 91.1067 32.8441 90.6339 32.8441H88.6455V38.5718H88.6037L88.562 38.5996Z" fill="var(--fill-0, #344049)"/>
<path id="Vector_16" d="M97.0042 40.8969C97.0042 41.3279 97.0042 41.6754 97.0181 41.9396C97.032 42.2037 97.0738 42.4122 97.1433 42.5791C97.2129 42.7459 97.3242 42.9127 97.4633 43.0517C97.6025 43.1907 97.7972 43.3437 98.0199 43.5383H93.5259C93.7764 43.3437 93.9433 43.1907 94.0825 43.0517C94.2216 42.9127 94.3329 42.7598 94.4025 42.5791C94.472 42.3983 94.5138 42.1759 94.5277 41.9396C94.5277 41.6754 94.5416 41.3279 94.5416 40.8969V33.779C94.5416 33.3619 94.5416 33.0144 94.5277 32.7502C94.5138 32.4861 94.472 32.2637 94.4025 32.0829C94.3329 31.9022 94.2216 31.7493 94.0825 31.6103C93.9433 31.4712 93.7485 31.3183 93.5259 31.1237H95.3903C95.7938 31.1237 96.0998 31.082 96.3503 31.0125C96.6007 30.943 96.8094 30.8039 96.9903 30.6093V40.9108L97.0042 40.8969ZM95.7381 26.1328C96.1694 26.1328 96.559 26.2857 96.8929 26.6333C97.2268 26.9669 97.3799 27.3423 97.3799 27.8011C97.3799 28.2598 97.2268 28.6769 96.8929 29.0106C96.559 29.3442 96.1555 29.4971 95.6825 29.4971C95.2094 29.4971 94.8198 29.3442 94.5138 29.0106C94.2077 28.6769 94.0268 28.3015 94.0268 27.8011C94.0268 27.3006 94.1798 26.9391 94.5138 26.6333C94.8477 26.2996 95.2511 26.1467 95.7381 26.1467V26.1328Z" fill="var(--fill-0, #344049)"/>
<path id="Vector_17" d="M107.306 30.7656C109.155 30.7656 110.727 31.3356 111.978 32.4895C112.659 33.1151 113.188 33.8519 113.535 34.6582C113.897 35.4785 114.078 36.3404 114.078 37.244C114.078 38.1477 113.883 39.0652 113.535 39.8576C113.174 40.664 112.659 41.373 112.02 41.9847C111.38 42.5963 110.629 43.069 109.753 43.4027C108.877 43.7363 107.932 43.9031 106.93 43.9031C105.929 43.9031 105.025 43.7502 104.191 43.4027C103.357 43.069 102.62 42.6242 102.008 42.0403C101.396 41.4564 100.91 40.7891 100.562 39.9827C100.214 39.2042 100.034 38.3284 100.034 37.383C100.034 36.3543 100.256 35.395 100.701 34.5053C101.146 33.6156 101.772 32.8509 102.564 32.2393C103.246 31.7388 103.955 31.3495 104.733 31.1271C105.512 30.9046 106.36 30.7656 107.348 30.7656H107.306ZM106.875 32.559C106.263 32.559 105.693 32.6702 105.192 32.8927C104.692 33.1151 104.247 33.4209 103.899 33.8241C103.538 34.2273 103.26 34.6999 103.037 35.256C102.828 35.8121 102.717 36.4238 102.717 37.0911C102.717 37.8001 102.828 38.4813 103.051 39.1208C103.273 39.7464 103.579 40.2747 103.983 40.7196C104.386 41.1505 104.845 41.5259 105.359 41.7622C105.888 42.0264 106.472 42.1515 107.111 42.1515C107.751 42.1515 108.293 42.0403 108.822 41.8317C109.35 41.6232 109.781 41.3034 110.143 40.9003C110.504 40.4971 110.81 40.0245 111.005 39.4684C111.213 38.9262 111.325 38.3145 111.325 37.6333C111.325 36.8687 111.213 36.1736 111.005 35.5341C110.796 34.8946 110.476 34.3802 110.101 33.9353C109.725 33.4904 109.225 33.1568 108.682 32.9066C108.14 32.6563 107.528 32.5451 106.847 32.5451H106.861L106.875 32.559Z" fill="var(--fill-0, #344049)"/>
<path id="Vector_18" d="M119.514 32.8285C120.154 32.0639 120.794 31.5217 121.378 31.202C121.99 30.8822 122.685 30.7293 123.477 30.7293C124.353 30.7293 125.16 30.9101 125.897 31.2576C126.634 31.6052 127.204 32.0778 127.607 32.6478C127.732 32.8425 127.83 33.0371 127.927 33.2456C128.01 33.4541 128.08 33.7044 128.136 33.9824C128.191 34.2605 128.219 34.5941 128.247 34.9556C128.275 35.317 128.261 35.7758 128.261 36.2763V40.8501C128.261 41.281 128.261 41.6286 128.275 41.8927C128.289 42.1569 128.33 42.3654 128.4 42.5322C128.469 42.713 128.581 42.8659 128.72 43.0049C128.859 43.1439 129.053 43.2969 129.276 43.4915H124.784C125.007 43.2969 125.202 43.1439 125.341 43.0049C125.48 42.8659 125.591 42.713 125.661 42.5322C125.73 42.3515 125.772 42.1291 125.786 41.8649C125.8 41.6008 125.8 41.2532 125.8 40.8362V36.5404C125.8 35.8314 125.758 35.2614 125.674 34.8583C125.591 34.4551 125.424 34.1075 125.216 33.8295C124.951 33.4959 124.576 33.2178 124.075 32.9954C123.575 32.7729 123.06 32.6756 122.518 32.6756C121.976 32.6756 121.489 32.7868 121.03 32.9954C120.571 33.2039 120.224 33.4959 119.987 33.8573C119.848 34.0519 119.765 34.2466 119.709 34.469C119.653 34.6914 119.64 34.9973 119.64 35.4004V40.8501C119.64 41.281 119.64 41.6286 119.653 41.8927C119.667 42.1569 119.709 42.3654 119.779 42.5322C119.848 42.713 119.932 42.8659 120.071 43.0049C120.21 43.1439 120.39 43.2969 120.613 43.4915H116.149C116.4 43.2969 116.567 43.1439 116.706 43.0049C116.845 42.8659 116.956 42.713 117.025 42.5322C117.095 42.3515 117.137 42.1291 117.151 41.8927C117.151 41.6286 117.164 41.281 117.164 40.8501V33.7322C117.164 33.3151 117.164 32.9676 117.151 32.7034C117.137 32.4393 117.095 32.2169 117.025 32.0361C116.956 31.8554 116.845 31.7025 116.706 31.5635C116.567 31.4244 116.372 31.2715 116.149 31.0769H117.901C118.305 31.0769 118.611 31.0352 118.861 30.9657C119.111 30.8962 119.32 30.7571 119.501 30.5625V32.8146L119.514 32.8285Z" fill="var(--fill-0, #344049)"/>
<path id="Vector_19" d="M139.26 36.7948C139.01 36.906 138.829 36.9894 138.662 37.0589C138.495 37.1284 138.314 37.198 138.092 37.2675C137.869 37.337 137.591 37.4065 137.23 37.4899C136.868 37.5733 136.409 37.6845 135.812 37.8235C134.518 38.1433 133.879 38.8245 133.879 39.895C133.879 40.5901 134.129 41.1323 134.63 41.5215C135.13 41.9108 135.839 42.0915 136.743 42.0915C137.091 42.0915 137.411 42.0776 137.689 42.022C137.967 41.9664 138.328 41.883 138.787 41.744L137.202 43.7737C136.91 43.8432 136.66 43.8849 136.465 43.8988C136.256 43.8988 136.006 43.9127 135.728 43.9127C134.365 43.9127 133.309 43.5651 132.53 42.87C132.099 42.4808 131.751 42.0081 131.501 41.4937C131.251 40.9793 131.139 40.4232 131.139 39.895C131.139 39.3667 131.278 38.7967 131.543 38.3101C131.821 37.8235 132.168 37.4343 132.641 37.1701C132.836 37.0589 133.03 36.9755 133.211 36.8921C133.392 36.8087 133.642 36.7114 133.92 36.628C134.199 36.5446 134.491 36.475 134.866 36.3777C135.241 36.2804 135.645 36.2248 136.159 36.1136C136.757 35.9885 137.244 35.8633 137.647 35.766C138.036 35.6548 138.342 35.5158 138.579 35.3768C138.815 35.2377 138.968 35.057 139.065 34.8902C139.149 34.7095 139.204 34.5009 139.204 34.2646C139.204 33.7641 138.954 33.3332 138.495 33.0273C138.022 32.7076 137.397 32.5546 136.632 32.5546C136.354 32.5546 136.076 32.5685 135.812 32.6102C135.547 32.6519 135.283 32.6937 135.033 32.791C134.783 32.8883 134.463 32.9856 134.129 33.1246C133.795 33.2636 133.42 33.4583 132.975 33.6668L134.769 30.9559C135.158 30.8725 135.478 30.8169 135.728 30.803C135.978 30.803 136.284 30.7891 136.632 30.7891C138.912 30.7891 140.442 31.4008 141.193 32.6102C141.318 32.8049 141.401 32.9717 141.471 33.1385C141.54 33.3054 141.596 33.5 141.624 33.7363C141.652 33.9727 141.693 34.2368 141.693 34.5704C141.693 34.9041 141.707 35.3212 141.707 35.8216V39.2972C141.707 39.6864 141.707 40.0062 141.721 40.2564C141.735 40.5067 141.777 40.7152 141.805 40.8542C141.846 41.0071 141.916 41.1323 142.013 41.2574C142.097 41.3686 142.222 41.4659 142.375 41.5771C142.569 41.7301 142.778 41.8413 143.014 41.8969C143.265 41.9664 143.571 42.0081 143.974 42.022L142.806 43.7876C142.124 43.732 141.596 43.6625 141.234 43.579C140.873 43.4956 140.553 43.3566 140.261 43.1759C140.053 43.0508 139.872 42.9117 139.733 42.7727C139.594 42.6337 139.482 42.4391 139.399 42.2305C139.329 42.022 139.274 41.7579 139.246 41.4659C139.218 41.174 139.204 40.7986 139.204 40.3537V36.8782L139.246 36.8365L139.26 36.7948Z" fill="var(--fill-0, #344049)"/>
<path id="Vector_20" d="M145.128 43.5248C145.379 43.3301 145.546 43.1772 145.685 43.0382C145.824 42.8992 145.935 42.7463 146.005 42.5655C146.074 42.3848 146.116 42.1624 146.13 41.926C146.13 41.6619 146.144 41.3143 146.144 40.8834V28.4548C146.144 28.0239 146.144 27.6763 146.13 27.4122C146.116 27.148 146.06 26.9395 146.005 26.7727C145.935 26.592 145.824 26.439 145.685 26.3C145.546 26.161 145.351 26.0081 145.128 25.8134H146.993C147.396 25.8134 147.702 25.7717 147.953 25.6883C148.203 25.6049 148.412 25.4798 148.593 25.2852V40.8834C148.593 41.3143 148.593 41.6619 148.607 41.926C148.62 42.1902 148.662 42.3987 148.732 42.5655C148.801 42.7463 148.913 42.8992 149.052 43.0382C149.191 43.1772 149.386 43.3301 149.608 43.5248H145.1H145.114H145.128Z" fill="var(--fill-0, #344049)"/>
<path id="Vector_21" d="M15.3652 54.2186C14.7533 53.6626 14.072 53.2455 13.3211 52.9953C12.5702 52.7311 11.6664 52.606 10.5957 52.606C9.52501 52.606 8.48213 52.7867 7.5644 53.1343C6.64666 53.4818 5.85405 53.9684 5.18661 54.594C4.51916 55.2196 4.00468 55.9703 3.62924 56.8601C3.2538 57.7498 3.07304 58.6951 3.07304 59.7378C3.07304 60.7805 3.2816 61.7814 3.68485 62.699C4.0881 63.6304 4.64431 64.4228 5.33957 65.104C6.03482 65.7852 6.86913 66.3413 7.81468 66.7445C8.76023 67.1476 9.7892 67.3423 10.8738 67.3423C11.5134 67.3423 12.1809 67.2867 12.8761 67.2033C13.5714 67.1198 14.1276 66.9947 14.5587 66.8418V63.2689C14.5587 62.699 14.5587 62.2263 14.503 61.837C14.4613 61.4756 14.4196 61.1558 14.3223 60.8917C14.2389 60.6275 14.1137 60.419 13.9607 60.2661C13.8078 60.1132 13.5992 59.9463 13.3489 59.8073H17.437C17.3258 60.141 17.2841 60.6831 17.2841 61.3922V67.1198C17.2841 67.5369 17.2841 67.8289 17.3258 67.9957C17.3258 68.1486 17.3814 68.3293 17.4509 68.4962C17.2563 68.5101 17.1172 68.5379 17.0338 68.5379C16.9504 68.5379 16.7696 68.5935 16.5054 68.663C15.8936 68.7881 15.3374 68.8854 14.8507 68.9827C14.364 69.08 13.9051 69.1357 13.488 69.1913C13.0708 69.2469 12.6676 69.2747 12.2643 69.3025C11.8611 69.3025 11.4439 69.3164 11.0129 69.3164C9.52501 69.3164 8.21792 69.1635 7.04989 68.8576C5.89576 68.5379 4.83899 68.0791 3.89344 67.4257C2.65588 66.5638 1.69642 65.5211 1.01507 64.2699C0.333717 63.0187 0 61.6285 0 60.1271C0 58.6256 0.361539 57.1659 1.0707 55.873C1.77986 54.5801 2.79493 53.4957 4.12983 52.606C5.10319 51.9665 6.15998 51.466 7.2863 51.1602C8.41261 50.8543 9.69188 50.6875 11.1102 50.6875C11.4717 50.6875 11.8194 50.6875 12.1531 50.7014C12.4868 50.7153 12.7927 50.7431 13.1264 50.7709C13.4602 50.7987 13.7939 50.8543 14.1554 50.9099C14.5169 50.9794 14.9202 51.049 15.3652 51.1185V54.2047H15.3791L15.3652 54.2186Z" fill="var(--fill-0, #344049)"/>
<path id="Vector_22" d="M20.2885 68.8509C20.5388 68.6562 20.7057 68.5033 20.8447 68.3643C20.9838 68.2253 21.095 68.0723 21.1645 67.8916C21.2341 67.7109 21.2758 67.4885 21.2897 67.2521C21.2897 66.988 21.3036 66.6404 21.3036 66.2095V59.0916C21.3036 58.6745 21.3036 58.3269 21.2897 58.0628C21.2758 57.7987 21.2341 57.5762 21.1645 57.3955C21.095 57.2148 20.9838 57.0619 20.8447 56.9228C20.7057 56.7838 20.511 56.6309 20.2885 56.4363H22.1518C22.555 56.4363 22.8609 56.3945 23.1112 56.325C23.3615 56.2555 23.5701 56.1165 23.7509 55.9219V58.1323C24.4879 56.756 25.5446 56.0609 26.963 56.0609C27.2133 56.0609 27.5192 56.1026 27.9085 56.1721V58.6467C27.5887 58.3687 27.1715 58.2157 26.6292 58.2157C26.1565 58.2157 25.6976 58.3269 25.2804 58.5077C24.8633 58.7023 24.5296 58.9803 24.3071 59.314C23.9177 59.8423 23.7509 60.6625 23.7509 61.7608V66.2095C23.7509 66.6404 23.7509 66.988 23.7648 67.2521C23.7787 67.5163 23.8204 67.7248 23.8899 67.8916C23.9594 68.0584 24.0707 68.2253 24.2098 68.3643C24.3488 68.5033 24.5435 68.6562 24.7659 68.8509H20.2607H20.2746H20.2885Z" fill="var(--fill-0, #344049)"/>
<path id="Vector_23" d="M36.4589 56.0586C38.3083 56.0586 39.8796 56.6286 41.131 57.7825C41.8124 58.4081 42.3408 59.1449 42.6884 59.9512C43.0499 60.7714 43.2307 61.6334 43.2307 62.537C43.2307 63.4406 43.036 64.3582 42.6884 65.1506C42.3269 65.9569 41.8124 66.6659 41.1727 67.2776C40.5331 67.8893 39.7822 68.362 38.9062 68.6956C38.0302 69.0293 37.0846 69.1961 36.0835 69.1961C35.0823 69.1961 34.1784 69.0432 33.3441 68.6956C32.5098 68.362 31.7729 67.9171 31.161 67.3332C30.5492 66.7493 30.0625 66.082 29.7149 65.2757C29.3673 64.4972 29.1865 63.6214 29.1865 62.676C29.1865 61.6473 29.409 60.688 29.854 59.7983C30.285 58.8946 30.9247 58.1439 31.7172 57.5322C32.3986 57.0317 33.1078 56.6425 33.8864 56.42C34.6651 56.1976 35.5133 56.0586 36.5006 56.0586H36.4589ZM36.0278 57.852C35.416 57.852 34.8459 57.9632 34.3453 58.1856C33.8447 58.4081 33.3998 58.7139 33.0521 59.1171C32.6906 59.5202 32.4125 59.9929 32.19 60.549C31.9675 61.1051 31.8702 61.7168 31.8702 62.3841C31.8702 63.0931 31.9815 63.7743 32.2039 64.4138C32.4264 65.0533 32.7323 65.5677 33.1356 66.0125C33.5388 66.4435 33.9977 66.8189 34.5122 67.0552C35.0267 67.2915 35.6246 67.4444 36.2642 67.4444C36.9039 67.4444 37.4462 67.3332 37.9746 67.1247C38.5029 66.9162 38.934 66.5964 39.2955 66.1933C39.6571 65.7901 39.963 65.3174 40.1577 64.7613C40.3662 64.2192 40.4775 63.6075 40.4775 62.9263C40.4775 62.1616 40.3662 61.4665 40.1577 60.827C39.9491 60.1875 39.6293 59.6731 39.2538 59.2283C38.8506 58.7973 38.3778 58.4498 37.8355 58.1995C37.2932 57.9493 36.6814 57.8381 36 57.8381H36.0139L36.0278 57.852Z" fill="var(--fill-0, #344049)"/>
<path id="Vector_24" d="M54.9253 67.0615C54.6055 67.4647 54.2996 67.8122 54.0215 68.0903C53.7434 68.3683 53.4514 68.5769 53.1455 68.7298C52.8396 68.8827 52.5337 69.0078 52.1861 69.0773C51.8523 69.1468 51.4769 69.1886 51.0319 69.1886C50.1281 69.1886 49.3355 69.0078 48.6402 68.6881C47.945 68.3544 47.4027 67.8817 47.0134 67.2701C46.7352 66.8391 46.5266 66.3664 46.4154 65.852C46.3042 65.3238 46.2625 64.6704 46.2625 63.8501V59.0122C46.2625 58.5951 46.2625 58.2476 46.2485 57.9834C46.2346 57.7193 46.179 57.4968 46.1234 57.3161C46.0678 57.1354 45.9426 56.9825 45.8036 56.8434C45.6645 56.7044 45.4699 56.5515 45.2474 56.3569H47.0968C47.5139 56.3569 47.8337 56.3152 48.0701 56.2317C48.3065 56.1483 48.529 56.0232 48.7098 55.8286V63.3357C48.7098 64.0031 48.7654 64.5452 48.8627 64.9623C48.96 65.3794 49.1269 65.7269 49.3633 66.0328C49.6275 66.3664 49.9751 66.6028 50.3923 66.7835C50.8094 66.9642 51.2683 67.0476 51.755 67.0476C52.7005 67.0476 53.4514 66.7557 54.0076 66.1579C54.5638 65.5601 54.8419 64.7955 54.8419 63.8223V58.9844C54.8419 58.5673 54.8419 58.2198 54.828 57.9556C54.8141 57.6915 54.7724 57.469 54.7029 57.2883C54.6334 57.1076 54.5499 56.9547 54.4108 56.8156C54.2718 56.6766 54.091 56.5237 53.8686 56.3291H55.7596C56.149 56.3291 56.4549 56.2874 56.6913 56.2039C56.9277 56.1205 57.1223 55.9954 57.317 55.8008V66.1023C57.317 66.5332 57.317 66.8808 57.3309 67.1449C57.3448 67.4091 57.3865 67.6176 57.4561 67.8122C57.5256 67.993 57.6368 68.1459 57.7759 68.2849C57.9149 68.4239 58.1096 68.5769 58.3321 68.7715H54.9671V67.0059L54.9114 67.0615H54.9253Z" fill="var(--fill-0, #344049)"/>
<path id="Vector_25" d="M64.2974 66.676C64.8675 66.9541 65.3959 67.1487 65.827 67.246C66.2581 67.3433 66.7725 67.3989 67.3148 67.3989C68.6636 67.3989 69.7065 66.9958 70.4435 66.1756C71.1805 65.3553 71.542 64.2015 71.542 62.7C71.542 61.991 71.4308 61.3237 71.25 60.7259C71.0692 60.1281 70.7772 59.6138 70.4157 59.1967C70.0542 58.7657 69.637 58.4321 69.1225 58.1957C68.6219 57.9455 68.0518 57.8343 67.44 57.8343C66.8281 57.8343 66.2302 57.9594 65.6879 58.2235C65.1317 58.4877 64.6729 58.8352 64.2974 59.3079C64.0471 59.6277 63.8942 59.9474 63.7968 60.3367C63.6995 60.7259 63.6439 61.2125 63.6439 61.8242V71.7781C63.6439 72.1952 63.6439 72.5566 63.6856 72.8486C63.7273 73.1405 63.7551 73.3769 63.8385 73.5437C63.9081 73.7383 64.0193 73.8912 64.1306 74.0164C64.2418 74.1415 64.4226 74.2666 64.6311 74.3778H60.1676C60.3901 74.2527 60.5709 74.1276 60.696 74.0164C60.8212 73.9051 60.9185 73.7383 61.0158 73.5437C61.1131 73.3491 61.141 73.1266 61.1688 72.8625C61.2105 72.5844 61.2105 72.2369 61.2105 71.7781V59.0855C61.2105 58.6684 61.2105 58.3209 61.1966 58.0567C61.1827 57.7926 61.127 57.5701 61.0714 57.3894C61.0158 57.2087 60.8906 57.0558 60.7516 56.9167C60.6125 56.7777 60.4179 56.6248 60.1954 56.4302H62.0587C62.4619 56.4302 62.7678 56.3885 63.0181 56.3189C63.2684 56.2494 63.477 56.1104 63.6578 55.9297V58.0289C64.1306 57.4311 64.7702 56.9584 65.5628 56.6109C66.3554 56.2633 67.1897 56.0826 68.0796 56.0826C68.9 56.0826 69.7065 56.2633 70.5269 56.5831C71.3473 56.9028 72.0287 57.3616 72.5849 57.9455C73.1272 58.5016 73.5443 59.1828 73.8363 59.9752C74.1284 60.7676 74.2952 61.6018 74.2952 62.4776C74.2952 63.4507 74.1423 64.3405 73.8085 65.1607C73.4748 65.9809 73.0437 66.6899 72.4458 67.3016C71.8757 67.9133 71.1944 68.386 70.3879 68.7196C69.6092 69.0533 68.7331 69.2201 67.7876 69.2201C67.3983 69.2201 67.0506 69.2062 66.7586 69.1506C66.4666 69.095 66.1329 69.0116 65.7297 68.8726L64.2835 66.7038L64.3252 66.6482L64.2974 66.676Z" fill="var(--fill-0, #344049)"/>
</g>
</svg>
