<svg preserveAspectRatio="none" width="100%" height="100%" overflow="visible" style="display: block;" viewBox="0 0 51 55" fill="none" xmlns="http://www.w3.org/2000/svg">
<g id="Group">
<path id="Vector" d="M48.2375 42.3423H2.7625C1.23636 42.3423 0 43.5934 0 45.1377V52.2045C0 53.7489 1.23636 55 2.7625 55H48.2375C49.7636 55 51 53.7489 51 52.2045V45.1377C51 43.5934 49.7636 42.3423 48.2375 42.3423ZM7.55341 51.4128L5.74716 50.4549L3.94091 51.4128L4.28864 49.3798L2.83011 47.943L4.84886 47.6497L5.74716 45.8024L6.64545 47.6497L8.66421 47.943L7.20568 49.3798L7.55341 51.4128ZM15.5898 51.4128L13.7835 50.4549L11.9773 51.4128L12.325 49.3798L10.8665 47.943L12.8852 47.6497L13.7835 45.8024L14.6818 47.6497L16.7006 47.943L15.242 49.3798L15.5898 51.4128ZM23.6165 51.4128L21.8102 50.4549L20.004 51.4128L20.3517 49.3798L18.8932 47.943L20.9119 47.6497L21.8102 45.8024L22.7085 47.6497L24.7273 47.943L23.2688 49.3798L23.6165 51.4128ZM31.6528 51.4128L29.8466 50.4549L28.0403 51.4128L28.3881 49.3798L26.9295 47.943L28.9483 47.6497L29.8466 45.8024L30.7449 47.6497L32.7636 47.943L31.3051 49.3798L31.6528 51.4128ZM39.6892 51.4128L37.883 50.4549L36.0767 51.4128L36.4244 49.3798L34.9659 47.943L36.9847 47.6497L37.883 45.8024L38.7813 47.6497L40.8 47.943L39.3415 49.3798L39.6892 51.4128ZM47.3778 49.3798L47.7256 51.4128L45.9193 50.4549L44.1131 51.4128L44.4608 49.3798L43.0023 47.943L45.021 47.6497L45.9193 45.8024L46.8176 47.6497L48.8364 47.943L47.3778 49.3798Z" fill="var(--fill-0, #0D2F57)"/>
<g id="Group_2">
<path id="Vector_2" d="M12.3443 38.6769C8.21989 34.992 5.61193 29.6161 5.61193 23.6147C5.61193 12.5111 14.5273 3.4992 25.5 3.4992C36.4727 3.4992 45.3784 12.5111 45.3784 23.6147C45.3784 29.6161 42.7608 34.9822 38.646 38.6769H43.4756C46.8273 34.5913 48.8364 29.3425 48.8364 23.6147C48.8364 10.5758 38.3852 0 25.5 0C12.6148 0 2.16364 10.5758 2.16364 23.6147C2.16364 29.3425 4.17273 34.5815 7.52443 38.6769H12.354H12.3443Z" fill="var(--fill-0, #0D2F57)"/>
<path id="Vector_3" d="M32.3676 17.0366C32.3676 20.8584 29.296 23.9764 25.5097 23.9764C21.7233 23.9764 18.6517 20.8681 18.6517 17.0366C18.6517 13.2051 21.7233 10.0969 25.5097 10.0969C29.296 10.0969 32.3676 13.2051 32.3676 17.0366Z" fill="var(--fill-0, #0D2F57)"/>
<path id="Vector_4" d="M20.1199 24.9049C23.8483 26.5959 27.0551 26.5959 30.6386 24.9929C31.3437 24.6801 32.1841 24.7485 32.8216 25.1982C35.0432 26.7425 39.9403 32.4018 36.2506 35.0604C29.0256 40.2799 21.8199 40.231 14.6239 34.9431C13.6 34.2003 13.175 32.8808 13.5517 31.659C14.3824 28.9808 15.9858 26.7914 18.3619 25.0809C18.8739 24.7192 19.5403 24.6508 20.1199 24.9049Z" fill="var(--fill-0, #0D2F57)"/>
</g>
</g>
</svg>
