<svg preserveAspectRatio="none" width="100%" height="100%" overflow="visible" style="display: block;" viewBox="0 0 48.0911 38.5236" fill="none" xmlns="http://www.w3.org/2000/svg">
<g id="Group">
<path id="Vector" d="M7.88021 14.5637C7.88021 14.5637 7.88021 14.5363 7.88021 14.5181V12.021C7.88021 11.4286 7.42523 10.9182 6.83376 10.8909C6.48798 10.8726 6.1786 11.0185 5.96021 11.2554C5.96021 11.2554 5.96021 11.2554 5.95111 11.2645C5.95111 11.2645 5.95111 11.2645 5.94201 11.2736C5.94201 11.2736 5.93291 11.2828 5.92381 11.2919C5.92381 11.301 5.90561 11.3101 5.89651 11.3192C5.89651 11.3283 5.87831 11.3374 5.87831 11.3465C5.76002 11.5106 5.69632 11.702 5.67812 11.9116C5.67812 11.9207 5.67812 11.9389 5.67812 11.9572C5.67812 11.9663 5.67812 11.9754 5.67812 11.9845V14.4817C5.67812 15.074 6.1331 15.5844 6.72457 15.6118C7.34334 15.6391 7.85291 15.1652 7.87111 14.5546L7.88021 14.5637Z" fill="var(--fill-0, #0D2F57)"/>
<path id="Vector_2" d="M5.68722 24.7528V27.2226C5.68722 27.2226 5.68722 27.2499 5.68722 27.2682C5.68722 27.2864 5.68722 27.2955 5.68722 27.3137C5.70542 27.5234 5.77822 27.7147 5.88741 27.8788C5.88741 27.8879 5.90561 27.897 5.90561 27.9061C5.90561 27.9152 5.92381 27.9244 5.93291 27.9335C5.93291 27.9335 5.94201 27.9426 5.95111 27.9517C5.95111 27.9517 5.95111 27.9517 5.96021 27.9608C5.96021 27.9608 5.96021 27.9608 5.96931 27.9699C6.1513 28.1887 6.42428 28.3345 6.73367 28.3527C7.36154 28.38 7.88931 27.8788 7.88931 27.2591V24.7254C7.88931 24.7254 7.88931 24.689 7.88931 24.6708C7.86201 24.0693 7.35244 23.5954 6.74277 23.6318C6.1513 23.6591 5.69632 24.1695 5.69632 24.7619L5.68722 24.7528Z" fill="var(--fill-0, #0D2F57)"/>
<path id="Vector_3" d="M30.438 18.8107H31.539C31.4754 17.9175 31.2479 17.0791 30.8748 16.3135L29.9284 16.8603C29.8556 16.9059 29.7828 16.9241 29.7009 16.9241C29.5462 16.9241 29.3916 16.8421 29.3097 16.6963C29.1823 16.4776 29.2551 16.2041 29.4734 16.0766L30.4198 15.5297C29.9375 14.8098 29.3188 14.19 28.5999 13.707L28.0539 14.6548C27.972 14.8006 27.8173 14.8827 27.6626 14.8827C27.5898 14.8827 27.5079 14.8644 27.4351 14.8189C27.2168 14.6913 27.144 14.4179 27.2714 14.1991L27.8173 13.2513C27.053 12.8776 26.2158 12.6407 25.3241 12.586V13.6797C25.3241 13.9257 25.1239 14.1262 24.8782 14.1262C24.6325 14.1262 24.4323 13.9257 24.4323 13.6797V12.586C23.5405 12.6498 22.7034 12.8776 21.939 13.2513L22.485 14.1991C22.6124 14.4179 22.5396 14.6913 22.3212 14.8189C22.2484 14.8553 22.1756 14.8827 22.0937 14.8827C21.939 14.8827 21.7843 14.8006 21.7024 14.6548L21.1565 13.707C20.4376 14.19 19.8188 14.8098 19.3365 15.5297L20.2829 16.0766C20.5013 16.2041 20.5741 16.4776 20.4467 16.6963C20.3648 16.8421 20.2101 16.9241 20.0554 16.9241C19.9826 16.9241 19.9007 16.9059 19.8279 16.8603L18.8816 16.3135C18.5085 17.0699 18.2719 17.9175 18.2173 18.8107H19.3092C19.5549 18.8107 19.7642 19.0112 19.7642 19.2572C19.7642 19.5033 19.564 19.7038 19.3092 19.7038H18.2173C18.281 20.5969 18.5085 21.4354 18.8816 22.201L19.8279 21.6541C20.0463 21.5265 20.3193 21.5995 20.4467 21.8182C20.5741 22.0369 20.5013 22.3103 20.2829 22.4379L19.3365 22.9847C19.8188 23.7047 20.4376 24.3244 21.1565 24.8075L21.7024 23.8596C21.8298 23.6409 22.1028 23.568 22.3212 23.6956C22.5396 23.8232 22.6124 24.0966 22.485 24.3153L21.939 25.2632C22.7034 25.6368 23.5405 25.8738 24.4323 25.9285V24.8348C24.4323 24.5887 24.6325 24.3882 24.8782 24.3882C25.1239 24.3882 25.3241 24.5887 25.3241 24.8348V25.9285C26.2158 25.8647 27.053 25.6368 27.8173 25.2632L27.2714 24.3153C27.144 24.0966 27.2168 23.8232 27.4351 23.6956C27.6535 23.568 27.9265 23.6409 28.0539 23.8596L28.5999 24.8075C29.3188 24.3244 29.9375 23.7047 30.4198 22.9847L29.4734 22.4379C29.2551 22.3103 29.1823 22.0369 29.3097 21.8182C29.4371 21.5995 29.71 21.5265 29.9284 21.6541L30.8748 22.201C31.2479 21.4354 31.4845 20.5969 31.539 19.7038H30.438C30.1923 19.7038 29.9921 19.5033 29.9921 19.2572C29.9921 19.0112 30.1923 18.8107 30.438 18.8107ZM24.8782 22.5564C23.0583 22.5564 21.5841 21.08 21.5841 19.2572C21.5841 17.4345 23.0583 15.9581 24.8782 15.9581C25.6061 15.9581 26.2795 16.195 26.8255 16.596L27.6444 16.0674C27.79 15.9763 27.972 16.0128 28.063 16.1586C28.1267 16.2588 28.1267 16.3955 28.063 16.4867L27.5352 17.3069C27.9356 17.8537 28.1722 18.5281 28.1722 19.2572C28.1722 21.08 26.6981 22.5564 24.8782 22.5564Z" fill="var(--fill-0, #0D2F57)"/>
<path id="Vector_4" d="M29.3188 34.2584H6.77917C6.38789 34.2584 6.0694 33.9394 6.0694 33.5475V29.6742C5.05935 29.3734 4.30409 28.453 4.26769 27.3502C4.26769 27.3229 4.26769 27.2864 4.26769 27.2591V24.7254C4.26769 24.7254 4.26769 24.6525 4.26769 24.6161C4.31319 23.5224 5.05935 22.602 6.0694 22.3012V16.9332C5.05935 16.6325 4.30409 15.712 4.26769 14.6093C4.26769 14.5819 4.26769 14.5455 4.26769 14.5181V11.9845C4.26769 11.9845 4.26769 11.9116 4.26769 11.8751C4.31319 10.7815 5.05935 9.86102 6.0694 9.56026V4.95785C6.0694 4.56596 6.38789 4.24698 6.77917 4.24698H41.6669C42.0581 4.24698 42.3766 4.56596 42.3766 4.95785V17.1155C42.9044 16.915 43.4595 16.7965 44.0509 16.7965H48.0911V3.60902C48.0911 1.61312 46.4805 0 44.4877 0H3.53063C1.58332 0 0 1.58578 0 3.53611V34.9875C0 36.9378 1.58332 38.5236 3.53063 38.5236H28.1904L29.3188 34.2584Z" fill="var(--fill-0, #0D2F57)"/>
<path id="Vector_5" d="M30.1832 30.9866C30.7292 28.9177 32.6128 27.4687 34.7512 27.4687H37.5903L39.483 20.3326C39.7286 19.3939 40.2655 18.5919 40.9571 17.9904V5.67783H7.48893V9.56938C8.49898 9.87013 9.24515 10.7815 9.29064 11.8843C9.29064 11.9207 9.29064 11.9572 9.29064 11.9936V14.5272C9.29064 14.5272 9.29064 14.591 9.29064 14.6184C9.25424 15.7211 8.49898 16.6416 7.48893 16.9424V22.3103C8.49898 22.6111 9.24515 23.5224 9.29064 24.6252C9.29064 24.6617 9.29064 24.6981 9.29064 24.7346V27.2682C9.29064 27.2682 9.29064 27.332 9.29064 27.3593C9.25424 28.4621 8.49898 29.3825 7.48893 29.6833V32.8458H29.6918L30.1832 30.9957V30.9866ZM24.8509 27.1497C24.8509 27.1497 24.7963 27.1497 24.769 27.1497C20.474 27.095 16.9889 23.5771 16.9889 19.2663C16.9889 14.9556 20.5195 11.3739 24.8691 11.3739C28.5999 11.3739 31.7392 13.9895 32.5491 17.4801C32.5582 17.5347 32.5764 17.5894 32.5855 17.6532C32.6947 18.1636 32.7493 18.7013 32.7493 19.2481C32.7493 23.5498 29.3279 27.0403 25.0602 27.1497C25.0329 27.1497 24.9965 27.1497 24.9692 27.1497C24.9328 27.1497 24.8964 27.1497 24.86 27.1497H24.8509Z" fill="var(--fill-0, #0D2F57)"/>
</g>
</svg>
