<svg preserveAspectRatio="none" width="100%" height="100%" overflow="visible" style="display: block;" viewBox="0 0 76.0074 40.0097" fill="none" xmlns="http://www.w3.org/2000/svg">
<g id="Group">
<path id="Vector" d="M43.1473 37.8561C43.0022 37.1705 43.447 36.4944 44.1433 36.3592C49.0269 35.3646 53.3689 32.8247 56.5795 29.1067L55.5158 28.9908C54.8195 28.9136 54.3069 28.2859 54.3843 27.5905C54.4617 26.8856 55.0903 26.3834 55.7865 26.4606L59.1325 26.818C59.1325 26.818 59.1518 26.818 59.1712 26.8276C59.2872 26.8469 59.4033 26.8759 59.5193 26.9242C59.5193 26.9242 59.5387 26.9338 59.5483 26.9338C59.616 26.9628 59.674 27.0014 59.7417 27.0401C59.7707 27.0594 59.7998 27.0884 59.8288 27.1173C59.8481 27.127 59.8578 27.1367 59.8771 27.156C59.9642 27.2332 60.0318 27.3201 60.0899 27.4167C60.0995 27.436 60.1092 27.4457 60.1189 27.465C60.1769 27.5712 60.2156 27.6775 60.2446 27.7837C60.2446 27.7837 60.2446 27.803 60.2543 27.8127L61.0472 31.5017C61.1053 31.7528 61.0763 32.0039 60.9892 32.2356C60.8345 32.6219 60.5057 32.9213 60.0705 33.0179C59.3839 33.1627 58.707 32.7282 58.5523 32.0425L58.3202 30.9802C54.7615 34.9976 49.9939 37.7692 44.6462 38.8508C43.9596 38.9957 43.2826 38.5418 43.1473 37.8561Z" fill="var(--fill-0, #0D2F57)"/>
<g id="Group_2">
<path id="Vector_2" d="M37.7221 30.8257C37.3063 29.2612 35.8848 28.17 34.2698 28.17H30.1405L27.8486 19.5365C27.4328 17.972 26.0112 16.8807 24.3963 16.8807H15.7025C14.0876 16.8807 12.666 17.972 12.2502 19.5365L9.9583 28.17H5.82902C4.21405 28.17 2.7925 29.2612 2.37667 30.8257L0.00741149 39.662C-0.0119294 39.7393 0.00741149 39.8358 0.0557637 39.9034C0.104116 39.971 0.19115 40.0097 0.278184 40.0097H39.811C39.898 40.0097 39.9753 39.971 40.0334 39.9034C40.0817 39.8358 40.1011 39.7489 40.0817 39.662L37.7318 30.8257H37.7221ZM17.9654 30.8257C17.7237 29.9276 17.1434 29.1936 16.3988 28.7204H23.7097C22.9554 29.184 22.3751 29.9276 22.1431 30.8257L20.0542 38.6673L17.9654 30.8257Z" fill="var(--fill-0, #0D2F57)"/>
<path id="Vector_3" d="M25.1215 23.1L24.4059 20.1255C24.2899 19.662 24.6864 19.1695 25.2859 19.0246C25.8855 18.8798 26.4561 19.1405 26.5721 19.6137L27.2877 22.5881C27.4038 23.0517 27.0073 23.5442 26.4077 23.689C25.8082 23.8339 25.2376 23.5732 25.1215 23.1Z" fill="var(--fill-0, white)"/>
<path id="Vector_4" d="M34.821 34.4085L34.1054 31.4341C33.9893 30.9705 34.3858 30.478 34.9854 30.3332C35.585 30.1883 36.1555 30.4491 36.2716 30.9223L36.9872 33.8967C37.1032 34.3602 36.7067 34.8527 36.1072 34.9976C35.5076 35.1424 34.937 34.8817 34.821 34.4085Z" fill="var(--fill-0, white)"/>
<path id="Vector_5" d="M14.8902 34.0705L14.1746 31.0961C14.0586 30.6325 14.4551 30.14 15.0546 29.9952C15.6542 29.8503 16.2247 30.1111 16.3408 30.5843L17.0564 33.5587C17.1724 34.0222 16.776 34.5147 16.1764 34.6596C15.5768 34.8044 15.0063 34.5437 14.8902 34.0705Z" fill="var(--fill-0, white)"/>
</g>
<g id="Group_3">
<path id="Vector_6" d="M32.4324 3.92081V23.2641H72.6614V3.92081H32.4324ZM52.5566 19.3723C49.1623 19.3723 46.4159 16.62 46.4159 13.24C46.4159 9.85997 49.1719 7.09802 52.5566 7.09802C55.9413 7.09802 58.707 9.85031 58.707 13.24C58.707 16.6296 55.9509 19.3723 52.5566 19.3723Z" fill="var(--fill-0, #0D2F57)"/>
<path id="Vector_7" d="M54.7905 15.6156L54.5874 15.7315C54.4423 15.8184 53.9105 16.0888 53.2722 16.0888C52.6726 16.0888 52.1601 15.8764 51.783 15.4804C51.5122 15.1811 51.3284 14.7755 51.2317 14.2733H54.452V13.3559H51.1157V13.3269C51.1157 13.2303 51.1157 13.1241 51.1254 13.0275H54.452V12.0908H51.2898C51.4155 11.5983 51.6186 11.2023 51.8893 10.9319C52.2471 10.5553 52.7113 10.3621 53.2722 10.3621C53.7944 10.3621 54.2393 10.5167 54.4713 10.6615L54.6648 10.7774L55.0032 9.65717L54.8775 9.58957C54.6067 9.44471 54.0362 9.20328 53.2625 9.20328C52.3148 9.20328 51.5025 9.54128 50.8546 10.2076C50.3807 10.7001 50.0423 11.3472 49.8876 12.0908H49.0946V13.0275H49.7618C49.7618 13.1338 49.7522 13.24 49.7522 13.3559H49.0946V14.2733H49.8295C49.9552 15.0555 50.2357 15.7026 50.6805 16.1854C51.2801 16.8904 52.1601 17.267 53.1465 17.267C54.1329 17.267 54.7324 16.9097 54.9549 16.7552L55.0612 16.6876L54.7711 15.6253L54.7905 15.6156Z" fill="var(--fill-0, #0D2F57)"/>
<path id="Vector_8" d="M76.0074 0H35.7784V3.05167H73.4641V19.3433H75.9977V0H76.0074Z" fill="var(--fill-0, #0D2F57)"/>
</g>
</g>
</svg>
