<svg preserveAspectRatio="none" width="100%" height="100%" overflow="visible" style="display: block;" viewBox="0 0 37.7225 21.8273" fill="none" xmlns="http://www.w3.org/2000/svg">
<g id="Group">
<path id="Vector" d="M35.477 13.1602C35.0857 11.6838 33.7481 10.6539 32.2285 10.6539H28.343L26.1864 2.50627C25.7951 1.02985 24.4575 0 22.9378 0H14.7573C13.2377 0 11.9001 1.02985 11.5088 2.50627L9.35221 10.6539H5.46671C3.94708 10.6539 2.60945 11.6838 2.21817 13.1602L0.00697407 21.4992C-0.011225 21.5721 0.00697338 21.6632 0.0524711 21.727C0.0979689 21.7908 0.179868 21.8273 0.261764 21.8273H37.4607C37.5426 21.8273 37.6154 21.7908 37.67 21.727C37.7155 21.6632 37.7337 21.5812 37.7155 21.4992L35.5043 13.1602H35.477ZM16.8775 13.1602C16.6501 12.3126 16.1041 11.62 15.4034 11.1734H22.2827C21.5729 11.6108 21.0269 12.3126 20.8086 13.1602L18.843 20.5605L16.8775 13.1602Z" fill="var(--fill-0, #0D2F57)"/>
<path id="Vector_2" d="M23.6203 5.86922L22.9469 3.0622C22.8377 2.62474 23.2108 2.15995 23.775 2.02324C24.3392 1.88653 24.8761 2.1326 24.9852 2.57918L25.6586 5.38619C25.7678 5.82365 25.3947 6.28845 24.8306 6.42515C24.2664 6.56186 23.7295 6.31579 23.6203 5.86922Z" fill="var(--fill-0, white)"/>
<path id="Vector_3" d="M32.7381 16.5505L32.0647 13.7434C31.9555 13.306 32.3286 12.8412 32.8928 12.7045C33.4569 12.5678 33.9938 12.8139 34.103 13.2604L34.7764 16.0674C34.8856 16.5049 34.5125 16.9697 33.9483 17.1064C33.3841 17.2431 32.8473 16.997 32.7381 16.5505Z" fill="var(--fill-0, white)"/>
<path id="Vector_4" d="M13.9839 16.2315L13.3105 13.4245C13.2013 12.987 13.5744 12.5222 14.1386 12.3855C14.7028 12.2488 15.2396 12.4949 15.3488 12.9414L16.0222 15.7485C16.1314 16.1859 15.7583 16.6507 15.1941 16.7874C14.63 16.9241 14.0931 16.6781 13.9839 16.2315Z" fill="var(--fill-0, white)"/>
</g>
</svg>
