<svg preserveAspectRatio="none" width="100%" height="100%" overflow="visible" style="display: block;" viewBox="0 0 49.0024 54.9902" fill="none" xmlns="http://www.w3.org/2000/svg">
<g id="Group">
<path id="Vector" d="M30.62 15.6096V32.0597L34.7741 27.9447H49.0024V15.6096H30.62ZM45.5193 25.0222H34.0932C33.8169 25.0222 33.5999 24.8072 33.5999 24.5335C33.5999 24.2598 33.8169 24.0448 34.0932 24.0448H45.5193C45.7956 24.0448 46.0127 24.2598 46.0127 24.5335C46.0127 24.8072 45.7956 25.0222 45.5193 25.0222ZM45.5193 22.2268H34.0932C33.8169 22.2268 33.5999 22.0117 33.5999 21.738C33.5999 21.4644 33.8169 21.2493 34.0932 21.2493H45.5193C45.7956 21.2493 46.0127 21.4644 46.0127 21.738C46.0127 22.0117 45.7956 22.2268 45.5193 22.2268ZM45.5193 19.4411H34.0932C33.8169 19.4411 33.5999 19.2261 33.5999 18.9524C33.5999 18.6787 33.8169 18.4637 34.0932 18.4637H45.5193C45.7956 18.4637 46.0127 18.6787 46.0127 18.9524C46.0127 19.2261 45.7956 19.4411 45.5193 19.4411Z" fill="var(--fill-0, #0D2F57)"/>
<path id="Vector_2" d="M10.7181 9.61791C10.7181 9.19762 11.0634 8.85552 11.4877 8.85552H34.7938C35.2181 8.85552 35.5634 9.19762 35.5634 9.61791V14.1923H37.7342V2.82477C37.7342 1.26089 36.4515 0 34.8826 0H11.3594C9.7807 0 8.50785 1.27066 8.50785 2.82477V20.2524H10.7181V9.60814V9.61791ZM19.2235 3.43078H27.0383C27.3441 3.43078 27.6007 3.67514 27.6007 3.98792C27.6007 4.30069 27.354 4.54505 27.0383 4.54505H19.2235C18.9176 4.54505 18.6611 4.30069 18.6611 3.98792C18.6611 3.67514 18.9078 3.43078 19.2235 3.43078Z" fill="var(--fill-0, #0D2F57)"/>
<path id="Vector_3" d="M35.5733 45.6167C35.5733 46.037 35.2279 46.3791 34.8037 46.3791H11.4877C11.0634 46.3791 10.7181 46.037 10.7181 45.6167V41.9513H8.50785V52.1654C8.50785 53.7293 9.79057 54.9902 11.3594 54.9902H34.8925C36.4712 54.9902 37.7441 53.7196 37.7441 52.1654V29.3229H35.5733V45.6069V45.6167ZM27.5908 51.3151C27.5908 51.6181 27.3441 51.8722 27.0284 51.8722H19.2136C18.9078 51.8722 18.6512 51.6279 18.6512 51.3151V50.0542C18.6512 49.7512 18.8979 49.4971 19.2136 49.4971H27.0284C27.3343 49.4971 27.5908 49.7414 27.5908 50.0542V51.3151Z" fill="var(--fill-0, #0D2F57)"/>
<path id="Vector_4" d="M12.5632 39.7716C13.6782 40.4363 15.2668 40.7295 16.4706 40.7295H16.6087C17.0232 40.7295 17.2304 40.2017 16.9047 39.928C16.1844 39.2829 15.8391 38.8235 15.3753 38.0514C17.1317 36.5168 18.3157 34.3176 18.4736 31.7958C18.7992 27.1237 15.4444 22.9305 10.8167 22.1486C10.2839 22.0606 9.7511 22.0117 9.24788 22.0117C4.46234 22.0117 0.367494 25.6575 0.0221459 30.5642C-0.303468 35.1973 3.00201 39.3904 7.60994 40.2604C8.1625 40.3483 8.72492 40.3972 9.24788 40.3972C10.4023 40.3972 11.5173 40.1724 12.5534 39.7814L12.5632 39.7716ZM11.9515 30.3981C12.4942 30.3981 12.9382 30.8379 12.9382 31.3755C12.9382 31.9131 12.4942 32.3529 11.9515 32.3529C11.4088 32.3529 10.9648 31.9131 10.9648 31.3755C10.9648 30.8379 11.4088 30.3981 11.9515 30.3981ZM6.55416 32.3529C6.01147 32.3529 5.56745 31.9131 5.56745 31.3755C5.56745 30.8379 6.01147 30.3981 6.55416 30.3981C7.09685 30.3981 7.54087 30.8379 7.54087 31.3755C7.54087 31.9131 7.09685 32.3529 6.55416 32.3529ZM8.27104 31.3755C8.27104 30.8379 8.71506 30.3981 9.25775 30.3981C9.80044 30.3981 10.2445 30.8379 10.2445 31.3755C10.2445 31.9131 9.80044 32.3529 9.25775 32.3529C8.71506 32.3529 8.27104 31.9131 8.27104 31.3755Z" fill="var(--fill-0, #0D2F57)"/>
</g>
</svg>
