<svg preserveAspectRatio="none" width="100%" height="100%" overflow="visible" style="display: block;" viewBox="0 0 59.9916 52.9944" fill="none" xmlns="http://www.w3.org/2000/svg">
<g id="Layer 1">
<path id="Vector" d="M35.724 17.6519C36.0656 18.1564 36.6102 18.4683 37.2287 18.505C37.2656 18.505 37.3117 18.505 37.3487 18.505C37.9117 18.505 38.4471 18.2665 38.8256 17.8354L41.1517 15.1753C41.5302 14.735 41.6964 14.1571 41.604 13.5884L41.2164 11.0751L41.8717 10.7082L43.561 12.1483C44.1979 12.6895 45.1117 12.772 45.8317 12.3501L48.924 10.5339C49.404 10.2495 49.7456 9.78172 49.8471 9.23135C49.9487 8.68099 49.8194 8.12145 49.4871 7.68116L44.2071 0.76493C43.6256 0.00359343 42.5456 -0.225725 41.6964 0.242084L37.4133 2.59947C37.0071 2.81962 36.6933 3.18653 36.5271 3.61765L34.7456 8.3416C34.7087 8.43333 34.6902 8.51588 34.6717 8.60761L33.601 13.4325C33.4902 13.9461 33.601 14.4965 33.8871 14.9368L35.7148 17.6336L35.724 17.6519ZM59.281 32.0439L55.561 29.0536C55.1548 28.7234 54.6471 28.5766 54.1302 28.6317L49.5333 29.0628L49.9025 26.3385C49.9487 25.9991 49.9025 25.6414 49.764 25.3203L48.6933 22.7795L49.9671 18.5508C50.1333 18.0005 50.0502 17.4043 49.7271 16.9273C49.404 16.4411 48.8964 16.1292 48.3148 16.065L46.7364 15.8816C45.8502 15.7807 45.0102 16.2852 44.6871 17.1107L43.404 20.3487L38.4564 21.7246L35.2071 21.5778L33.1025 19.5232C32.6317 19.0645 31.9764 18.8719 31.3302 19.0095C30.6933 19.1379 30.1579 19.5782 29.9179 20.1836L29.161 22.0181L25.9025 24.5865L22.8748 26.3293C22.8748 26.3293 22.7825 26.3843 22.7733 26.3935L20.7425 27.7327L17.3548 28.4023C16.8287 28.5032 16.3764 28.8059 16.0902 29.2554C15.804 29.7049 15.7117 30.2369 15.8317 30.7506L16.644 34.2545L14.5948 37.5292L7.41328 35.6213C6.59174 35.4011 5.72405 35.7314 5.26251 36.4468L2.01328 41.4735C1.95789 41.556 1.91174 41.6386 1.87482 41.7303L0.176356 45.4728C-0.0267206 45.9131 -0.054413 46.4084 0.0932793 46.8579L1.48713 51.2241C1.73636 51.9946 2.41943 52.5266 3.23174 52.5725L9.94251 52.9944C9.94251 52.9944 10.0256 52.9944 10.0717 52.9944C10.4317 52.9944 10.7825 52.8935 11.0871 52.7101L16.6902 49.3253C16.9394 49.1786 17.1517 48.9676 17.3179 48.7199L20.1333 44.4088L24.9056 40.8956L30.564 39.7398L35.004 43.253C35.004 43.253 35.0779 43.308 35.0964 43.3264L39.7948 46.6561L38.8164 49.3987C38.5671 50.0958 38.7333 50.8572 39.2502 51.3892C39.7579 51.9212 40.524 52.123 41.2348 51.912L43.3579 51.2791C43.7917 51.1507 44.1702 50.8663 44.4194 50.4903L46.6902 47.0872C47.2071 46.3167 47.0964 45.2893 46.441 44.6381L42.1487 40.3728L40.5517 37.4558L42.2133 37.3733C42.3333 37.3733 42.4533 37.3549 42.564 37.3274L46.1179 36.511L49.7825 40.5103L48.9887 43.4089C48.9333 43.6199 48.9056 43.84 48.924 44.051L49.2102 48.2246C49.2471 48.8117 49.5517 49.3345 50.0317 49.6739L52.9117 51.7102C53.5117 52.1322 54.2871 52.1872 54.9425 51.857C55.5979 51.5176 56.004 50.8572 56.004 50.1325V48.4447C56.004 48.1971 55.9579 47.9586 55.8656 47.7293L54.4902 44.1978L57.9702 41.4551C58.3302 41.1708 58.5887 40.758 58.6717 40.3085L59.9548 33.906C60.0933 33.1905 59.8348 32.4659 59.2717 32.0164L59.281 32.0439ZM31.8194 45.8122C31.6994 45.4453 31.441 45.1517 31.0902 44.9775L28.7364 43.8125C28.284 43.5832 27.7487 43.6107 27.3148 43.8767C26.881 44.1427 26.6225 44.6014 26.6225 45.115V48.6924C26.6225 49.1419 26.8348 49.5638 27.1856 49.839L29.3548 51.5084C29.6225 51.7102 29.9364 51.8111 30.2502 51.8111C30.6564 51.8111 31.0717 51.6369 31.3579 51.3066L32.4933 50.0041C32.8256 49.6189 32.9364 49.0777 32.7702 48.5915L31.8194 45.8213V45.8122ZM12.6471 24.3205H16.6071C16.681 24.3205 16.7548 24.3205 16.8287 24.3113L21.3333 23.7976C21.8687 23.7334 22.3394 23.4674 22.6625 23.0455C22.9856 22.6235 23.124 22.1007 23.041 21.5778L22.441 17.5877C22.4225 17.4409 22.3764 17.2942 22.321 17.1566L21.0933 14.1112C20.8902 13.6159 20.4933 13.2215 19.9856 13.0197C19.4779 12.8179 18.9148 12.8454 18.4348 13.0747L14.9456 14.7258C14.8533 14.7717 14.7702 14.8175 14.6871 14.8726L11.5302 17.0282C10.9948 17.3951 10.681 17.9913 10.681 18.6334V22.385C10.681 23.4582 11.5579 24.3297 12.6379 24.3297L12.6471 24.3205Z" fill="var(--fill-0, #0D2F57)"/>
</g>
</svg>
