<svg preserveAspectRatio="none" width="100%" height="100%" overflow="visible" style="display: block;" viewBox="0 0 46 60" fill="none" xmlns="http://www.w3.org/2000/svg">
<g id="Group">
<path id="Vector" d="M10.7881 24.327C7.8127 24.327 5.01984 24.8203 2.93889 25.7156C1.98056 26.1267 1.20476 26.6108 0.702778 27.1224C0.237302 27.5974 0 28.0725 0 28.5384C0 29.0043 0.237302 29.4884 0.702778 29.9543C1.21389 30.4659 1.98056 30.9592 2.93889 31.3611C5.02897 32.2564 7.8127 32.7497 10.7881 32.7497C13.3984 32.7497 15.8627 32.3752 17.8341 31.6809C18.1171 31.5804 18.3817 31.4799 18.6373 31.3703C19.1484 31.151 19.6048 30.9135 19.9881 30.6577C20.3349 30.4294 20.6361 30.201 20.8734 29.9543C21.3389 29.4884 21.5762 29.0134 21.5762 28.5384C21.5762 28.2826 21.5032 28.0177 21.3663 27.7527C21.2476 27.5426 21.0925 27.3325 20.8825 27.1224C20.5175 26.7479 20.0063 26.3916 19.3857 26.0627C19.1484 25.9348 18.902 25.8252 18.6373 25.7065C17.606 25.268 16.4103 24.9208 15.1052 24.6924C14.4024 24.5646 13.6722 24.4732 12.9147 24.4093C12.7321 24.391 12.5496 24.3819 12.3579 24.3727C12.075 24.3544 11.7829 24.3453 11.4909 24.3362C11.2536 24.3362 11.0163 24.327 10.779 24.327H10.7881Z" fill="var(--fill-0, #0D2F57)"/>
<path id="Vector_2" d="M34.5 11.4647C33.8885 11.9945 33.0944 12.4787 32.1179 12.8898C29.8635 13.8581 26.8698 14.3879 23.7119 14.3879C20.554 14.3879 17.5603 13.8581 15.306 12.8898C14.3385 12.4787 13.5353 11.9945 12.9238 11.4647V13.2552C12.9238 13.7211 13.1611 14.1961 13.6266 14.6711C14.1377 15.1827 14.9044 15.676 15.8627 16.078C17.9528 16.9732 20.7365 17.4665 23.7119 17.4665C26.6873 17.4665 29.4802 16.9732 31.5611 16.078C32.5194 15.6669 33.2952 15.1827 33.7972 14.6711C34.2627 14.2052 34.5 13.7302 34.5 13.2552V11.4738V11.4647Z" fill="var(--fill-0, #0D2F57)"/>
<path id="Vector_3" d="M34.5 6.97929C33.8885 7.50913 33.0944 7.9933 32.1179 8.40438C29.8635 9.37272 26.8698 9.90256 23.7119 9.90256C20.554 9.90256 17.5603 9.37272 15.306 8.40438C14.3385 7.9933 13.5353 7.50913 12.9238 6.97929V8.76979C12.9238 9.23569 13.1611 9.71072 13.6266 10.1857C14.1377 10.6973 14.9044 11.1906 15.8627 11.5926C17.9528 12.4878 20.7365 12.9811 23.7119 12.9811C26.6873 12.9811 29.4802 12.4878 31.5611 11.5926C32.5194 11.1815 33.2952 10.6973 33.7972 10.1857C34.2627 9.71985 34.5 9.24482 34.5 8.76979V6.98843V6.97929Z" fill="var(--fill-0, #0D2F57)"/>
<path id="Vector_4" d="M34.5 15.9501C33.8885 16.4799 33.0944 16.9641 32.1179 17.3752C29.8635 18.3435 26.8698 18.8733 23.7119 18.8733C20.554 18.8733 17.5603 18.3435 15.306 17.3752C14.3385 16.9641 13.5353 16.4799 12.9238 15.9501V17.7406C12.9238 18.2065 13.1611 18.6815 13.6266 19.1565C14.1377 19.6681 14.9044 20.1614 15.8627 20.5633C17.9528 21.4586 20.7365 21.9519 23.7119 21.9519C26.6873 21.9519 29.4802 21.4586 31.5611 20.5633C32.5194 20.1523 33.2952 19.6681 33.7972 19.1565C34.2627 18.6906 34.5 18.2156 34.5 17.7406V15.9592V15.9501Z" fill="var(--fill-0, #0D2F57)"/>
<path id="Vector_5" d="M33.7972 2.79537C33.2861 2.2838 32.5194 1.7905 31.5611 1.38855C29.471 0.493301 26.6873 0 23.7119 0C20.7365 0 17.9436 0.493301 15.8627 1.38855C14.9044 1.79963 14.1286 2.2838 13.6266 2.79537C13.1611 3.26127 12.9329 3.7363 12.9238 4.21133C12.9238 4.68636 13.1611 5.16139 13.6266 5.62728C14.1377 6.13885 14.9044 6.63216 15.8627 7.0341C17.9528 7.92935 20.7365 8.42265 23.7119 8.42265C26.6873 8.42265 29.4802 7.92935 31.5611 7.0341C32.5194 6.62302 33.2952 6.13885 33.7972 5.62728C34.2627 5.16139 34.5 4.68636 34.5 4.21133C34.5 3.7363 34.2627 3.26127 33.7972 2.79537Z" fill="var(--fill-0, #0D2F57)"/>
<path id="Vector_6" d="M34.5 20.4446C33.8885 20.9744 33.0944 21.4586 32.1179 21.8697C29.8635 22.838 26.8698 23.3678 23.7119 23.3678C20.554 23.3678 17.5603 22.838 15.306 21.8697C14.3385 21.4586 13.5353 20.9744 12.9238 20.4446V22.9933C12.9968 22.9933 13.0698 23.0024 13.1337 23.0116C15.4063 23.2034 17.5056 23.6876 19.2032 24.4093C20.1706 24.8203 20.9738 25.3045 21.5853 25.8343C21.7952 26.0171 21.9778 26.1998 22.1421 26.3916C22.6623 26.419 23.1825 26.4373 23.721 26.4373C26.6964 26.4373 29.4893 25.944 31.5702 25.0487C32.5286 24.6376 33.3044 24.1535 33.8063 23.6419C34.2718 23.176 34.5091 22.701 34.5091 22.2259V20.4446H34.5Z" fill="var(--fill-0, #0D2F57)"/>
<path id="Vector_7" d="M34.5 24.93C33.8885 25.4598 33.0944 25.944 32.1179 26.3551C29.8635 27.3234 26.8698 27.8532 23.7119 27.8532C23.4472 27.8532 23.1825 27.8532 22.9179 27.8441C22.9726 28.0725 23 28.3009 23 28.5384V30.9135C23.2373 30.9135 23.4746 30.9227 23.7119 30.9227C26.6873 30.9227 29.4802 30.4294 31.5611 29.5341C32.5194 29.123 33.2952 28.6389 33.7972 28.1273C34.2627 27.6614 34.5 27.1864 34.5 26.7113V24.93Z" fill="var(--fill-0, #0D2F57)"/>
<path id="Vector_8" d="M23 37.5183C23 36.5408 23.4929 35.6181 24.4238 34.8143C25.0353 34.2844 25.8294 33.8002 26.806 33.3892C28.896 32.4939 31.6067 31.9732 34.5091 31.9001V29.4245C33.8976 29.9543 33.1036 30.4385 32.127 30.8496C29.8726 31.8179 26.879 32.3477 23.721 32.3477C23.4837 32.3477 23.2464 32.3477 23.0091 32.3477V37.5274L23 37.5183Z" fill="var(--fill-0, #0D2F57)"/>
<path id="Vector_9" d="M43.0611 34.6955C40.971 33.8002 38.1873 33.3069 35.2119 33.3069C32.2365 33.3069 29.4436 33.8002 27.3627 34.6955C26.4044 35.1066 25.6286 35.5907 25.1266 36.1023C24.6611 36.5682 24.4238 37.0432 24.4238 37.5183C24.4238 37.9933 24.6611 38.4683 25.1266 38.9342C25.6377 39.4458 26.4044 39.9391 27.3627 40.341C29.4528 41.2363 32.2365 41.7296 35.2119 41.7296C38.1873 41.7296 40.9802 41.2363 43.0611 40.341C44.0194 39.93 44.7952 39.4458 45.2972 38.9342C45.7627 38.4683 46 37.9933 46 37.5183C46 37.0432 45.7627 36.5682 45.2972 36.1023C44.7861 35.5907 44.0194 35.0974 43.0611 34.6955Z" fill="var(--fill-0, #0D2F57)"/>
<path id="Vector_10" d="M46 40.2223C45.3885 40.7521 44.5944 41.2363 43.6179 41.6474C41.3635 42.6157 38.3698 43.1456 35.2119 43.1456C32.054 43.1456 29.0603 42.6157 26.806 41.6474C25.8385 41.2363 25.0353 40.7521 24.4238 40.2223V42.0037C24.4238 42.4787 24.6611 42.9537 25.1266 43.4196C25.6377 43.9312 26.4044 44.4245 27.3627 44.8264C29.4528 45.7217 32.2365 46.215 35.2119 46.215C38.1873 46.215 40.9802 45.7217 43.0611 44.8264C44.0194 44.4153 44.7952 43.9312 45.2972 43.4196C45.7627 42.9537 46 42.4787 46 42.0037V40.2223Z" fill="var(--fill-0, #0D2F57)"/>
<path id="Vector_11" d="M25.1175 47.9141C25.6286 48.4257 26.3952 48.919 27.3536 49.321C29.4436 50.2162 32.2274 50.7095 35.2028 50.7095C38.1782 50.7095 40.971 50.2162 43.052 49.321C44.0103 48.9099 44.7861 48.4257 45.2881 47.9141C45.7536 47.4482 45.9909 46.9732 45.9909 46.4982V44.7168C45.3794 45.2466 44.5853 45.7308 43.6087 46.1419C41.3544 47.1102 38.3607 47.6401 35.2028 47.6401C32.0448 47.6401 29.0512 47.1102 26.7968 46.1419C25.8294 45.7308 25.0262 45.2466 24.4147 44.7168V46.4982C24.4147 46.9732 24.652 47.4482 25.1175 47.9141Z" fill="var(--fill-0, #0D2F57)"/>
<path id="Vector_12" d="M25.1175 52.4909C25.6286 53.0024 26.3952 53.4957 27.3536 53.8977C29.4436 54.7929 32.2274 55.2862 35.2028 55.2862C38.1782 55.2862 40.971 54.7929 43.052 53.8977C44.0103 53.4866 44.7861 53.0024 45.2881 52.4909C45.7536 52.025 45.9909 51.5499 45.9909 51.0749V49.2935C45.3794 49.8234 44.5853 50.3076 43.6087 50.7186C41.3544 51.687 38.3607 52.2168 35.2028 52.2168C32.0448 52.2168 29.0512 51.687 26.7968 50.7186C25.8294 50.3076 25.0262 49.8234 24.4147 49.2935V51.0749C24.4147 51.5499 24.652 52.025 25.1175 52.4909Z" fill="var(--fill-0, #0D2F57)"/>
<path id="Vector_13" d="M25.1175 57.0676C25.6286 57.5792 26.3952 58.0725 27.3536 58.4744C29.4436 59.3697 32.2274 59.863 35.2028 59.863C38.1782 59.863 40.971 59.3697 43.052 58.4744C44.0103 58.0633 44.7861 57.5792 45.2881 57.0676C45.7536 56.6017 45.9909 56.1267 45.9909 55.6516V53.8703C45.3794 54.4001 44.5853 54.8843 43.6087 55.2954C41.3544 56.2637 38.3607 56.7935 35.2028 56.7935C32.0448 56.7935 29.0512 56.2637 26.7968 55.2954C25.8294 54.8843 25.0262 54.4001 24.4147 53.8703V55.6516C24.4147 56.1267 24.652 56.6017 25.1175 57.0676Z" fill="var(--fill-0, #0D2F57)"/>
<path id="Vector_14" d="M0.702778 47.9141C1.21389 48.4257 1.98056 48.919 2.93889 49.321C5.02897 50.2162 7.8127 50.7095 10.7881 50.7095C13.7635 50.7095 16.5563 50.2162 18.6373 49.321C19.5956 48.9099 20.3714 48.4257 20.8734 47.9141C21.3389 47.4482 21.5762 46.9732 21.5762 46.4982V44.7168C20.9647 45.2466 20.1706 45.7308 19.194 46.1419C16.9397 47.1102 13.946 47.6401 10.7881 47.6401C7.63016 47.6401 4.63651 47.1102 2.38214 46.1419C1.41468 45.7308 0.611508 45.2466 0 44.7168V46.4982C0 46.9732 0.237302 47.4482 0.702778 47.9141Z" fill="var(--fill-0, #0D2F57)"/>
<path id="Vector_15" d="M0.702778 52.4909C1.21389 53.0024 1.98056 53.4957 2.93889 53.8977C5.02897 54.7929 7.8127 55.2862 10.7881 55.2862C13.7635 55.2862 16.5563 54.7929 18.6373 53.8977C19.5956 53.4866 20.3714 53.0024 20.8734 52.4909C21.3389 52.025 21.5762 51.5499 21.5762 51.0749V49.2935C20.9647 49.8234 20.1706 50.3076 19.194 50.7186C16.9397 51.687 13.946 52.2168 10.7881 52.2168C7.63016 52.2168 4.63651 51.687 2.38214 50.7186C1.41468 50.3076 0.611508 49.8234 0 49.2935V51.0749C0 51.5499 0.237302 52.025 0.702778 52.4909Z" fill="var(--fill-0, #0D2F57)"/>
<path id="Vector_16" d="M0.702778 57.2046C1.21389 57.7162 1.98056 58.2095 2.93889 58.6115C5.02897 59.5067 7.8127 60 10.7881 60C13.7635 60 16.5563 59.5067 18.6373 58.6115C19.5956 58.2004 20.3714 57.7162 20.8734 57.2046C21.3389 56.7387 21.5762 56.2637 21.5762 55.7887V54.0073C20.9647 54.5371 20.1706 55.0213 19.194 55.4324C16.9397 56.4007 13.946 56.9306 10.7881 56.9306C7.63016 56.9306 4.63651 56.4007 2.38214 55.4324C1.41468 55.0213 0.611508 54.5371 0 54.0073V55.7887C0 56.2637 0.237302 56.7387 0.702778 57.2046Z" fill="var(--fill-0, #0D2F57)"/>
<path id="Vector_17" d="M0.702778 43.4287C1.21389 43.9403 1.98056 44.4336 2.93889 44.8356C5.02897 45.7308 7.8127 46.2241 10.7881 46.2241C13.7635 46.2241 16.5563 45.7308 18.6373 44.8356C19.5956 44.4245 20.3714 43.9403 20.8734 43.4287C21.3389 42.9629 21.5762 42.4878 21.5762 42.0128V40.2314C20.9647 40.7613 20.1706 41.2454 19.194 41.6565C16.9397 42.6248 13.946 43.1547 10.7881 43.1547C7.63016 43.1547 4.63651 42.6248 2.38214 41.6565C1.41468 41.2454 0.611508 40.7613 0 40.2314V42.0128C0 42.4878 0.237302 42.9629 0.702778 43.4287Z" fill="var(--fill-0, #0D2F57)"/>
<path id="Vector_18" d="M0.702778 38.9342C1.21389 39.4458 1.98056 39.9391 2.93889 40.341C5.02897 41.2363 7.8127 41.7296 10.7881 41.7296C13.7635 41.7296 16.5563 41.2363 18.6373 40.341C19.5956 39.93 20.3714 39.4458 20.8734 38.9342C21.3389 38.4683 21.5762 37.9933 21.5762 37.5183V35.7369C20.9647 36.2667 20.1706 36.7509 19.194 37.162C16.9397 38.1303 13.946 38.6602 10.7881 38.6602C7.63016 38.6602 4.63651 38.1303 2.38214 37.162C1.41468 36.7509 0.611508 36.2667 0 35.7369V37.5183C0 37.9933 0.237302 38.4683 0.702778 38.9342Z" fill="var(--fill-0, #0D2F57)"/>
<path id="Vector_19" d="M0.702778 34.4488C1.21389 34.9604 1.98056 35.4537 2.93889 35.8557C5.02897 36.7509 7.8127 37.2442 10.7881 37.2442C13.7635 37.2442 16.5563 36.7509 18.6373 35.8557C19.5956 35.4446 20.3714 34.9604 20.8734 34.4488C21.3389 33.9829 21.5762 33.5079 21.5762 33.0329V31.2515C21.2111 31.5621 20.7913 31.8636 20.2984 32.1376C19.9607 32.3295 19.5956 32.5122 19.194 32.6766C16.9397 33.6449 13.946 34.1748 10.7881 34.1748C7.63016 34.1748 4.63651 33.6449 2.38214 32.6766C1.41468 32.2564 0.611508 31.7814 0 31.2515V33.0329C0 33.5079 0.237302 33.9829 0.702778 34.4488Z" fill="var(--fill-0, #0D2F57)"/>
</g>
</svg>
