<svg preserveAspectRatio="none" width="100%" height="100%" overflow="visible" style="display: block;" viewBox="0 0 50 50" fill="none" xmlns="http://www.w3.org/2000/svg">
<g id="Group">
<path id="Vector" d="M31.5575 32.1329L30.9524 32.4702C30.506 32.7183 28.9187 33.5317 27.0238 33.5317C25.248 33.5317 23.7004 32.8968 22.5794 31.7163C21.7659 30.8135 21.2103 29.6032 20.9226 28.1052H30.5556V25.3472H20.5853V25.2679C20.5853 24.9702 20.5952 24.6627 20.6151 24.3651H30.5456V21.5774H21.0813C21.4484 20.0893 22.0536 18.9087 22.8671 18.1151C23.9484 16.9742 25.3373 16.3988 27.0139 16.3988C28.5615 16.3988 29.9107 16.875 30.5853 17.2817L31.1706 17.6389L32.1825 14.2857L31.7956 14.0774C30.9821 13.6409 29.2758 12.9167 26.9742 12.9167C24.127 12.9167 21.7064 13.9385 19.7817 15.9325C18.3532 17.4008 17.3611 19.3353 16.9048 21.5774H14.5437V24.3651H16.5377C16.5179 24.6825 16.5079 25.0099 16.5079 25.3472H14.5536V28.1052H16.756C17.123 30.4464 17.9762 32.371 19.2857 33.8294C21.0913 35.9226 23.7202 37.0833 26.6667 37.0833C29.6131 37.0833 31.4087 36.0119 32.0833 35.5456L32.4008 35.3373L31.5377 32.1429L31.5575 32.1329Z" fill="var(--fill-0, #0D2F57)"/>
<path id="Vector_2" d="M25 0C11.2103 0 0 11.2103 0 25C0 38.7897 11.2103 50 25 50C38.7897 50 50 38.7897 50 25C50 11.2103 38.7798 0 25 0ZM37.5298 34.2063L34.2063 37.5298L37.5794 40.9028C33.998 43.7401 29.5734 45.2877 25 45.2877C13.8095 45.2877 4.7123 36.1905 4.7123 25C4.7123 20.4266 6.25992 16.002 9.09722 12.4206L13.6806 17.004L17.004 13.6806L12.4206 9.09722C16.002 6.25992 20.4365 4.7123 25 4.7123C36.1905 4.7123 45.2877 13.8095 45.2877 25C45.2877 29.5734 43.7401 33.998 40.9028 37.5794L37.5298 34.2063Z" fill="var(--fill-0, #0D2F57)"/>
</g>
</svg>
