<svg preserveAspectRatio="none" width="100%" height="100%" overflow="visible" style="display: block;" viewBox="0 0 372.964 65" fill="none" xmlns="http://www.w3.org/2000/svg">
<g id="GA logo">
<path id="Vector" d="M61.2934 36.21C60.8393 37.0252 60.2292 37.743 59.4978 38.3225C58.8742 36.8522 58.0704 35.4651 57.105 34.1929L46.4369 15.1398C53.6905 14.2055 59.7477 17.817 62.3152 24.6054C63.5867 27.9976 63.1622 32.9884 61.2934 36.21ZM54.6878 53.9834C52.3945 56.8129 47.8588 58.9518 44.1456 58.9518C43.1899 58.964 42.241 58.7888 41.3527 58.4359L54.8605 35.4706C54.8869 35.495 54.9113 35.5457 54.9377 35.5701L57.2309 39.6753C59.0245 44.5198 58.1775 49.6812 54.6878 53.9834ZM25.0763 62.1754C21.4627 61.6331 17.325 58.83 15.4299 55.6348C14.9267 54.8263 14.5961 53.9224 14.4589 52.98L41.0785 52.9048C38.3627 59.7156 32.2547 63.256 25.0763 62.1754ZM3.34192 40.3903C2.07036 36.9737 2.51927 31.9809 4.41442 28.7614C4.87552 27.9326 5.50317 27.2034 6.2588 26.6225L19.1938 49.9046C11.9158 50.8146 5.86067 47.2031 3.34192 40.3903ZM11.8163 10.2465C14.1116 7.41905 18.6718 5.28015 22.3849 5.28015C23.341 5.25769 24.2914 5.43407 25.1758 5.79811L11.6416 28.735C7.18098 22.9317 7.22973 15.8792 11.8163 10.2465ZM32.8052 34.2904C26.2016 34.2904 28.568 23.2019 19.8702 23.7929C20.8655 14.5244 30.5627 14.2278 38.4378 15.5562C42.9492 16.3179 45.2689 19.3912 45.7422 23.7929C37.0688 23.2039 39.4108 34.2904 32.8052 34.2904ZM35.2731 39.6265C38.3403 38.225 39.9592 35.7915 40.4833 32.964C41.1313 29.4967 41.8544 27.5304 46.7639 27.5304C50.802 27.8006 53.3695 32.6431 52.1731 35.5457C50.5522 39.4782 46.5649 43.5103 43.9974 47.1503C41.0964 44.6341 38.1884 42.1261 35.2731 39.6265ZM21.615 47.1503C19.0719 43.5103 15.0582 39.4782 13.4393 35.5457C12.2408 32.6431 14.8104 27.8006 18.8485 27.5304C23.7336 27.5304 24.4811 29.4967 25.1291 32.964C25.6532 35.7915 27.2721 38.225 30.3372 39.6265C27.4217 42.1358 24.5143 44.6437 21.615 47.1503ZM26.1 48.9703C26.6485 46.5348 29.4922 43.9043 33.1789 43.9043C33.3712 43.9003 33.5628 43.9084 33.7538 43.9287C36.695 44.1521 39.5611 46.4617 40.0588 48.9946L40.1827 49.6081H26.0005L26.1 48.9703ZM38.5861 2.62124C39.4135 2.61853 40.2362 2.67608 41.0541 2.7939C44.6697 3.33421 48.8297 6.13733 50.7228 9.33452C51.2245 10.147 51.5638 11.0489 51.7222 11.9894L25.1007 12.1112C27.4691 6.11296 32.5046 2.62124 38.5861 2.62124ZM54.438 13.2447C54.438 13.2447 54.4136 12.8242 54.3384 12.0137C54.1908 10.5836 53.7222 9.20533 52.9674 7.98171C50.6741 4.12436 45.8153 0.854055 41.4278 0.214211C36.045 -0.571882 31.1578 0.827649 27.5199 4.04921L26.5469 3.55765C25.2473 2.94274 23.8222 2.63949 22.3849 2.67202C17.8978 2.67202 12.5902 5.15624 9.79723 8.59717C6.10848 13.1472 4.91208 18.4569 6.18364 23.5472C6.11556 23.576 6.04911 23.6086 5.98458 23.6447L5.01161 24.2845C3.82248 25.094 2.84119 26.1727 2.14755 27.4329C-0.121355 31.3147 -0.669792 37.1403 0.873956 41.2962C2.89302 46.7054 6.78286 50.3942 11.7168 51.9196L11.7919 52.9251C11.9239 54.3571 12.3932 55.7384 13.163 56.9571C15.4563 60.8165 20.3171 64.1132 24.6782 64.7774C25.6532 64.9223 26.6336 64.9961 27.6194 64.9989C29.7675 65.0244 31.8998 64.629 33.896 63.8349C35.8858 63.0448 37.7 61.8692 39.2341 60.3757L39.9328 60.721C41.2288 61.3365 42.6547 61.6392 44.0949 61.6046C48.6042 61.6046 53.8895 59.096 56.7069 55.6531C60.3448 51.1803 61.5677 45.9437 60.3448 40.9022L60.6942 40.6828C61.8744 39.8624 62.8541 38.7862 63.5603 37.5343C65.8292 33.6506 66.3269 27.8229 64.7831 23.667C62.8128 18.4548 59.1241 14.8433 54.438 13.2447Z" fill="var(--fill-0, #BFA065)"/>
<path id="Vector_2" d="M114.829 26.4494C114.028 28.3514 113.627 30.3981 113.651 32.4619L113.647 32.4558C113.639 36.5395 115.235 40.4631 118.092 43.3819C119.493 44.8291 121.195 45.9523 123.076 46.6725C125.117 47.4785 127.297 47.8734 129.491 47.8343C131.684 47.8477 133.86 47.443 135.901 46.642C137.795 45.9025 139.519 44.7865 140.969 43.3615C142.404 41.9955 143.532 40.3409 144.28 38.5069C145.083 36.6044 145.484 34.5569 145.461 32.4923C145.464 30.4401 145.058 28.4078 144.266 26.5144C143.558 24.6591 142.452 22.9813 141.026 21.5987C139.58 20.171 137.856 19.0558 135.96 18.3223C131.827 16.7619 127.266 16.7619 123.133 18.3223C121.271 19.0777 119.577 20.194 118.148 21.6069C116.713 22.9686 115.581 24.619 114.829 26.4494ZM122.122 35.657C121.706 34.6421 121.49 33.5565 121.486 32.4598L121.484 32.4659C121.46 31.3662 121.679 30.2748 122.124 29.2687C122.514 28.2978 123.109 27.4183 123.87 26.6891C124.638 25.9984 125.522 25.4439 126.481 25.0478C127.448 24.6042 128.504 24.3901 129.568 24.4222C130.627 24.4205 131.675 24.6312 132.651 25.0417C133.616 25.4581 134.498 26.0411 135.254 26.7642C135.997 27.5036 136.588 28.3791 137 29.3378C137.415 30.3534 137.63 31.4381 137.634 32.533C137.637 33.6298 137.423 34.7163 137.004 35.7301C136.558 36.6889 135.942 37.5623 135.186 38.3098C134.417 39.0004 133.536 39.5553 132.58 39.9511C131.614 40.398 130.555 40.6133 129.489 40.5808C128.43 40.576 127.381 40.3642 126.403 39.9572C125.47 39.5237 124.612 38.942 123.864 38.2347C123.126 37.492 122.535 36.6188 122.122 35.657ZM109.979 30.9039L95.3537 30.8409L95.2115 36.7722H101.305C101.252 37.5396 101.01 38.282 100.6 38.9334C100.264 39.4839 99.8134 39.9551 99.2781 40.3147C98.7215 40.662 98.1142 40.924 97.4784 41.0865C96.7857 41.2409 96.0768 41.3181 95.37 41.3201C94.2715 41.329 93.1822 41.1206 92.1647 40.7067C91.2445 40.3238 90.4366 39.7136 89.8165 38.9334C89.1695 38.146 88.6941 37.232 88.4211 36.2501C88.0924 35.1479 87.9241 34.0041 87.9214 32.8539C87.8912 31.624 88.0761 30.3984 88.4678 29.2322C88.7725 28.2166 89.2803 27.27 89.9628 26.4514C90.598 25.6876 91.3999 25.0796 92.3068 24.6741C93.2685 24.2734 94.2997 24.0663 95.3415 24.0647C96.5867 24.0241 97.8135 24.3694 98.8556 25.0478C100.003 25.9106 100.873 27.0896 101.36 28.44L108.384 25.5028C107.076 22.8012 105.329 20.7964 103.062 19.4903C100.679 18.1448 97.9786 17.4617 95.242 17.5119C93.11 17.4948 90.9925 17.8636 88.9918 18.6006C87.2224 19.315 85.6124 20.3734 84.255 21.7145C82.9063 23.0699 81.8681 24.7021 81.2122 26.4981C79.7537 30.4807 79.7537 34.8513 81.2122 38.8339C81.8773 40.6266 82.9183 42.2562 84.2651 43.6134C85.6833 44.9856 87.3577 46.0651 89.1929 46.7903C91.0356 47.5153 93.002 47.874 94.982 47.8465C96.5326 47.8297 98.0744 47.6112 99.5686 47.1965C100.985 46.797 102.336 46.1972 103.582 45.4151C104.804 44.6537 105.886 43.6884 106.782 42.5612C107.723 41.3494 108.461 39.9933 108.969 38.5454C109.355 37.4222 109.615 36.2623 109.745 35.0842C109.912 33.6962 109.99 32.3027 109.979 30.9039ZM157.78 17.9953L157.719 40.6803L166.829 40.6701L166.839 47.1011L150.285 47.0422L150.329 17.9263L157.78 17.9953ZM182.701 17.908H171.564L171.544 47.0767H182.691C184.61 47.0857 186.509 46.6825 188.259 45.8945C191.677 44.3246 194.375 41.5191 195.809 38.0417C196.54 36.3013 196.917 34.4328 196.918 32.5451C196.908 30.6339 196.529 28.7427 195.801 26.9755C195.088 25.2626 194.067 23.6945 192.791 22.3483C191.507 20.996 189.974 19.9054 188.275 19.1369C186.538 18.2991 184.63 17.8783 182.701 17.908ZM180.701 40.6701H178.954L179.108 24.3389H180.851C182.01 24.3332 183.161 24.5433 184.243 24.9584C185.18 25.3647 186.031 25.9436 186.75 26.6647C187.43 27.4162 187.966 28.2816 188.334 29.22C188.72 30.2661 188.909 31.3731 188.889 32.4842C188.911 33.5976 188.725 34.7054 188.34 35.7505C188.038 36.7255 187.496 37.609 186.764 38.32C186.051 39.0954 185.16 39.6858 184.168 40.0404C183.059 40.4549 181.885 40.6682 180.701 40.6701ZM223.536 17.1523L210.227 46.7801H214.962L218.128 39.4047H229.069L232.16 46.7781H236.922L223.536 17.1523ZM219.798 35.5676L222.613 29.0778C222.838 28.5361 223.038 27.9945 223.213 27.4528C223.371 26.9653 223.489 26.4514 223.601 25.9578L223.635 25.8075C223.685 25.9267 223.71 26.0492 223.71 26.1751C223.754 26.27 223.788 26.3695 223.81 26.4717L223.936 26.9186C224.019 27.2192 224.1 27.5198 224.184 27.7981C224.31 28.2166 224.484 28.6594 224.657 29.0778L227.474 35.5676H219.798ZM236.422 18.2594L248.66 47.8364L260.949 18.2594H256.312L250.155 33.4287C249.857 34.1661 249.607 34.9034 249.359 35.6915C249.234 36.0843 249.114 36.477 248.997 36.8697L248.636 38.0498C248.457 37.2562 248.249 36.4696 248.012 35.6915C247.783 34.9246 247.517 34.1694 247.214 33.4287L241.059 18.2594H236.422ZM266.659 46.7781V18.2594H282.062V22.267H271.12V29.3236H282.062V33.4287H271.12V42.5998H282.062V46.8045H266.659V46.7781ZM291.782 17.1523V46.7801H295.919V26.9145C296.342 27.4792 296.766 28.0439 297.189 28.5862C297.622 29.132 298.088 29.6479 298.586 30.1341L316.431 47.8364V18.2594H312.319V38.0275L311.72 37.2881C311.521 37.0444 311.322 36.7965 311.123 36.6015C311.006 36.4831 310.897 36.3576 310.796 36.2258C310.732 36.1445 310.667 36.0646 310.599 35.9861C310.43 35.7924 310.256 35.604 310.075 35.4214C309.935 35.2804 309.802 35.1326 309.677 34.9786C309.551 34.8246 309.419 34.6768 309.279 34.5358L291.782 17.1523ZM325.779 18.2594H330.29V35.592C330.29 37.928 330.814 39.7967 331.884 41.1983C332.957 42.5998 334.702 43.2884 337.143 43.2884C339.487 43.2884 341.232 42.5754 342.353 41.1739C343.475 39.7723 344.023 37.9036 344.023 35.592V18.2594H348.486V36.0592C348.486 39.8962 347.537 42.7481 345.62 44.6412C343.7 46.5344 340.883 47.4443 337.143 47.4443C333.406 47.4443 330.589 46.51 328.669 44.6169C326.749 42.7237 325.779 39.8698 325.779 36.0592V18.2594ZM357.559 18.2594V46.8045H372.964V42.5998H362.022V33.4287H372.964V29.3236H362.022V22.267H372.964V18.2594H357.559Z" fill="var(--fill-0, #0D2F57)"/>
</g>
</svg>
