<svg preserveAspectRatio="none" width="100%" height="100%" overflow="visible" style="display: block;" viewBox="0 0 52.9901 49.9926" fill="none" xmlns="http://www.w3.org/2000/svg">
<g id="Group">
<path id="Vector" d="M51.143 19.8124C50.8134 18.5817 49.7041 17.729 48.4339 17.729H45.1863L43.3856 10.9401C43.056 9.70941 41.9466 8.85677 40.6765 8.85677H33.8515C32.5814 8.85677 31.464 9.71746 31.1424 10.9401L29.3417 17.729H26.094C24.8239 17.729 23.7065 18.5897 23.385 19.8124L21.536 26.7622C21.5199 26.8265 21.536 26.8989 21.5762 26.9472C21.6164 27.0035 21.6807 27.0276 21.745 27.0276H52.7749C52.8392 27.0276 52.9035 26.9954 52.9437 26.9472C52.9839 26.8909 53 26.8265 52.9839 26.7622L51.135 19.8124H51.143ZM35.6281 19.8124C35.4432 19.1045 34.985 18.5254 34.3982 18.1554H40.1379C39.551 18.5254 39.0928 19.1045 38.9079 19.8124L37.268 25.9819L35.6281 19.8124Z" fill="var(--fill-0, #197EEB)"/>
<g id="Group_2">
<path id="Vector_2" d="M45.9258 36.1332C45.3631 35.7712 44.6155 35.9321 44.2457 36.4951C41.6733 40.4848 37.9111 43.4449 33.5058 45.0054L33.7711 44.0241C33.948 43.3806 33.5702 42.713 32.919 42.536C32.2679 42.359 31.6087 42.7371 31.4318 43.3886L30.5877 46.4774C30.5877 46.4774 30.5877 46.5016 30.5877 46.5176C30.5636 46.6303 30.5476 46.7429 30.5476 46.8555C30.5476 46.8635 30.5476 46.8716 30.5476 46.8796C30.5476 46.952 30.5636 47.0164 30.5797 47.0888C30.5877 47.129 30.6038 47.1611 30.6119 47.1933C30.6119 47.2094 30.6199 47.2255 30.6279 47.2416C30.6681 47.3462 30.7244 47.4346 30.7887 47.5231C30.7968 47.5392 30.8128 47.5553 30.8209 47.5633C30.8932 47.6518 30.9736 47.7242 31.062 47.7886C31.062 47.7886 31.0701 47.8046 31.0781 47.8046L34.0766 49.7915C34.2856 49.9282 34.5187 49.9926 34.7438 49.9926C35.1377 49.9926 35.5236 49.7995 35.7567 49.4456C36.1265 48.8906 35.9738 48.1344 35.411 47.7644L34.5509 47.1933C39.3501 45.4317 43.4499 42.174 46.2715 37.8063C46.6332 37.2432 46.4725 36.4951 45.9098 36.1251L45.9258 36.1332Z" fill="var(--fill-0, #197EEB)"/>
<path id="Vector_3" d="M6.91339 13.86C7.11436 13.9887 7.34749 14.053 7.57258 14.053C7.97452 14.053 8.36038 13.86 8.59351 13.498C11.1659 9.50832 14.9281 6.54017 19.3414 4.97968L19.0761 5.96102C18.8993 6.60452 19.2771 7.27215 19.9283 7.44912C20.0328 7.48129 20.1453 7.48933 20.2498 7.48933C20.7804 7.48933 21.2707 7.13541 21.4154 6.59648L22.2595 3.50767C22.2595 3.50767 22.2595 3.50767 22.2595 3.49963C22.2836 3.40311 22.3077 3.29854 22.3077 3.18592C22.3077 3.16984 22.3077 3.15375 22.3077 3.13766C22.3077 3.12962 22.3077 3.12157 22.3077 3.11353C22.3077 2.99287 22.2756 2.88026 22.2354 2.77569C22.2354 2.77569 22.2354 2.76765 22.2354 2.7596C22.1952 2.64699 22.1389 2.55047 22.0666 2.46199C22.0585 2.4459 22.0425 2.43785 22.0344 2.42177C21.9621 2.33329 21.8737 2.25285 21.7772 2.1885L18.7787 0.20169C18.216 -0.168323 17.4684 -0.0154917 17.0986 0.547571C16.7288 1.10259 16.8815 1.8587 17.4443 2.22872L18.3044 2.79982C13.4972 4.56141 9.39739 7.82717 6.57576 12.1949C6.21402 12.758 6.37479 13.5061 6.93751 13.8761L6.91339 13.86Z" fill="var(--fill-0, #197EEB)"/>
</g>
<path id="Vector_4" d="M25.6037 28.5479H21.745C21.2145 28.5479 20.7 28.2985 20.3704 27.8722C20.0488 27.4459 19.9363 26.8909 20.073 26.368L21.0698 22.6036C18.8752 20.9868 16.1661 20.0376 13.24 20.0376C5.92462 20.0376 0 25.9739 0 33.2857C0 40.5974 5.92462 46.5337 13.24 46.5337C20.5553 46.5337 26.4799 40.6055 26.4799 33.2857C26.4799 31.6126 26.1664 30.0199 25.6037 28.5479ZM14.2046 38.9967V41.1846H12.1145V39.0209H9.73502V36.9295H12.1145H13.8187C14.5503 36.9295 15.1371 36.3262 15.1371 35.5942C15.1371 34.8622 14.5422 34.259 13.8027 34.259H12.6853C10.7961 34.259 9.26073 32.7226 9.26073 30.8323C9.26073 29.1431 10.4907 27.7355 12.1065 27.462V25.3947H14.1966V27.4137H16.1018V29.5051H12.6772C11.9457 29.5051 11.3428 30.1003 11.3428 30.8404C11.3428 31.5804 11.9377 32.1756 12.6772 32.1756H13.7946C15.6838 32.1756 17.2192 33.712 17.2192 35.6023C17.2192 37.3558 15.8928 38.8037 14.1966 39.0048L14.2046 38.9967Z" fill="var(--fill-0, #197EEB)"/>
</g>
</svg>
