<svg preserveAspectRatio="none" width="100%" height="100%" overflow="visible" style="display: block;" viewBox="0 0 43.9635 35" fill="none" xmlns="http://www.w3.org/2000/svg">
<g id="Group">
<g id="Group_2">
<path id="Vector" d="M43.8782 20.9044V25.8079C43.8782 25.8079 43.8782 25.8763 43.8782 25.9019C43.8782 25.9019 43.8782 25.9019 43.8782 25.9104C43.8782 25.9617 43.8782 26.013 43.8782 26.0728C43.8782 26.0813 43.8782 26.0984 43.8782 26.1069C43.8782 26.1582 43.8782 26.2009 43.8612 26.2436C43.8612 26.2522 43.8612 26.2607 43.8612 26.2692C43.8612 26.3205 43.8442 26.3718 43.8356 26.423C43.8356 26.4316 43.8356 26.4486 43.8356 26.4572C43.8356 26.5084 43.8186 26.5512 43.8101 26.6024C43.8101 26.6024 43.8101 26.611 43.8101 26.6195C43.8016 26.6708 43.7846 26.722 43.776 26.7733C43.776 26.7818 43.776 26.7989 43.7675 26.8074C43.759 26.8502 43.742 26.8929 43.7335 26.9356C43.7335 26.9441 43.7335 26.9527 43.7249 26.9698C43.7079 27.021 43.6909 27.0723 43.6739 27.115C43.6739 27.1235 43.6739 27.1406 43.6653 27.1492C43.6483 27.1919 43.6398 27.2346 43.6228 27.2688C43.6228 27.2688 43.6228 27.2858 43.6143 27.2944C43.6143 27.2944 43.6143 27.3029 43.6143 27.3115C43.5972 27.3627 43.5802 27.4054 43.5546 27.4567C43.5546 27.4652 43.5546 27.4738 43.5461 27.4823C43.5291 27.525 43.5121 27.5677 43.495 27.6019C43.495 27.6105 43.4865 27.6275 43.478 27.6446C43.4525 27.6959 43.4354 27.7386 43.4099 27.7899C43.3843 27.8411 43.3588 27.8838 43.3333 27.9351C43.3333 27.9351 43.3333 27.9436 43.3247 27.9522C43.3247 27.9522 43.3247 27.9693 43.3162 27.9693C43.2907 28.012 43.2651 28.0547 43.2481 28.0889C43.2481 28.0889 43.2396 28.1059 43.2311 28.1145C43.2055 28.1657 43.1715 28.2085 43.1459 28.2597C43.1459 28.2683 43.1289 28.2853 43.1204 28.2939C43.0948 28.3366 43.0693 28.3708 43.0437 28.4135C43.0437 28.422 43.0267 28.4306 43.0267 28.4477C42.9927 28.4904 42.9586 28.5416 42.9245 28.5843C42.9245 28.5843 42.9245 28.5843 42.9245 28.5929C42.9245 28.5929 42.916 28.61 42.9075 28.61C42.8734 28.6527 42.8479 28.6869 42.8138 28.7296C42.8053 28.7381 42.7968 28.7552 42.7883 28.7637C42.7542 28.815 42.7117 28.8577 42.6776 28.9004C42.6776 28.909 42.6606 28.9175 42.6521 28.9261C42.618 28.9688 42.5839 29.0029 42.5499 29.0457C42.5414 29.0542 42.5328 29.0713 42.5243 29.0798C42.4817 29.1225 42.4392 29.1738 42.3966 29.2165C42.3966 29.2165 42.3881 29.2251 42.3796 29.2336C42.337 29.2763 42.2944 29.319 42.2518 29.3617C42.2433 29.3703 42.2348 29.3788 42.2263 29.3874C42.1752 29.4386 42.1326 29.4813 42.0815 29.5326C42.073 29.5411 42.0645 29.5497 42.0475 29.5668C42.0049 29.6095 41.9538 29.6522 41.9027 29.6949C41.9027 29.6949 41.8942 29.7035 41.8857 29.712C41.8346 29.7633 41.7835 29.806 41.7239 29.8487C41.7239 29.8487 41.7154 29.8572 41.7069 29.8658C41.7069 29.8658 41.6984 29.8743 41.6898 29.8829C41.6302 29.9341 41.5706 29.9854 41.511 30.0366C41.511 30.0366 41.494 30.0537 41.4855 30.0537C41.4259 30.105 41.3663 30.1477 41.3067 30.1989C41.3067 30.1989 41.2982 30.2075 41.2896 30.216C41.2215 30.2673 41.1619 30.3185 41.0938 30.3612C41.0853 30.3698 41.0683 30.3783 41.0597 30.3869C40.9916 30.4381 40.932 30.4808 40.8639 30.5321C40.8639 30.5321 40.8554 30.5321 40.8469 30.5407C40.8298 30.5492 40.8128 30.5663 40.7958 30.5748C40.7787 30.5919 40.7532 30.609 40.7362 30.6175C40.7106 30.6346 40.6851 30.6517 40.6595 30.6688C40.6425 30.6859 40.617 30.6944 40.5914 30.7115C40.5659 30.7286 40.5403 30.7457 40.5148 30.7628C40.4892 30.7798 40.4722 30.7884 40.4467 30.8055C40.4211 30.8226 40.3956 30.8396 40.37 30.8567C40.3445 30.8738 40.3274 30.8824 40.3019 30.8994C40.2764 30.9165 40.2508 30.9336 40.2253 30.9507C40.1997 30.9678 40.1827 30.9763 40.1571 30.9934C40.1316 31.0105 40.1061 31.0276 40.0805 31.0447C40.055 31.0618 40.0379 31.0703 40.0124 31.0874C39.9868 31.1045 39.9528 31.1216 39.9272 31.1386C39.9017 31.1557 39.8847 31.1643 39.8591 31.1814C39.8336 31.1984 39.7995 31.2155 39.7655 31.2326C39.7484 31.2412 39.7229 31.2582 39.7058 31.2668C39.6973 31.2668 39.6888 31.2753 39.6803 31.2839C39.6292 31.3095 39.5781 31.3437 39.5355 31.3693C39.5185 31.3778 39.493 31.3949 39.4759 31.4035C39.4334 31.4291 39.3908 31.4462 39.3482 31.4718C39.3312 31.4804 39.3056 31.4974 39.2886 31.506C39.246 31.5316 39.1949 31.5572 39.1524 31.5829C39.1353 31.5914 39.1183 31.6 39.1013 31.6085C39.0417 31.6427 38.9736 31.6768 38.9139 31.711C38.8969 31.711 38.8884 31.7281 38.8714 31.7281C38.8203 31.7537 38.7692 31.7794 38.7181 31.805C38.6926 31.8135 38.6755 31.8306 38.65 31.8392C38.6074 31.8648 38.5563 31.8819 38.5137 31.9075C38.4882 31.916 38.4712 31.9331 38.4456 31.9417C38.3945 31.9673 38.3434 31.9929 38.2923 32.01C38.2753 32.01 38.2583 32.0271 38.2413 32.0356C38.1731 32.0698 38.105 32.0954 38.0369 32.1296C38.0369 32.1296 38.0369 32.1296 38.0284 32.1296C38.0199 32.1296 38.0028 32.1382 37.9943 32.1467C37.9347 32.1723 37.8836 32.198 37.824 32.2236C37.7985 32.2321 37.7814 32.2407 37.7559 32.2578C37.7048 32.2834 37.6452 32.3005 37.5941 32.3261C37.5771 32.3346 37.5515 32.3432 37.5345 32.3517C37.4579 32.3859 37.3898 32.4115 37.3131 32.4457C37.3046 32.4457 37.2961 32.4542 37.2791 32.4628C37.2109 32.4884 37.1513 32.514 37.0832 32.5397C37.0577 32.5482 37.0321 32.5568 37.0151 32.5653C36.9555 32.5909 36.9044 32.608 36.8448 32.6336C36.8192 32.6422 36.8022 32.6507 36.7767 32.6593C36.7 32.6934 36.6234 32.7191 36.5468 32.7447C36.5468 32.7447 36.5468 32.7447 36.5382 32.7447C36.4616 32.7703 36.385 32.8045 36.3083 32.8301C36.2828 32.8387 36.2573 32.8472 36.2402 32.8558C36.1806 32.8728 36.121 32.8985 36.0614 32.9156C36.0359 32.9241 36.0103 32.9326 35.9848 32.9412C35.9081 32.9668 35.84 32.9924 35.7634 33.0181C35.7634 33.0181 35.7463 33.0181 35.7378 33.0181C35.6527 33.0437 35.576 33.0693 35.4909 33.1035C35.4654 33.1035 35.4398 33.1206 35.4228 33.1291C35.3632 33.1462 35.3036 33.1718 35.244 33.1889C35.2184 33.1889 35.1929 33.206 35.1673 33.2145C35.0992 33.2402 35.0311 33.2573 34.9544 33.2829C34.9374 33.2829 34.9289 33.2914 34.9119 33.3C34.8267 33.3256 34.7416 33.3512 34.6564 33.3769C34.6309 33.3769 34.6138 33.394 34.5883 33.394C34.5287 33.411 34.4606 33.4281 34.3925 33.4538C34.3669 33.4538 34.3414 33.4708 34.3073 33.4794C34.2392 33.4965 34.1711 33.5221 34.1029 33.5392C34.0859 33.5392 34.0604 33.5477 34.0433 33.5563C33.9582 33.5819 33.873 33.6075 33.7794 33.6246C33.7794 33.6246 33.7709 33.6246 33.7623 33.6246C33.7453 33.6246 33.7368 33.6246 33.7198 33.6331C33.6431 33.6502 33.558 33.6759 33.4813 33.6929C33.4558 33.6929 33.4303 33.7015 33.4047 33.71C33.311 33.7357 33.2089 33.7613 33.1152 33.7869C33.1067 33.7869 33.0897 33.7869 33.0811 33.7869C33.0045 33.804 32.9279 33.8211 32.8512 33.8467C32.8257 33.8467 32.7916 33.8638 32.7661 33.8638C32.698 33.8809 32.6298 33.898 32.5702 33.9151C32.5447 33.9151 32.5191 33.9236 32.4851 33.9321C32.3914 33.9492 32.2978 33.9749 32.2041 33.9919C32.1104 34.009 32.0253 34.0347 31.9316 34.0517C31.9061 34.0517 31.872 34.0603 31.8465 34.0688C31.7783 34.0859 31.7102 34.0945 31.6421 34.1115C31.6166 34.1115 31.5825 34.1201 31.5569 34.1286C31.4718 34.1457 31.3866 34.1628 31.3015 34.1799C31.293 34.1799 31.2845 34.1799 31.2674 34.1799C31.1738 34.197 31.0801 34.2141 30.9779 34.2397C30.9524 34.2397 30.9268 34.2482 30.8928 34.2568C30.8247 34.2739 30.748 34.2824 30.6799 34.2995C30.6458 34.2995 30.6203 34.308 30.5862 34.3166C30.5096 34.3337 30.4244 34.3422 30.3478 34.3593C30.3308 34.3593 30.3137 34.3593 30.2882 34.3678C30.1945 34.3849 30.0924 34.402 29.9987 34.4191C29.9731 34.4191 29.9476 34.4191 29.9221 34.4276C29.8454 34.4362 29.7773 34.4533 29.7007 34.4618C29.6666 34.4618 29.6411 34.4703 29.607 34.4789C29.5304 34.4874 29.4537 34.5045 29.3771 34.5131C29.3515 34.5131 29.326 34.5131 29.3005 34.5216C29.1983 34.5387 29.1046 34.5472 29.0024 34.5643C28.9769 34.5643 28.9599 34.5643 28.9343 34.5729C28.8577 34.5814 28.7725 34.5985 28.6959 34.607C28.6618 34.607 28.6278 34.6156 28.6022 34.6241C28.5256 34.6327 28.449 34.6412 28.3723 34.6583C28.3468 34.6583 28.3127 34.6583 28.2872 34.6668C28.185 34.6839 28.0828 34.6925 27.9806 34.701C27.9806 34.701 27.9806 34.701 27.9721 34.701C27.9721 34.701 27.9636 34.701 27.9551 34.701C27.7678 34.7266 27.5804 34.7437 27.3931 34.7608C27.3761 34.7608 27.359 34.7608 27.342 34.7608C27.1632 34.7779 26.9758 34.795 26.7885 34.8121C26.7715 34.8121 26.7545 34.8121 26.7374 34.8121C26.5416 34.8291 26.3457 34.8462 26.1414 34.8633C25.9455 34.8804 25.7412 34.8975 25.5368 34.906H25.5198C25.5027 34.906 25.4942 34.906 25.4772 34.906C25.3324 34.9146 25.1877 34.9231 25.0344 34.9317C25.0259 34.9317 25.0174 34.9317 25.0089 34.9317C24.8641 34.9402 24.7194 34.9487 24.5661 34.9573C24.5491 34.9573 24.5405 34.9573 24.5235 34.9573C24.3788 34.9573 24.234 34.9744 24.0807 34.9744C24.0552 34.9744 24.0296 34.9744 24.0126 34.9744C23.8679 34.9744 23.7231 34.9829 23.5783 34.9915C23.5698 34.9915 23.5528 34.9915 23.5443 34.9915H23.4932C23.3995 34.9915 23.3059 34.9915 23.2122 35C23.1867 35 23.1611 35 23.1441 35C23.0249 35 22.9142 35 22.795 35C22.7694 35 22.7439 35 22.7098 35C22.6161 35 22.5225 35 22.4288 35C22.3948 35 22.3607 35 22.3266 35C22.2074 35 22.0882 35 21.9775 35C21.9009 35 21.8157 35 21.7391 35H21.7221C21.5943 35 21.4751 35 21.3474 35C21.3219 35 21.2878 35 21.2623 35C21.1516 35 21.0494 35 20.9387 35C20.9217 35 20.8961 35 20.8791 35C20.7599 35 20.6321 35 20.5129 34.9915C20.4874 34.9915 20.4533 34.9915 20.4278 34.9915C20.3171 34.9915 20.2149 34.9915 20.1042 34.9829C20.0872 34.9829 20.0787 34.9829 20.0616 34.9829C20.0616 34.9829 20.0531 34.9829 20.0446 34.9829C19.9254 34.9829 19.8062 34.9744 19.6955 34.9658C19.6699 34.9658 19.6359 34.9658 19.6103 34.9658C19.5167 34.9658 19.4145 34.9573 19.3208 34.9487C19.2953 34.9487 19.2697 34.9487 19.2442 34.9487C19.125 34.9487 19.0143 34.9402 18.8951 34.9317C18.8695 34.9317 18.844 34.9317 18.827 34.9317C18.7333 34.9317 18.6311 34.9231 18.5374 34.9146C18.5204 34.9146 18.5034 34.9146 18.4863 34.9146C18.4778 34.9146 18.4608 34.9146 18.4523 34.9146C18.3416 34.9146 18.2224 34.8975 18.1117 34.8889C18.1032 34.8889 18.0861 34.8889 18.0776 34.8889C17.9754 34.8889 17.8733 34.8719 17.7711 34.8633C17.737 34.8633 17.7115 34.8633 17.6774 34.8633C17.5752 34.8548 17.4731 34.8462 17.3794 34.8377C17.3624 34.8377 17.3538 34.8377 17.3368 34.8377C17.2261 34.8291 17.1154 34.8206 16.9962 34.8035C16.9877 34.8035 16.9707 34.8035 16.9622 34.8035C16.9451 34.8035 16.9281 34.8035 16.9111 34.8035C16.8174 34.795 16.7237 34.7864 16.6301 34.7779C16.6045 34.7779 16.579 34.7779 16.5619 34.7779C16.4513 34.7693 16.3406 34.7523 16.2299 34.7437C16.2043 34.7437 16.1788 34.7437 16.1532 34.7352C16.0596 34.7266 15.9744 34.7095 15.8807 34.701C15.8552 34.701 15.8211 34.701 15.7956 34.6925C15.6849 34.6754 15.5742 34.6668 15.4635 34.6497H15.455C15.438 34.6497 15.4294 34.6497 15.4124 34.6497C15.3102 34.6327 15.2166 34.6241 15.1144 34.607C15.0888 34.607 15.0548 34.607 15.0292 34.5985C14.9185 34.5814 14.8078 34.5643 14.6972 34.5472C14.6801 34.5472 14.6716 34.5472 14.6546 34.5472C14.5524 34.5301 14.4587 34.5131 14.3566 34.5045C14.331 34.5045 14.3055 34.496 14.2714 34.4874C14.1607 34.4703 14.05 34.4533 13.9393 34.4362C13.9308 34.4362 13.9223 34.4362 13.9138 34.4362C13.8031 34.4191 13.7009 34.402 13.5902 34.3849C13.5647 34.3849 13.5391 34.3764 13.5136 34.3678C13.4029 34.3507 13.2922 34.3251 13.173 34.308C13.1559 34.308 13.1304 34.308 13.1134 34.2995C13.0112 34.2824 12.909 34.2653 12.8153 34.2397C12.7983 34.2397 12.7728 34.2397 12.7557 34.2311C12.645 34.2055 12.5343 34.1884 12.4236 34.1628C12.4151 34.1628 12.4066 34.1628 12.3896 34.1628C12.3811 34.1628 12.364 34.1628 12.3555 34.1628C12.2363 34.1372 12.1171 34.1115 11.9979 34.0859C11.9894 34.0859 11.9809 34.0859 11.9723 34.0859C11.8531 34.0603 11.7424 34.0347 11.6232 34.009C11.6062 34.009 11.5892 34.009 11.5721 34.0005C11.4529 33.9749 11.3422 33.9492 11.223 33.9151C11.1975 33.9151 11.1804 33.9065 11.1549 33.898C11.0442 33.8723 10.925 33.8382 10.8143 33.8125C10.8143 33.8125 10.8058 33.8125 10.7973 33.8125C10.7887 33.8125 10.7802 33.8125 10.7717 33.8125C10.6355 33.7784 10.5078 33.7442 10.3715 33.71C10.363 33.71 10.3545 33.71 10.3375 33.7015C10.2012 33.6673 10.065 33.6246 9.93724 33.5904C9.93724 33.5904 9.92873 33.5904 9.92021 33.5904C9.78397 33.5477 9.64773 33.5135 9.51149 33.4708C9.37525 33.4281 9.23901 33.3939 9.11128 33.3512C9.11128 33.3512 9.11128 33.3512 9.10277 33.3512C9.01762 33.3256 8.94098 33.3 8.86435 33.2743C8.8388 33.2743 8.81326 33.2573 8.79623 33.2487C8.73662 33.2316 8.68553 33.2145 8.62593 33.1975C8.60038 33.1889 8.56632 33.1804 8.54078 33.1718C8.48969 33.1548 8.43008 33.1377 8.37899 33.1206C8.35345 33.112 8.3279 33.1035 8.30236 33.095C8.23424 33.0693 8.16612 33.0522 8.10651 33.0266C8.09799 33.0266 8.08096 33.0266 8.07245 33.0181C7.99581 32.9924 7.91918 32.9668 7.84254 32.9326C7.817 32.9326 7.79997 32.9156 7.77442 32.907C7.72333 32.8899 7.66373 32.8643 7.61264 32.8472C7.58709 32.8387 7.56155 32.8301 7.536 32.8216C7.48491 32.8045 7.43382 32.7789 7.38273 32.7618C7.35719 32.7532 7.33164 32.7447 7.3061 32.7362C7.24649 32.7105 7.17837 32.6849 7.11876 32.6678C7.11025 32.6678 7.10173 32.6678 7.0847 32.6593C7.03361 32.6422 6.98252 32.6166 6.93143 32.5995C6.9144 32.5995 6.90589 32.5909 6.88886 32.5824C6.82074 32.5568 6.76113 32.5311 6.69301 32.5055C6.67598 32.5055 6.65895 32.4884 6.64192 32.4884C6.59083 32.4713 6.54826 32.4457 6.49717 32.4286C6.47162 32.4201 6.44608 32.4115 6.42905 32.3944C6.38647 32.3774 6.35241 32.3603 6.30983 32.3432C6.28429 32.3346 6.25874 32.3176 6.2332 32.309C6.19914 32.2919 6.15656 32.2748 6.1225 32.2578C6.09696 32.2492 6.07141 32.2321 6.04587 32.2236C6.01181 32.2065 5.97775 32.1894 5.94369 32.1723C5.91814 32.1638 5.8926 32.1467 5.85854 32.1382C5.82448 32.1211 5.79042 32.104 5.75636 32.0954C5.73081 32.0784 5.70527 32.0698 5.67121 32.0527C5.63715 32.0356 5.60309 32.0186 5.56903 32.01C5.54348 31.9929 5.51794 31.9844 5.48388 31.9673C5.44981 31.9502 5.41575 31.9331 5.39021 31.916C5.36466 31.899 5.33912 31.8904 5.31357 31.8733C5.27951 31.8562 5.25397 31.8392 5.21991 31.8221C5.19436 31.805 5.16882 31.7964 5.14327 31.7794C5.10921 31.7623 5.08367 31.7452 5.04961 31.7281C5.02406 31.711 4.99852 31.7025 4.97297 31.6854C4.93891 31.6683 4.91337 31.6512 4.87931 31.6341C4.85376 31.617 4.82822 31.6085 4.80267 31.5914C4.76861 31.5743 4.74307 31.5572 4.71752 31.5402C4.69198 31.5231 4.66643 31.5145 4.64089 31.4974C4.60683 31.4804 4.58128 31.4633 4.55574 31.4462C4.53019 31.4291 4.50465 31.4206 4.4791 31.4035C4.45355 31.3864 4.41949 31.3693 4.39395 31.3522C4.3684 31.3351 4.34286 31.3266 4.31731 31.3095C4.29177 31.2924 4.25771 31.2753 4.23216 31.2582C4.20662 31.2412 4.18107 31.2326 4.16404 31.2155C4.1385 31.1984 4.10444 31.1814 4.07889 31.1643C4.05335 31.1472 4.0278 31.1386 4.01077 31.1216C3.98523 31.1045 3.95117 31.0874 3.92562 31.0703C3.90008 31.0532 3.88305 31.0447 3.8575 31.0276C3.83196 31.0105 3.7979 30.9934 3.77235 30.9763C3.75532 30.9592 3.72978 30.9507 3.71275 30.9336C3.6872 30.9165 3.65314 30.8994 3.6276 30.8738C3.61057 30.8567 3.58502 30.8482 3.56799 30.8311C3.53393 30.814 3.50838 30.7884 3.47432 30.7713C3.45729 30.7628 3.44026 30.7457 3.42323 30.7371C3.38066 30.7115 3.33808 30.6773 3.30402 30.6517C3.30402 30.6517 3.28699 30.6432 3.28699 30.6346C3.2359 30.6004 3.19333 30.5663 3.15075 30.5321C3.13372 30.5236 3.12521 30.515 3.10818 30.4979C3.07412 30.4723 3.04006 30.4552 3.01451 30.4296C2.99748 30.4211 2.98045 30.404 2.96342 30.3869C2.93788 30.3698 2.91233 30.3442 2.87827 30.3271C2.86124 30.31 2.84421 30.3014 2.82718 30.2844C2.80164 30.2673 2.77609 30.2417 2.75055 30.2246C2.73352 30.2075 2.71649 30.1904 2.69094 30.1819C2.6654 30.1648 2.63985 30.1477 2.62282 30.1221C2.60579 30.105 2.58876 30.0879 2.56321 30.0793C2.53767 30.0623 2.52064 30.0452 2.49509 30.0195C2.47806 30.0025 2.46103 29.9854 2.444 29.9768C2.41846 29.9597 2.40143 29.9427 2.37588 29.917C2.35885 29.8999 2.34182 29.8829 2.32479 29.8658C2.29925 29.8487 2.28222 29.8316 2.25667 29.806C2.23964 29.7889 2.22261 29.7718 2.20558 29.7547C2.18855 29.7376 2.16301 29.7205 2.14598 29.6949C2.12895 29.6778 2.11192 29.6607 2.09489 29.6437C2.07786 29.6266 2.05231 29.6095 2.03528 29.5839C2.01825 29.5668 2.00122 29.5497 1.98419 29.5326C1.96716 29.5155 1.94162 29.4984 1.92459 29.4728C1.90756 29.4557 1.89053 29.4386 1.8735 29.4215C1.85647 29.4045 1.83944 29.3874 1.81389 29.3617C1.79686 29.3447 1.77983 29.3276 1.7628 29.3105C1.74577 29.2934 1.72874 29.2678 1.70319 29.2507C1.68616 29.2336 1.66913 29.2165 1.6521 29.1994C1.63507 29.1823 1.61804 29.1567 1.60101 29.1396C1.58398 29.1225 1.56695 29.1055 1.55844 29.0884C1.54141 29.0713 1.52438 29.0457 1.50735 29.0286C1.49032 29.0115 1.4818 28.9944 1.46477 28.9773C1.44774 28.9602 1.43071 28.9346 1.41368 28.9175C1.39665 28.9004 1.38814 28.8833 1.37111 28.8663C1.35408 28.8492 1.33705 28.8235 1.32002 28.8065C1.30299 28.7894 1.29447 28.7723 1.27744 28.7552C1.26041 28.7381 1.24338 28.7125 1.22635 28.6954C1.21784 28.6783 1.20081 28.6612 1.19229 28.6441C1.17526 28.6185 1.15823 28.6014 1.1412 28.5758C1.13269 28.5587 1.11566 28.5416 1.10714 28.5331C1.09011 28.5075 1.07308 28.4818 1.05605 28.4562C1.04754 28.4391 1.03902 28.4306 1.03051 28.4135C1.00496 28.3793 0.987931 28.3451 0.962386 28.311C0.962386 28.311 0.962386 28.3024 0.953871 28.2939C0.928326 28.2597 0.902781 28.217 0.877235 28.1828C0.877235 28.1743 0.860205 28.1572 0.85169 28.1487C0.83466 28.123 0.81763 28.0974 0.8006 28.0718C0.792085 28.0547 0.78357 28.0461 0.775055 28.0291C0.758025 28.0034 0.74951 27.9863 0.73248 27.9607C0.723965 27.9436 0.71545 27.9265 0.706935 27.9095C0.698419 27.8838 0.681389 27.8668 0.672874 27.8411C0.664359 27.824 0.655844 27.8069 0.647329 27.7899C0.638814 27.7642 0.621784 27.7471 0.613269 27.7215C0.604754 27.7044 0.596239 27.6874 0.587724 27.6703C0.579209 27.6532 0.570694 27.6276 0.553664 27.6105C0.545149 27.5934 0.536634 27.5763 0.528119 27.5592C0.519604 27.5421 0.511088 27.5165 0.502573 27.4994C0.502573 27.4823 0.485543 27.4652 0.477028 27.4481C0.468513 27.4311 0.459998 27.4054 0.451483 27.3884C0.451483 27.3713 0.434453 27.3542 0.425938 27.3371C0.417423 27.32 0.408908 27.2944 0.400393 27.2773C0.400393 27.2602 0.383363 27.2431 0.383363 27.226C0.383363 27.209 0.366333 27.1833 0.357818 27.1662C0.357818 27.1492 0.349303 27.1321 0.340788 27.115C0.340788 27.0979 0.323757 27.0723 0.323757 27.0552C0.323757 27.0381 0.315242 27.021 0.306727 27.0039C0.306727 26.9868 0.298212 26.9612 0.289697 26.9441C0.289697 26.927 0.281182 26.91 0.272667 26.8929C0.272667 26.8672 0.264152 26.8502 0.255637 26.8245C0.255637 26.8074 0.247122 26.7904 0.238607 26.7647C0.238607 26.7476 0.230092 26.722 0.221577 26.6964C0.221577 26.6793 0.213062 26.6622 0.213062 26.6451C0.213062 26.6195 0.204547 26.6024 0.196032 26.5768C0.196032 26.5597 0.196032 26.5426 0.187517 26.5255C0.187517 26.4999 0.187517 26.4828 0.179002 26.4572C0.179002 26.4401 0.179002 26.423 0.170487 26.4059C0.170487 26.3803 0.170487 26.3632 0.161972 26.3376C0.161972 26.3205 0.161972 26.3034 0.161972 26.2863C0.161972 26.2607 0.161972 26.2436 0.161972 26.218C0.161972 26.2009 0.161972 26.1838 0.161972 26.1667C0.161972 26.1411 0.161972 26.1155 0.161972 26.0898C0.161972 26.0728 0.161972 26.0557 0.161972 26.0386C0.161972 26.013 0.161972 25.9873 0.161972 25.9532C0.161972 25.9361 0.161972 25.9275 0.161972 25.9104C0.161972 25.8677 0.161972 25.825 0.161972 25.7908V20.8873C0.161972 20.8873 0.196032 20.9214 0.204547 20.9385C0.204547 20.9385 0.247122 20.9898 0.264152 21.0154C0.281182 21.0325 0.298212 21.0496 0.315242 21.0667C0.315242 21.0667 0.357818 21.1179 0.374848 21.1436C0.391878 21.1606 0.408908 21.1777 0.425938 21.1948C0.425938 21.1948 0.468513 21.2461 0.494058 21.2717C0.511088 21.2888 0.528119 21.3144 0.553664 21.3315C0.579209 21.3571 0.596239 21.3742 0.621784 21.3998C0.638814 21.4169 0.664359 21.4426 0.681389 21.4596C0.706935 21.4853 0.723965 21.5024 0.74951 21.528C0.76654 21.5451 0.792085 21.5707 0.809115 21.5878C0.83466 21.6134 0.85169 21.6305 0.877235 21.6561C0.894266 21.6732 0.919811 21.6988 0.936841 21.7159C0.962386 21.7416 0.987931 21.7586 1.00496 21.7843C1.02199 21.8014 1.04754 21.827 1.06457 21.8441C1.09011 21.8697 1.11566 21.8868 1.1412 21.9124C1.15823 21.9295 1.18378 21.9466 1.20081 21.9722C1.22635 21.9978 1.2519 22.0149 1.27744 22.0406C1.29447 22.0576 1.32002 22.0747 1.34556 22.0918C1.37111 22.1089 1.38814 22.1345 1.41368 22.1516C1.41368 22.1516 1.46477 22.1943 1.4818 22.2114C1.50735 22.2285 1.52438 22.2456 1.54992 22.2712C1.54992 22.2712 1.60953 22.3139 1.62656 22.331C1.6521 22.3481 1.67765 22.3737 1.70319 22.3908C1.70319 22.3908 1.75429 22.4335 1.77983 22.4506C1.80538 22.4677 1.83092 22.4933 1.85647 22.5104C1.85647 22.5104 1.90756 22.5531 1.92459 22.5617C1.95013 22.5787 1.97568 22.6044 2.00122 22.6215C2.00122 22.6215 2.06083 22.6642 2.07786 22.6727C2.11192 22.6983 2.14598 22.724 2.18004 22.7496L2.23113 22.7923C2.28222 22.8265 2.33331 22.8692 2.3844 22.9034L2.40994 22.9205C2.45252 22.9546 2.50361 22.9803 2.54618 23.0144L2.6143 23.0571C2.6143 23.0571 2.67391 23.0999 2.70797 23.1169C2.725 23.1255 2.78461 23.1682 2.78461 23.1682C2.81015 23.1853 2.84421 23.2024 2.86976 23.228C2.88679 23.2365 2.94639 23.2793 2.94639 23.2793C2.98045 23.2963 3.006 23.3134 3.04006 23.3391C3.05709 23.3476 3.11669 23.3903 3.11669 23.3903C3.15075 23.4074 3.1763 23.4245 3.21036 23.4501C3.22739 23.4587 3.29551 23.5014 3.29551 23.5014C3.32957 23.5185 3.35511 23.5355 3.38917 23.5526C3.41472 23.5697 3.46581 23.5953 3.46581 23.5953C3.49987 23.6124 3.52541 23.6295 3.55947 23.6466C3.58502 23.6637 3.61057 23.6808 3.64463 23.6979C3.67869 23.7149 3.71275 23.732 3.73829 23.7491C3.76384 23.7662 3.7979 23.7833 3.82344 23.7918C3.8575 23.8089 3.89156 23.826 3.91711 23.8431C3.94265 23.8602 3.97671 23.8773 4.00226 23.8858C4.03632 23.9029 4.07038 23.92 4.10444 23.9371C4.12998 23.9541 4.16404 23.9712 4.18959 23.9798C4.22365 23.9969 4.25771 24.0139 4.29177 24.031L4.37692 24.0737C4.37692 24.0737 4.44504 24.1079 4.4791 24.125C4.50465 24.1421 4.53871 24.1506 4.56425 24.1677C4.59831 24.1848 4.63237 24.2019 4.66643 24.219C4.66643 24.219 4.72604 24.2531 4.75158 24.2617C4.78564 24.2788 4.8197 24.2959 4.85376 24.3129C4.85376 24.3129 4.91337 24.3471 4.93891 24.3557C4.97297 24.3727 5.00703 24.3898 5.04109 24.4069L5.12624 24.4496L5.32209 24.5436C5.35615 24.5607 5.39021 24.5778 5.42427 24.5949L5.51794 24.6376C5.51794 24.6376 5.58606 24.6632 5.62012 24.6803L5.7223 24.723C5.7223 24.723 5.80745 24.7572 5.85002 24.7742L5.92666 24.8084C5.97775 24.8255 6.02884 24.8511 6.07993 24.8682L6.13102 24.8938C6.19914 24.9195 6.26726 24.9536 6.33538 24.9793L6.37795 24.9964C6.42904 25.022 6.48865 25.0391 6.53974 25.0647L6.58232 25.0818C6.65044 25.1074 6.71004 25.133 6.77816 25.1587L6.8548 25.1928C6.90589 25.2099 6.96549 25.2356 7.01658 25.2526L7.10173 25.2868C7.16134 25.3039 7.22094 25.3295 7.27204 25.3466L7.34016 25.3722C7.42531 25.3979 7.50194 25.432 7.58709 25.4577H7.62115C7.68927 25.4918 7.75739 25.5175 7.83403 25.5431L7.91918 25.5687C7.97878 25.5858 8.02987 25.6114 8.08948 25.6285L8.17463 25.6542C8.23424 25.6712 8.29384 25.6969 8.35345 25.714L8.43008 25.7396C8.51523 25.7652 8.59187 25.7908 8.67702 25.8165H8.69405C8.8388 25.8677 8.97504 25.9104 9.11128 25.9532C9.24753 25.9959 9.39228 26.0386 9.53704 26.0813H9.56258C9.69882 26.124 9.84358 26.1667 9.98833 26.2009H10.0224C10.1586 26.2436 10.3034 26.2863 10.4396 26.3205H10.4907C10.6099 26.3632 10.7291 26.3888 10.8484 26.423L10.9165 26.4401C11.0357 26.4657 11.1549 26.4999 11.2741 26.5255H11.3252C11.4444 26.5682 11.5636 26.5939 11.6913 26.6195H11.7169C11.8446 26.6537 11.9638 26.6793 12.0916 26.7049H12.1341L12.1682 26.722C12.2789 26.7476 12.3981 26.7647 12.5088 26.7904H12.5684C12.6706 26.8245 12.7728 26.8416 12.8835 26.8587H12.9431C13.0623 26.8929 13.173 26.91 13.2922 26.9356L13.3688 26.9527C13.4795 26.9698 13.5902 26.9954 13.7009 27.0125H13.7264C13.8371 27.0296 13.9563 27.0466 14.067 27.0637L14.1522 27.0808C14.2544 27.0979 14.3566 27.115 14.4587 27.1321H14.5013C14.612 27.1577 14.7312 27.1748 14.8504 27.1919H14.9356C15.0378 27.2175 15.1399 27.2346 15.2421 27.2431H15.3017C15.4124 27.2688 15.5231 27.2773 15.6423 27.2944H15.7275C15.8211 27.32 15.9148 27.3286 16.0085 27.3371H16.0851C16.1958 27.3627 16.315 27.3713 16.4257 27.3884H16.5023C16.596 27.4054 16.6982 27.414 16.7919 27.4225H16.8429L16.877 27.4311C16.9962 27.4396 17.1069 27.4567 17.2261 27.4652H17.2687C17.3709 27.4823 17.4731 27.4909 17.5838 27.4994H17.6774C17.7796 27.5165 17.8903 27.525 18.001 27.5336H18.0351C18.1543 27.5421 18.2735 27.5507 18.3927 27.5592H18.4353H18.4863C18.5885 27.5592 18.6822 27.5763 18.7844 27.5763H18.861C18.9802 27.5848 19.0994 27.5934 19.2186 27.6019H19.3038C19.406 27.6105 19.4996 27.619 19.6018 27.619H19.687C19.8062 27.6275 19.9254 27.6361 20.0531 27.6361H20.0787H20.1212C20.2319 27.6361 20.3426 27.6361 20.4533 27.6446H20.547C20.6747 27.6446 20.8024 27.6532 20.9302 27.6532H20.9898C21.1005 27.6532 21.2112 27.6532 21.3219 27.6532H21.4155C21.5433 27.6532 21.671 27.6532 21.7987 27.6532H21.8157C21.9009 27.6532 21.9775 27.6532 22.0627 27.6532C22.1819 27.6532 22.3011 27.6532 22.4288 27.6532H22.531C22.6247 27.6532 22.7183 27.6532 22.8205 27.6532H22.9057C23.0249 27.6532 23.1441 27.6532 23.2633 27.6532H23.3399C23.4336 27.6532 23.5358 27.6532 23.6294 27.6446H23.689H23.7231C23.8679 27.6446 24.0211 27.6361 24.1659 27.6276H24.2425C24.3958 27.619 24.5491 27.6105 24.6938 27.6019H24.7364C24.8897 27.5934 25.0429 27.5848 25.1877 27.5763H25.2132C25.3665 27.5678 25.5198 27.5592 25.6645 27.5421H25.7071H25.7327C25.9455 27.525 26.1499 27.508 26.3543 27.4994C26.5501 27.4823 26.7545 27.4652 26.9673 27.4481H27.0184C27.2058 27.4225 27.4016 27.4054 27.5889 27.3884H27.6485C27.8444 27.3627 28.0402 27.3371 28.2276 27.32H28.2531C28.3553 27.3029 28.466 27.2944 28.5682 27.2773H28.6533C28.73 27.2602 28.8066 27.2431 28.8917 27.2346L28.9939 27.2175C29.0791 27.209 29.1557 27.1919 29.2409 27.1833H29.309C29.4112 27.1577 29.5133 27.1406 29.6155 27.1321H29.6922C29.7688 27.1064 29.8539 27.0979 29.9306 27.0808L30.0328 27.0637C30.1094 27.0552 30.186 27.0381 30.2627 27.0296L30.3393 27.0125C30.4415 26.9954 30.5437 26.9783 30.6458 26.9612H30.7054C30.7906 26.9356 30.8672 26.9185 30.9524 26.91L31.046 26.8929C31.1227 26.8758 31.1908 26.8672 31.2674 26.8502L31.3526 26.8331C31.4548 26.816 31.5484 26.7989 31.6506 26.7733H31.6847C31.7698 26.7476 31.8635 26.7306 31.9486 26.7135L32.0423 26.6964C32.1104 26.6793 32.1871 26.6622 32.2552 26.6537L32.3403 26.6366C32.434 26.6195 32.5277 26.5939 32.6213 26.5768H32.6298C32.7235 26.5512 32.8257 26.5341 32.9194 26.5084L33.0045 26.4914C33.0726 26.4743 33.1407 26.4572 33.2089 26.4401L33.3025 26.423C33.3877 26.4059 33.4643 26.3803 33.5495 26.3632H33.592C33.6942 26.329 33.7964 26.3034 33.8901 26.2778L33.9667 26.2607C34.0519 26.2351 34.137 26.218 34.2136 26.1924L34.2732 26.1753C34.3669 26.1496 34.4606 26.124 34.5457 26.0984L34.6053 26.0813C34.6735 26.0642 34.7501 26.0386 34.8182 26.0215L34.9034 25.9959C34.9715 25.9788 35.0396 25.9532 35.1077 25.9361L35.1844 25.9104C35.2695 25.8848 35.3632 25.8592 35.4483 25.8336L35.4909 25.8165C35.5675 25.7908 35.6357 25.7738 35.7123 25.7481L35.7974 25.7225C35.8656 25.7054 35.9252 25.6798 35.9933 25.6627L36.0699 25.6371C36.1551 25.6114 36.2402 25.5773 36.3254 25.5516H36.3509C36.4276 25.5175 36.5042 25.4918 36.5808 25.4577L36.6575 25.432C36.7171 25.4064 36.7852 25.3893 36.8448 25.3637L36.9214 25.3381C36.9981 25.3124 37.0832 25.2783 37.1598 25.2526H37.1684C37.2535 25.2185 37.3301 25.1843 37.4153 25.1587L37.4834 25.133C37.543 25.1074 37.6026 25.0903 37.6622 25.0647L37.7389 25.0305C37.807 25.0049 37.8751 24.9707 37.9432 24.9451L37.9773 24.928C38.0539 24.8938 38.1391 24.8597 38.2157 24.8255L38.2838 24.7999C38.3434 24.7743 38.403 24.7486 38.4541 24.723L38.5308 24.6888C38.5904 24.6632 38.6585 24.6376 38.7181 24.6034L38.7692 24.5778C38.8458 24.5436 38.9139 24.5094 38.9906 24.4753L39.0417 24.4496C39.0928 24.424 39.1524 24.3984 39.2035 24.3727L39.2801 24.3386C39.3312 24.3129 39.3738 24.2873 39.4248 24.2702L39.493 24.2361C39.5526 24.2104 39.6037 24.1763 39.6633 24.1506L39.7058 24.125C39.774 24.0908 39.8421 24.0567 39.9102 24.0139L39.9613 23.9883C40.0124 23.9627 40.0635 23.9371 40.1146 23.9029L40.1827 23.8687C40.2253 23.8431 40.2764 23.8175 40.3189 23.7918L40.387 23.7577C40.4381 23.7235 40.4977 23.6979 40.5488 23.6637L40.5744 23.6466L40.668 23.5953C40.668 23.5953 40.7277 23.5612 40.7532 23.5441L40.8298 23.5014C40.8298 23.5014 40.898 23.4587 40.9235 23.4416L41.0001 23.3989C41.0001 23.3989 41.0683 23.3561 41.0938 23.3476C41.1108 23.3391 41.23 23.2622 41.2556 23.2451L41.3407 23.1938C41.3407 23.1938 41.3918 23.1597 41.4174 23.1426L41.4855 23.0913C41.4855 23.0913 41.5451 23.0486 41.5706 23.0315L41.6388 22.9803C41.6388 22.9803 41.6899 22.9461 41.7239 22.9205C41.7495 22.9034 41.8516 22.8265 41.8516 22.8265C41.8516 22.8265 41.8687 22.8179 41.8687 22.8094C41.9453 22.7581 42.0134 22.7069 42.0815 22.6556L42.1241 22.6215C42.2008 22.5617 42.2774 22.5019 42.3455 22.4506L42.3625 22.4335C42.4307 22.3823 42.4988 22.3225 42.5669 22.2712L42.5924 22.2456C42.6606 22.1943 42.7202 22.1345 42.7883 22.0747C42.7968 22.0747 42.8053 22.0576 42.8138 22.0491C42.8224 22.0491 42.8309 22.032 42.8394 22.0235C42.899 21.9722 42.9586 21.921 43.0182 21.8697L43.0352 21.8526C43.0948 21.8014 43.1459 21.7501 43.197 21.6988L43.2396 21.6647C43.2992 21.6049 43.3588 21.5536 43.4099 21.5024C43.4184 21.4938 43.444 21.4682 43.444 21.4682C43.495 21.4169 43.5376 21.3657 43.5887 21.323C43.5887 21.323 43.6057 21.3059 43.6143 21.2973L43.6313 21.2802C43.6824 21.229 43.7249 21.1777 43.776 21.1179L43.8101 21.0752C43.8527 21.024 43.8952 20.9812 43.9378 20.93C43.9378 20.93 43.9549 20.9129 43.9634 20.8958L43.8782 20.9044Z" fill="var(--fill-0, #197EEB)"/>
<path id="Vector_2" d="M43.878 9.41418C43.878 9.46544 43.878 9.51669 43.878 9.57649C43.878 9.58504 43.878 9.60212 43.878 9.61067C43.878 9.65338 43.878 9.70464 43.861 9.74735C43.861 9.74735 43.861 9.74735 43.861 9.75589C43.861 9.75589 43.861 9.75589 43.861 9.74735C43.878 9.60212 43.8865 9.4569 43.8865 9.30312C43.8865 4.16889 34.0602 0 21.9518 0C9.84339 0 0 4.17744 0 9.31167C0 9.4569 0.00851505 9.61067 0.0255451 9.75589C0.0255451 9.75589 0.0255451 9.75589 0.0255451 9.76444C0.0255451 9.75589 0.0255451 9.74735 0.0255451 9.73027C0.0255451 9.71318 0.0255451 9.69609 0.0255451 9.67901C0.0255451 9.65338 0.0255451 9.62775 0.0255451 9.60212C0.0255451 9.58504 0.0255451 9.56795 0.0255451 9.55087C0.0255451 9.52524 0.0255451 9.49961 0.0255451 9.46544C0.0255451 9.44835 0.0255451 9.43981 0.0255451 9.42272C0.0255451 9.38001 0.0255451 9.3373 0.0255451 9.30312V16.7354C0.0255451 16.7354 0.0255451 16.8208 0.0255451 16.855C0.0255451 16.8721 0.0255451 16.8806 0.0255451 16.8977C0.0255451 16.9233 0.0255451 16.9489 0.0255451 16.9831C0.0255451 17.0002 0.0255451 17.0173 0.0255451 17.0344C0.0255451 17.06 0.0255451 17.0856 0.0255451 17.1113C0.0255451 17.1283 0.0255451 17.1454 0.0255451 17.1625C0.0255451 17.1881 0.0255451 17.2052 0.0255451 17.2309C0.0255451 17.2479 0.0255451 17.265 0.0255451 17.2821C0.0255451 17.3077 0.0255451 17.3248 0.0340602 17.3505C0.0340602 17.3675 0.0340602 17.3846 0.0425752 17.4017C0.0425752 17.4273 0.0425752 17.4444 0.0510903 17.4701C0.0510903 17.4871 0.0510903 17.5042 0.0596053 17.5213C0.0596053 17.5469 0.0681204 17.564 0.0766354 17.5897C0.0766354 17.6067 0.0766354 17.6238 0.0851505 17.6495C0.0851505 17.6751 0.0936655 17.6922 0.102181 17.7178C0.102181 17.7349 0.110696 17.752 0.119211 17.7776C0.119211 17.8032 0.127726 17.8203 0.136241 17.8459C0.136241 17.863 0.144756 17.8801 0.153271 17.9057C0.153271 17.9228 0.161786 17.9485 0.170301 17.9655C0.170301 17.9826 0.178816 17.9997 0.187331 18.0168C0.187331 18.0339 0.204361 18.0595 0.204361 18.0766C0.204361 18.0937 0.212876 18.1108 0.221391 18.1278C0.221391 18.1449 0.238421 18.1706 0.246936 18.1877C0.246936 18.2047 0.263966 18.2218 0.263966 18.2389C0.263966 18.256 0.280997 18.2816 0.289512 18.2987C0.289512 18.3158 0.306542 18.3329 0.315057 18.35C0.323572 18.367 0.332087 18.3927 0.340602 18.4098C0.340602 18.4269 0.357632 18.4439 0.366147 18.461C0.374662 18.4781 0.383177 18.5037 0.391692 18.5208C0.391692 18.5379 0.408722 18.555 0.417237 18.5721C0.425752 18.5977 0.434267 18.6148 0.451297 18.6404C0.459812 18.6575 0.468328 18.6746 0.476843 18.6917C0.485358 18.7173 0.502388 18.7344 0.510903 18.76C0.519418 18.7771 0.527933 18.7942 0.536448 18.8113C0.544963 18.8369 0.561993 18.854 0.570508 18.8796C0.579023 18.8967 0.587538 18.9138 0.596053 18.9309C0.613083 18.9565 0.621598 18.9736 0.638628 18.9992C0.647143 19.0163 0.655658 19.0248 0.664174 19.0419C0.681204 19.0676 0.698234 19.0932 0.715264 19.1188C0.715264 19.1274 0.732294 19.1444 0.740809 19.153C0.766354 19.1872 0.791899 19.2299 0.817444 19.264C0.817444 19.264 0.817444 19.2726 0.825959 19.2811C0.851505 19.3153 0.868535 19.3495 0.89408 19.3836C0.902595 19.4007 0.91111 19.4093 0.919625 19.4264C0.936655 19.452 0.953685 19.4776 0.970715 19.5032C0.97923 19.5203 0.99626 19.5374 1.00478 19.546C1.02181 19.5716 1.03884 19.5887 1.05587 19.6143C1.06438 19.6314 1.08141 19.6485 1.08993 19.6656C1.10696 19.6826 1.12399 19.7083 1.14102 19.7254C1.15805 19.7424 1.16656 19.7595 1.18359 19.7766C1.20062 19.7937 1.21765 19.8193 1.23468 19.8364C1.25171 19.8535 1.26023 19.8706 1.27726 19.8877C1.29429 19.9048 1.31132 19.9304 1.32835 19.9475C1.34538 19.9646 1.35389 19.9816 1.37092 19.9987C1.38795 20.0158 1.40498 20.0414 1.42201 20.0585C1.43904 20.0756 1.45607 20.0927 1.46459 20.1098C1.48162 20.1269 1.49865 20.1525 1.51568 20.1696C1.53271 20.1867 1.54974 20.2038 1.56677 20.2208C1.5838 20.2379 1.60083 20.2636 1.62637 20.2806C1.6434 20.2977 1.66043 20.3148 1.67746 20.3319C1.69449 20.349 1.71152 20.3661 1.73707 20.3917C1.7541 20.4088 1.77113 20.4259 1.78816 20.443C1.80519 20.46 1.83073 20.4771 1.84776 20.5028C1.8648 20.5198 1.88183 20.5369 1.89886 20.554C1.91589 20.5711 1.94143 20.5882 1.95846 20.6138C1.97549 20.6309 1.99252 20.648 2.00955 20.6651C2.02658 20.6822 2.05213 20.6992 2.06916 20.7249C2.08619 20.742 2.10322 20.759 2.12025 20.7761C2.13728 20.7932 2.16282 20.8103 2.18837 20.8359C2.2054 20.853 2.22243 20.8701 2.23946 20.8872C2.265 20.9043 2.28203 20.9214 2.30758 20.947C2.32461 20.9641 2.34164 20.9812 2.36718 20.9897C2.39273 21.0068 2.40976 21.0239 2.4353 21.0495C2.45233 21.0666 2.46936 21.0837 2.49491 21.0922C2.52045 21.1093 2.546 21.1264 2.56303 21.152C2.58006 21.1691 2.59709 21.1776 2.62263 21.1947C2.64818 21.2118 2.67372 21.2374 2.69927 21.2545C2.7163 21.2716 2.73333 21.2801 2.75887 21.2972C2.78442 21.3143 2.80996 21.3399 2.84403 21.357C2.86106 21.3741 2.87809 21.3827 2.89512 21.3997C2.92918 21.4254 2.95472 21.4425 2.98878 21.4681C3.00581 21.4766 3.01433 21.4852 3.03136 21.4937C3.07393 21.5279 3.12502 21.5621 3.1676 21.5962C3.1676 21.5962 3.18463 21.6048 3.18463 21.6133C3.2272 21.6389 3.26978 21.6731 3.30384 21.6987C3.32087 21.7073 3.3379 21.7244 3.35493 21.7329C3.38899 21.75 3.41453 21.7756 3.44859 21.7927C3.46562 21.8098 3.49117 21.8183 3.5082 21.8354C3.53374 21.8525 3.5678 21.8696 3.59335 21.8952C3.61038 21.9123 3.63592 21.9209 3.66147 21.9379C3.68701 21.955 3.72108 21.9721 3.74662 21.9892C3.77217 22.0063 3.7892 22.0148 3.81474 22.0319C3.84029 22.049 3.87435 22.0661 3.89989 22.0832C3.92544 22.1003 3.94247 22.1088 3.96801 22.1259C3.99356 22.143 4.02762 22.1601 4.05316 22.1771C4.07871 22.1942 4.10425 22.2028 4.12128 22.2199C4.14683 22.2369 4.18089 22.254 4.20643 22.2711C4.23198 22.2882 4.25752 22.2967 4.28307 22.3138C4.30861 22.3309 4.34267 22.348 4.36822 22.3651C4.39376 22.3822 4.41931 22.3907 4.44485 22.4078C4.4704 22.4249 4.50446 22.442 4.53 22.4591C4.55555 22.4761 4.58109 22.4847 4.60664 22.5018C4.63218 22.5189 4.66625 22.5359 4.69179 22.553C4.71734 22.5701 4.74288 22.5787 4.76843 22.5957C4.80249 22.6128 4.82803 22.6299 4.86209 22.647C4.88764 22.6641 4.91318 22.6726 4.93873 22.6897C4.97279 22.7068 4.99833 22.7239 5.03239 22.741C5.05794 22.7581 5.08348 22.7666 5.10903 22.7837C5.14309 22.8008 5.16863 22.8179 5.20269 22.8349C5.22824 22.852 5.25378 22.8606 5.27933 22.8777C5.31339 22.8947 5.34745 22.9118 5.37299 22.9204C5.39854 22.9375 5.42408 22.946 5.45814 22.9631C5.4922 22.9802 5.52626 22.9973 5.56032 23.0058C5.58587 23.0229 5.61142 23.0314 5.64548 23.0485C5.67954 23.0656 5.7136 23.0827 5.74766 23.0912C5.7732 23.0998 5.79875 23.1169 5.83281 23.1254C5.86687 23.1425 5.90093 23.1596 5.93499 23.1767C5.96053 23.1852 5.98608 23.2023 6.01162 23.2108C6.04568 23.2279 6.08826 23.245 6.12232 23.2621C6.14786 23.2706 6.17341 23.2877 6.19895 23.2963C6.24153 23.3133 6.27559 23.3304 6.31816 23.3475C6.34371 23.3561 6.36925 23.3646 6.38628 23.3817C6.42886 23.3988 6.47995 23.4244 6.53104 23.4415C6.54807 23.4415 6.5651 23.4586 6.58213 23.4586C6.65025 23.4842 6.70986 23.5098 6.77798 23.5355C6.79501 23.5355 6.80352 23.544 6.82055 23.5525C6.87164 23.5696 6.92273 23.5953 6.97382 23.6123C6.98234 23.6123 6.99085 23.6123 7.00788 23.6209C7.06749 23.6465 7.13561 23.6721 7.19521 23.6892C7.22076 23.6978 7.2463 23.7063 7.27185 23.7149C7.32294 23.7319 7.37403 23.7576 7.42512 23.7747C7.45067 23.7832 7.47621 23.7917 7.50176 23.8003C7.55285 23.8174 7.61245 23.843 7.66354 23.8601C7.68909 23.8601 7.70612 23.8772 7.73166 23.8857C7.8083 23.9113 7.88493 23.937 7.96157 23.9711C7.97008 23.9711 7.98711 23.9711 7.99563 23.9797C8.06375 24.0053 8.12335 24.0224 8.19147 24.048C8.21702 24.0566 8.24256 24.0651 8.26811 24.0736C8.3192 24.0907 8.3788 24.1078 8.42989 24.1249C8.45544 24.1334 8.4895 24.142 8.51505 24.1505C8.57465 24.1676 8.62574 24.1847 8.68535 24.2018C8.71089 24.2018 8.72792 24.2189 8.75347 24.2274C8.8301 24.253 8.91525 24.2787 8.99189 24.3043C8.99189 24.3043 8.99189 24.3043 9.0004 24.3043C9.13664 24.347 9.27288 24.3897 9.40061 24.4239C9.53685 24.4666 9.67309 24.5008 9.80933 24.5435C9.80933 24.5435 9.81785 24.5435 9.82636 24.5435C9.9626 24.5777 10.0988 24.6204 10.2266 24.6546C10.2351 24.6546 10.2436 24.6546 10.2606 24.6546C10.3969 24.6887 10.5246 24.7229 10.6608 24.7571C10.6694 24.7571 10.6779 24.7571 10.6864 24.7571C10.6864 24.7571 10.6949 24.7571 10.7034 24.7571C10.8141 24.7827 10.9333 24.8169 11.044 24.8425C11.0696 24.8425 11.0866 24.851 11.1121 24.8596C11.2228 24.8852 11.342 24.9108 11.4613 24.945C11.4783 24.945 11.4953 24.945 11.5123 24.9536C11.6316 24.9792 11.7422 25.0048 11.8615 25.0304C11.87 25.0304 11.8785 25.0304 11.887 25.0304C12.0062 25.0561 12.1254 25.0817 12.2446 25.1073C12.2532 25.1073 12.2702 25.1073 12.2787 25.1073C12.2872 25.1073 12.2957 25.1073 12.3128 25.1073C12.4235 25.133 12.5341 25.15 12.6448 25.1757C12.6619 25.1757 12.6874 25.1757 12.7044 25.1842C12.8066 25.2013 12.9088 25.2269 13.0025 25.244C13.0195 25.244 13.0451 25.244 13.0621 25.2526C13.1728 25.2696 13.2835 25.2953 13.3942 25.3124C13.4197 25.3124 13.4453 25.3209 13.4708 25.3294C13.573 25.3465 13.6837 25.3636 13.7944 25.3807C13.7944 25.3807 13.8114 25.3807 13.8199 25.3807C13.9306 25.3978 14.0413 25.4149 14.152 25.432C14.1776 25.432 14.2031 25.4405 14.2372 25.449C14.3393 25.4661 14.433 25.4832 14.5352 25.4918C14.5522 25.4918 14.5607 25.4918 14.5778 25.4918C14.6885 25.5088 14.7991 25.5259 14.9098 25.543C14.9354 25.543 14.9695 25.543 14.995 25.5516C15.0972 25.5686 15.1908 25.5772 15.293 25.5943C15.3101 25.5943 15.3186 25.5943 15.3271 25.5943C15.3271 25.5943 15.3356 25.5943 15.3441 25.5943C15.4548 25.6114 15.5655 25.6199 15.6762 25.637C15.7017 25.637 15.7358 25.637 15.7613 25.6455C15.855 25.6541 15.9402 25.6712 16.0338 25.6797C16.0594 25.6797 16.0849 25.6797 16.1105 25.6882C16.2212 25.6968 16.3319 25.7139 16.4426 25.7224C16.4681 25.7224 16.4936 25.7224 16.5107 25.7224C16.6043 25.731 16.698 25.7395 16.7917 25.748C16.8087 25.748 16.8257 25.748 16.8428 25.748C16.8513 25.748 16.8683 25.748 16.8768 25.748C16.9875 25.7566 17.0982 25.7737 17.2089 25.7822C17.2259 25.7822 17.2345 25.7822 17.2515 25.7822C17.3537 25.7908 17.4558 25.7993 17.5495 25.8078C17.5836 25.8078 17.6091 25.8078 17.6432 25.8078C17.7454 25.8164 17.8475 25.8249 17.9497 25.8335C17.9582 25.8335 17.9753 25.8335 17.9838 25.8335C18.0945 25.842 18.2137 25.8506 18.3244 25.8591C18.3329 25.8591 18.3499 25.8591 18.3584 25.8591C18.3755 25.8591 18.3925 25.8591 18.4095 25.8591C18.5032 25.8591 18.6054 25.8676 18.699 25.8762C18.7246 25.8762 18.7501 25.8762 18.7672 25.8762C18.8864 25.8762 18.9971 25.8933 19.1163 25.8933C19.1418 25.8933 19.1674 25.8933 19.1929 25.8933C19.2866 25.8933 19.3888 25.9018 19.4824 25.9104C19.508 25.9104 19.542 25.9104 19.5676 25.9104C19.6868 25.9104 19.806 25.9189 19.9167 25.9274C19.9167 25.9274 19.9252 25.9274 19.9337 25.9274C19.9508 25.9274 19.9593 25.9274 19.9763 25.9274C20.087 25.9274 20.1892 25.9274 20.2999 25.936C20.3254 25.936 20.3595 25.936 20.385 25.936C20.5042 25.936 20.632 25.936 20.7512 25.9445C20.7682 25.9445 20.7937 25.9445 20.8108 25.9445C20.9215 25.9445 21.0236 25.9445 21.1343 25.9445C21.1599 25.9445 21.1939 25.9445 21.2195 25.9445C21.3472 25.9445 21.4664 25.9445 21.5942 25.9445C21.5942 25.9445 21.6027 25.9445 21.6112 25.9445C21.6878 25.9445 21.773 25.9445 21.8496 25.9445C21.9688 25.9445 22.088 25.9445 22.1987 25.9445C22.2328 25.9445 22.2668 25.9445 22.3009 25.9445C22.3946 25.9445 22.4882 25.9445 22.5819 25.9445C22.6074 25.9445 22.633 25.9445 22.6671 25.9445C22.7863 25.9445 22.897 25.9445 23.0162 25.9445C23.0417 25.9445 23.0673 25.9445 23.0843 25.9445C23.178 25.9445 23.2716 25.9445 23.3653 25.9445C23.3823 25.9445 23.3993 25.9445 23.4164 25.9445C23.4249 25.9445 23.4419 25.9445 23.4504 25.9445C23.5952 25.9445 23.7399 25.936 23.8847 25.9274C23.9102 25.9274 23.9358 25.9274 23.9528 25.9274C24.0976 25.9274 24.2423 25.9189 24.3956 25.9104C24.4126 25.9104 24.4212 25.9104 24.4382 25.9104C24.5829 25.9104 24.7362 25.8933 24.881 25.8847C24.8895 25.8847 24.898 25.8847 24.9065 25.8847C25.0513 25.8762 25.196 25.8676 25.3493 25.8591C25.3663 25.8591 25.3748 25.8591 25.3919 25.8591H25.4089C25.6133 25.842 25.8091 25.8335 26.0135 25.8164C26.2093 25.7993 26.4052 25.7822 26.6095 25.7651C26.6265 25.7651 26.6436 25.7651 26.6606 25.7651C26.8479 25.748 27.0268 25.731 27.2141 25.7139C27.2311 25.7139 27.2481 25.7139 27.2652 25.7139C27.4525 25.6968 27.6398 25.6712 27.8272 25.6541C27.8272 25.6541 27.8357 25.6541 27.8442 25.6541C27.8442 25.6541 27.8442 25.6541 27.8527 25.6541C27.9549 25.6455 28.0571 25.6284 28.1593 25.6199C28.1848 25.6199 28.2189 25.6199 28.2444 25.6114C28.321 25.6028 28.3977 25.5943 28.4743 25.5857C28.5084 25.5857 28.5424 25.5772 28.568 25.5686C28.6446 25.5601 28.7298 25.543 28.8064 25.5345C28.8319 25.5345 28.849 25.5345 28.8745 25.5259C28.9767 25.5088 29.0789 25.5003 29.1725 25.4832C29.1981 25.4832 29.2236 25.4832 29.2492 25.4747C29.3258 25.4661 29.4025 25.449 29.4791 25.4405C29.5131 25.4405 29.5387 25.432 29.5728 25.4234C29.6494 25.4149 29.726 25.3978 29.7941 25.3892C29.8197 25.3892 29.8452 25.3892 29.8708 25.3807C29.973 25.3636 30.0666 25.3465 30.1603 25.3294C30.1773 25.3294 30.1944 25.3294 30.2199 25.3209C30.2965 25.3038 30.3817 25.2953 30.4583 25.2782C30.4924 25.2782 30.5179 25.2696 30.552 25.2611C30.6201 25.244 30.6967 25.2355 30.7649 25.2184C30.7904 25.2184 30.8159 25.2098 30.85 25.2013C30.9437 25.1842 31.0459 25.1671 31.1395 25.1415C31.148 25.1415 31.1566 25.1415 31.1736 25.1415C31.2587 25.1244 31.3439 25.1073 31.429 25.0902C31.4546 25.0902 31.4886 25.0817 31.5142 25.0732C31.5823 25.0561 31.6504 25.0475 31.7185 25.0304C31.7441 25.0304 31.7781 25.0219 31.8037 25.0134C31.8974 24.9963 31.9825 24.9706 32.0762 24.9536C32.1698 24.9365 32.2635 24.9108 32.3572 24.8938C32.3827 24.8938 32.4083 24.8767 32.4423 24.8767C32.5104 24.8596 32.5786 24.8425 32.6382 24.8254C32.6637 24.8254 32.6978 24.8083 32.7233 24.8083C32.8 24.7912 32.8766 24.7742 32.9532 24.7485C32.9617 24.7485 32.9788 24.7485 32.9873 24.7485C33.081 24.7229 33.1831 24.6973 33.2768 24.6716C33.3023 24.6716 33.3279 24.6546 33.3534 24.6546C33.4301 24.6375 33.5152 24.6118 33.5919 24.5948C33.6089 24.5948 33.6174 24.5948 33.6344 24.5862C33.6344 24.5862 33.6429 24.5862 33.6515 24.5862C33.7366 24.5606 33.8303 24.535 33.9154 24.5179C33.9325 24.5179 33.958 24.5093 33.975 24.5008C34.0432 24.4837 34.1113 24.4581 34.1794 24.441C34.2049 24.441 34.2305 24.4239 34.2645 24.4154C34.3327 24.3983 34.3923 24.3812 34.4604 24.3556C34.4859 24.3556 34.503 24.3385 34.5285 24.3385C34.6137 24.3128 34.6988 24.2872 34.784 24.2616C34.801 24.2616 34.8095 24.253 34.8265 24.2445C34.8947 24.2189 34.9628 24.2018 35.0394 24.1762C35.065 24.1762 35.0905 24.1591 35.116 24.1505C35.1757 24.1334 35.2353 24.1078 35.2949 24.0907C35.3204 24.0907 35.346 24.0736 35.363 24.0651C35.4481 24.0395 35.5248 24.0138 35.6099 23.9797C35.6099 23.9797 35.6269 23.9797 35.6355 23.9797C35.7121 23.954 35.7802 23.9284 35.8569 23.9028C35.8824 23.8942 35.9079 23.8857 35.9335 23.8772C35.9931 23.8601 36.0527 23.8345 36.1038 23.8174C36.1293 23.8088 36.1549 23.8003 36.1719 23.7917C36.2485 23.7661 36.3252 23.7319 36.4018 23.7063C36.4018 23.7063 36.4018 23.7063 36.4103 23.7063C36.487 23.6807 36.5636 23.6465 36.6402 23.6209C36.6658 23.6123 36.6828 23.6038 36.7084 23.5953C36.768 23.5696 36.8191 23.5525 36.8787 23.5269C36.9042 23.5184 36.9298 23.5098 36.9468 23.5013C37.0149 23.4757 37.0745 23.45 37.1426 23.4244C37.1511 23.4244 37.1682 23.4159 37.1767 23.4073C37.2533 23.3731 37.3214 23.3475 37.3981 23.3133C37.4151 23.3048 37.4407 23.2963 37.4577 23.2877C37.5088 23.2621 37.5684 23.245 37.6195 23.2194C37.645 23.2108 37.662 23.2023 37.6876 23.1852C37.7472 23.1596 37.8068 23.1339 37.8579 23.1083C37.8664 23.1083 37.8834 23.0998 37.892 23.0912C37.892 23.0912 37.892 23.0912 37.9005 23.0912C37.9686 23.0571 38.0367 23.0314 38.1048 22.9973C38.1219 22.9973 38.1389 22.9802 38.1559 22.9716C38.207 22.946 38.2581 22.9204 38.3092 22.8947C38.3347 22.8862 38.3518 22.8691 38.3773 22.8606C38.4199 22.8349 38.471 22.8179 38.5136 22.7922C38.5391 22.7837 38.5561 22.7666 38.5817 22.7581C38.6328 22.7324 38.6839 22.7068 38.7349 22.6812C38.752 22.6812 38.7605 22.6641 38.7775 22.6641C38.8456 22.6299 38.9052 22.5957 38.9648 22.5616C38.9819 22.553 38.9989 22.5445 39.0159 22.5359C39.0585 22.5103 39.1096 22.4847 39.1522 22.4591C39.1692 22.4505 39.1948 22.4334 39.2118 22.4249C39.2544 22.3993 39.2969 22.3822 39.3395 22.3565C39.3565 22.348 39.3821 22.3309 39.3991 22.3224C39.4502 22.2967 39.5013 22.2626 39.5439 22.2369C39.5524 22.2369 39.5609 22.2284 39.5694 22.2199C39.5864 22.2113 39.612 22.1942 39.629 22.1857C39.6631 22.1686 39.6886 22.1515 39.7227 22.1344C39.7482 22.1173 39.7653 22.1088 39.7908 22.0917C39.8164 22.0746 39.8504 22.0575 39.876 22.0405C39.9015 22.0234 39.9185 22.0148 39.9441 21.9977C39.9696 21.9807 39.9952 21.9636 40.0207 21.9465C40.0463 21.9294 40.0633 21.9209 40.0888 21.9038C40.1144 21.8867 40.1399 21.8696 40.1655 21.8525C40.191 21.8354 40.208 21.8269 40.2336 21.8098C40.2591 21.7927 40.2847 21.7756 40.3102 21.7585C40.3358 21.7415 40.3528 21.7329 40.3783 21.7158C40.4039 21.6987 40.4294 21.6817 40.455 21.6646C40.4805 21.6475 40.4976 21.6389 40.5231 21.6219C40.5486 21.6048 40.5742 21.5877 40.5997 21.5706C40.6253 21.5535 40.6423 21.545 40.6593 21.5279C40.6764 21.5193 40.6934 21.5023 40.7104 21.4937C40.7104 21.4937 40.7189 21.4937 40.7275 21.4852C40.7956 21.4339 40.8637 21.3912 40.9233 21.3399C40.9318 21.3314 40.9489 21.3229 40.9574 21.3143C41.0255 21.2631 41.0851 21.2118 41.1532 21.1691C41.1532 21.1691 41.1617 21.1605 41.1702 21.152C41.2298 21.1007 41.2895 21.058 41.3491 21.0068C41.3491 21.0068 41.3661 20.9897 41.3746 20.9897C41.4342 20.9384 41.4938 20.8872 41.5534 20.8359C41.5534 20.8359 41.5619 20.8274 41.5705 20.8188C41.5705 20.8188 41.579 20.8103 41.5875 20.8018C41.6386 20.759 41.6982 20.7078 41.7493 20.6651C41.7493 20.6651 41.7578 20.6565 41.7663 20.648C41.8174 20.6053 41.86 20.5626 41.9111 20.5198C41.9196 20.5113 41.9281 20.5028 41.9451 20.4857C41.9962 20.4344 42.0388 20.3917 42.0899 20.3404C42.0984 20.3319 42.1069 20.3234 42.1154 20.3148C42.158 20.2721 42.2006 20.2294 42.2431 20.1867C42.2431 20.1867 42.2517 20.1781 42.2602 20.1696C42.3027 20.1269 42.3453 20.0756 42.3879 20.0329C42.3964 20.0244 42.4049 20.0073 42.4134 19.9987C42.4475 19.956 42.4816 19.9218 42.5156 19.8791C42.5156 19.8706 42.5327 19.862 42.5412 19.8535C42.5837 19.8108 42.6178 19.7595 42.6519 19.7168C42.6604 19.7083 42.6689 19.6912 42.6774 19.6826C42.7115 19.6399 42.737 19.6058 42.7711 19.563C42.7711 19.563 42.7796 19.546 42.7881 19.546C42.7881 19.546 42.7881 19.546 42.7881 19.5374C42.8222 19.4947 42.8562 19.4434 42.8903 19.4007C42.8903 19.3922 42.9073 19.3836 42.9158 19.3666C42.9414 19.3238 42.9669 19.2897 42.9925 19.247C42.9925 19.2384 43.0095 19.2213 43.018 19.2128C43.0521 19.1615 43.0776 19.1188 43.1032 19.0676C43.1032 19.0676 43.1117 19.0505 43.1202 19.0419C43.1457 18.9992 43.1713 18.9565 43.1883 18.9223C43.1883 18.9223 43.1883 18.9052 43.1968 18.9052C43.1968 18.9052 43.1968 18.8967 43.2053 18.8882C43.2309 18.8369 43.2564 18.7942 43.282 18.7429C43.3075 18.6917 43.3331 18.649 43.3501 18.5977C43.3501 18.5806 43.3586 18.5721 43.3671 18.555C43.3842 18.5123 43.4012 18.4696 43.4182 18.4354C43.4182 18.4268 43.4182 18.4183 43.4267 18.4098C43.4438 18.3585 43.4693 18.3158 43.4863 18.2645C43.4863 18.2645 43.4863 18.256 43.4863 18.2475C43.4863 18.2475 43.4863 18.2304 43.4863 18.2218C43.5034 18.1791 43.5204 18.1364 43.5289 18.1022C43.5289 18.0937 43.5289 18.0766 43.5374 18.0681C43.5545 18.0168 43.5715 17.9655 43.5885 17.9228C43.5885 17.9143 43.5885 17.9057 43.597 17.8887C43.6055 17.8459 43.6226 17.8032 43.6311 17.7605C43.6311 17.752 43.6311 17.7349 43.6396 17.7263C43.6481 17.6751 43.6652 17.6238 43.6737 17.5726C43.6737 17.5726 43.6737 17.564 43.6737 17.5555C43.6822 17.5042 43.6907 17.4615 43.6992 17.4103C43.6992 17.4017 43.6992 17.3846 43.6992 17.3761C43.6992 17.3248 43.7162 17.2736 43.7248 17.2223C43.7248 17.2223 43.7248 17.2052 43.7248 17.1967C43.7248 17.154 43.7333 17.1027 43.7418 17.06C43.7418 17.0515 43.7418 17.0344 43.7418 17.0258C43.7418 16.9746 43.7418 16.9233 43.7418 16.8635C43.7418 16.8293 43.7418 16.7952 43.7418 16.7695V9.3373C43.7418 9.3373 43.7418 9.40564 43.7418 9.43981L43.878 9.41418Z" fill="var(--fill-0, #197EEB)"/>
<path id="Vector_3" d="M21.9346 16.9747C19.065 16.9747 16.2891 16.7355 13.6835 16.2656C11.1886 15.8214 8.95765 15.1807 7.0588 14.3776C5.26212 13.6173 3.81457 12.7118 2.87791 11.7721C2.05195 10.9434 1.63471 10.1148 1.63471 9.31176C1.63471 8.50873 2.05195 7.68008 2.87791 6.85143C3.82308 5.90318 5.26212 5.00618 7.0588 4.24587C8.95765 3.44285 11.1886 2.80213 13.6835 2.35791C16.2976 1.88805 19.0735 1.64885 21.9346 1.64885C24.7956 1.64885 27.5801 1.88805 30.1857 2.35791C32.6806 2.80213 34.9115 3.44285 36.8104 4.24587C38.607 5.00618 40.0546 5.91172 40.9913 6.85143C41.8172 7.68008 42.2345 8.50873 42.2345 9.31176C42.2345 10.1148 41.8172 10.9434 40.9913 11.7721C40.0461 12.7203 38.607 13.6173 36.8104 14.3776C34.9115 15.1807 32.6806 15.8214 30.1857 16.2656C27.5715 16.7355 24.7956 16.9747 21.9346 16.9747Z" fill="var(--fill-0, white)"/>
<path id="Vector_4" d="M8.76184 17.6495V21.6305H8.74481L8.52342 21.5451L8.02103 21.3657L7.80816 21.2802L7.6038 21.2033H7.57825L7.19507 21.0325L6.71823 20.8275L6.30099 20.6395L5.96891 20.4772L5.65385 20.3149L5.35582 20.1526L5.0578 19.9817L4.7768 19.8109L4.50432 19.64L4.27441 19.4862L4.14669 19.4008L3.88272 19.2129L3.66133 19.042L3.43994 18.8626L3.24409 18.6918L3.05676 18.5209L2.90349 18.3757V15.0781L3.08231 15.1892L3.42291 15.3942L3.86569 15.642L4.23184 15.8385L4.6065 16.0264L4.98968 16.2143L5.38988 16.3937L5.79009 16.5731L5.98594 16.6586L6.44575 16.8465L6.71823 16.9576L7.2121 17.137L7.4931 17.2395L8.03806 17.4274L8.29352 17.5128L8.54897 17.5897C8.6256 17.6154 8.69372 17.6324 8.77036 17.6581L8.76184 17.6495Z" fill="var(--fill-0, white)"/>
<path id="Vector_5" d="M8.76205 27.6189V31.5229H8.74502L8.53215 31.4461C8.447 31.4119 8.08936 31.2837 8.08936 31.2837L7.80837 31.1812L7.40816 31.0189L6.96538 30.831L6.63329 30.6858L6.18199 30.4807L5.85842 30.3184L5.47524 30.1219L5.19425 29.9682L4.89622 29.7973L4.53859 29.5752L4.36829 29.4641L4.18947 29.3445L3.95105 29.1737L3.78927 29.0541L3.56787 28.8832L3.23579 28.6098L3.0144 28.4048L2.86964 28.2596V25.2354L3.05697 25.338L3.64451 25.6455L4.05323 25.842L4.26611 25.9445L4.78553 26.1751L5.11761 26.3204L5.38158 26.4314L5.77327 26.5937L6.28417 26.7902L6.63329 26.9184L7.16122 27.1063L7.8254 27.3199L8.04679 27.3882C8.21709 27.4395 8.37036 27.4907 8.51512 27.5249C8.59175 27.5505 8.6769 27.5676 8.75354 27.5933L8.76205 27.6189Z" fill="var(--fill-0, white)"/>
<path id="Vector_6" d="M16.9447 19.1956V23.3303L16.6722 23.2962L16.2635 23.2534L15.9229 23.2107L15.5653 23.168L15.1906 23.1168L14.8415 23.0655L14.4669 23.0057L14.1262 22.9544L13.7431 22.8861C13.6324 22.8605 13.3684 22.8178 13.3684 22.8178L13.0193 22.7494C12.9086 22.7238 12.6617 22.6811 12.6617 22.6811C12.5169 22.6469 12.4062 22.6298 12.287 22.6042C12.1508 22.57 11.8868 22.5102 11.8868 22.5102C11.7676 22.4846 11.4866 22.4163 11.4866 22.4163C11.3759 22.3906 11.129 22.3308 11.129 22.3308C11.1119 22.3308 11.0949 22.3308 11.0693 22.3137V18.2644C11.129 18.2815 11.18 18.2901 11.18 18.2901C11.3248 18.3242 11.5888 18.384 11.5888 18.384C11.708 18.4097 12.0315 18.478 12.0315 18.478L12.4403 18.5634L12.8149 18.6318C12.9341 18.6574 13.2492 18.7087 13.2492 18.7087L13.6153 18.7685L14.0496 18.8368C14.1433 18.8539 14.3902 18.8881 14.3902 18.8881C14.5094 18.9052 14.7989 18.9479 14.7989 18.9479L15.1821 18.9991L15.6079 19.0504L15.9655 19.0931L16.3827 19.1358L16.7659 19.17L16.9447 19.1871V19.1956Z" fill="var(--fill-0, white)"/>
<path id="Vector_7" d="M16.9448 29.1053V33.2144L16.6638 33.1888C16.5531 33.1803 16.2721 33.1461 16.2721 33.1461L15.94 33.1034L15.6675 33.0692H15.642C15.642 33.0692 15.5653 33.0521 15.5568 33.0521C15.4717 33.0436 15.1822 33.0009 15.1822 33.0009L14.816 32.9496L14.4754 32.8984C14.3732 32.8813 14.1093 32.8386 14.1093 32.8386C14.0241 32.8215 13.7431 32.7788 13.7431 32.7788C13.6324 32.7617 13.394 32.7104 13.394 32.7104L13.0108 32.6421C12.9257 32.625 12.6873 32.5737 12.6277 32.5652H12.6447L12.2615 32.4883C12.1508 32.4627 11.9039 32.4114 11.9039 32.4114C11.7676 32.3772 11.4781 32.3089 11.4781 32.3089C11.3845 32.2833 11.2823 32.2576 11.1801 32.232H11.1546L11.1205 32.2149C11.1035 32.2149 11.0864 32.2149 11.0779 32.2064V28.2083C11.1716 28.2254 11.2567 28.2425 11.2567 28.2425C11.3845 28.2681 11.7251 28.345 11.7251 28.345C11.8358 28.3707 12.1338 28.4305 12.1338 28.4305L12.5255 28.5073C12.6447 28.533 12.9768 28.5842 12.9768 28.5842C13.096 28.6099 13.3599 28.6526 13.3599 28.6526L13.8027 28.7209L14.2455 28.7893L14.6968 28.8576L14.9948 28.8918C15.1055 28.9089 15.4291 28.9516 15.4291 28.9516L15.8463 29.0028L16.2636 29.0455L16.6297 29.0797L16.9618 29.1139L16.9448 29.1053Z" fill="var(--fill-0, white)"/>
</g>
<path id="Vector_8" d="M23.672 13.7796V15.4882H19.8828V13.7967H15.5742V12.1565H19.8828H22.9653C24.2851 12.1565 25.358 11.6866 25.358 11.1143C25.358 10.5419 24.2766 10.072 22.9482 10.072H20.9217C17.5071 10.072 14.7227 8.86751 14.7227 7.3896C14.7227 6.06547 16.9536 4.96344 19.8743 4.74987V3.12674H23.6635V4.70716H27.1121V6.34738H20.9131C19.5848 6.34738 18.5034 6.81723 18.5034 7.3896C18.5034 7.96197 19.5848 8.43183 20.9131 8.43183H22.9397C26.3543 8.43183 29.1387 9.63636 29.1387 11.1143C29.1387 12.4897 26.7374 13.6173 23.6635 13.7796H23.672Z" fill="var(--fill-0, #197EEB)"/>
</g>
</svg>
