<svg preserveAspectRatio="none" width="100%" height="100%" overflow="visible" style="display: block;" viewBox="0 0 47.9601 40" fill="none" xmlns="http://www.w3.org/2000/svg">
<g id="Group">
<path id="Vector" d="M31.1071 33.403C30.9539 33.0322 30.8389 32.6614 30.7623 32.2983V32.2828C30.7623 32.2828 30.7623 32.2674 30.7623 32.2597L30.7393 32.167V32.1361C30.6703 31.773 30.632 31.4099 30.632 31.0546V30.846H6.06202C5.70949 30.846 5.42593 30.5602 5.42593 30.2048V26.7131C4.52161 26.4427 3.8472 25.6162 3.80888 24.6196C3.80888 24.5887 3.80888 24.5656 3.80888 24.5347V22.2558C3.80888 22.2558 3.80888 22.194 3.80888 22.1631C3.8472 21.1743 4.52161 20.3477 5.42593 20.085V15.2492C4.52161 14.9788 3.8472 14.1522 3.80888 13.1557C3.80888 13.1248 3.80888 13.1016 3.80888 13.0707V10.7918C3.80888 10.7918 3.80888 10.73 3.80888 10.6991C3.8472 9.71035 4.52161 8.88377 5.42593 8.62112V4.48051C5.42593 4.12516 5.70949 3.83933 6.06202 3.83933H37.2688C37.6213 3.83933 37.9049 4.12516 37.9049 4.48051V19.1349C38.1884 18.9495 38.472 18.7563 38.7479 18.5478C39.3533 18.0997 40.1733 18.0997 40.7788 18.5478C41.1007 18.7872 41.4225 19.0113 41.7521 19.2198C41.9054 19.3203 42.0663 19.4207 42.2196 19.5134C42.4878 19.6679 42.756 19.8224 43.0166 19.9537V3.24451C43.0166 1.4523 41.5758 0 39.7978 0H3.15746C1.41013 0 0 1.42913 0 3.18271V31.4949C0 33.2562 1.41779 34.6776 3.15746 34.6776H31.7739C31.59 34.3841 31.429 34.0905 31.2911 33.8047C31.2298 33.6733 31.1684 33.5343 31.1148 33.403H31.1071Z" fill="var(--fill-0, #197EEB)"/>
<path id="Vector_2" d="M7.04332 13.1092C7.04332 13.1092 7.04332 13.086 7.04332 13.0706V10.8226C7.04332 10.2896 6.63714 9.8338 6.10834 9.8029C5.80179 9.78745 5.51824 9.91877 5.32664 10.1351C5.32664 10.1351 5.32664 10.1351 5.31898 10.1428C5.31898 10.1428 5.31898 10.1428 5.31131 10.1505C5.31131 10.1505 5.30365 10.1582 5.29599 10.166C5.29599 10.1737 5.28066 10.1814 5.273 10.1969C5.273 10.2046 5.25767 10.2123 5.25 10.2278C5.15038 10.3745 5.0814 10.5445 5.07374 10.7376C5.07374 10.7531 5.07374 10.7608 5.07374 10.7762C5.07374 10.784 5.07374 10.7917 5.07374 10.7994V13.0551C5.07374 13.5882 5.47992 14.0439 6.00872 14.0748C6.5605 14.098 7.02033 13.6654 7.03566 13.1247L7.04332 13.1092Z" fill="var(--fill-0, #197EEB)"/>
<path id="Vector_3" d="M5.08112 22.2868V24.5116C5.08112 24.5116 5.08112 24.5348 5.08112 24.5502C5.08112 24.5657 5.08112 24.5734 5.08112 24.5889C5.09644 24.7743 5.15775 24.9519 5.25738 25.0987C5.25738 25.1064 5.27271 25.1142 5.28037 25.1296C5.28037 25.1373 5.2957 25.1451 5.30337 25.1605C5.30337 25.1605 5.31103 25.1682 5.31869 25.176C5.31869 25.176 5.31869 25.176 5.32636 25.1837C5.32636 25.1837 5.32636 25.1837 5.33402 25.1914C5.50262 25.3923 5.7402 25.5159 6.01609 25.5313C6.58321 25.5622 7.0507 25.1064 7.0507 24.5425V22.2636C7.0507 22.2636 7.0507 22.2327 7.0507 22.2096C7.02004 21.6688 6.56788 21.2439 6.02376 21.2748C5.49496 21.298 5.08878 21.7615 5.08878 22.2945L5.08112 22.2868Z" fill="var(--fill-0, #197EEB)"/>
<path id="Vector_4" d="M30.6245 22.9508C30.6245 22.0624 31.2836 21.3208 32.1649 21.2358C33.621 21.0891 34.9545 20.7105 36.2497 20.0848C36.38 20.023 36.5179 19.9535 36.6482 19.884V5.11372H6.69829V8.61316C7.60261 8.88353 8.26936 9.71011 8.31534 10.6912C8.31534 10.7221 8.31534 10.753 8.31534 10.7839V13.0628C8.31534 13.0628 8.31534 13.1168 8.31534 13.1477C8.27702 14.1365 7.61027 14.9708 6.69829 15.2412V20.0771C7.60261 20.3475 8.26936 21.174 8.31534 22.1551C8.31534 22.186 8.31534 22.2169 8.31534 22.2478V24.5267C8.31534 24.5267 8.31534 24.5808 8.31534 24.6117C8.27702 25.6005 7.61027 26.4348 6.69829 26.7051V29.5557H30.6245V22.9431V22.9508ZM23.2596 25.7318C23.2596 25.7318 23.1907 25.7318 23.16 25.7318C23.1217 25.7318 23.0834 25.7318 23.0451 25.7318C23.0144 25.7318 22.9914 25.7318 22.9608 25.7318C18.4162 25.67 14.7376 21.9311 14.7376 17.3424C14.7376 12.7538 18.4775 8.95306 23.068 8.95306C27.0149 8.95306 30.3256 11.7341 31.184 15.4498C31.1993 15.5116 31.2069 15.5734 31.2223 15.6275C31.3296 16.1759 31.3909 16.7399 31.3909 17.3192C31.3909 21.8925 27.7736 25.6082 23.2596 25.7241V25.7318Z" fill="var(--fill-0, #197EEB)"/>
<path id="Vector_5" d="M28.9457 16.8639H30.1029C30.0416 15.9138 29.7963 15.0177 29.3978 14.2143L28.3939 14.7936C28.3172 14.84 28.2406 14.8554 28.1563 14.8554C27.9954 14.8554 27.8344 14.7705 27.7425 14.616C27.6122 14.3842 27.6888 14.0907 27.9187 13.9593L28.9227 13.38C28.4092 12.6152 27.7578 11.9508 26.9991 11.441L26.4243 12.453C26.3323 12.6075 26.1791 12.6924 26.0104 12.6924C25.9261 12.6924 25.8495 12.6693 25.7729 12.6306C25.543 12.4993 25.4663 12.2057 25.5966 11.974L26.1791 10.962C25.3744 10.5603 24.4854 10.3131 23.5427 10.2513V11.4178C23.5427 11.6804 23.3281 11.8967 23.0676 11.8967C22.807 11.8967 22.5924 11.6804 22.5924 11.4178V10.2513C21.6498 10.3131 20.7608 10.5603 19.9561 10.962L20.5385 11.974C20.6688 12.2057 20.5922 12.4993 20.3623 12.6306C20.2856 12.677 20.209 12.6924 20.1247 12.6924C19.9561 12.6924 19.8028 12.6075 19.7109 12.453L19.1284 11.441C18.3697 11.9585 17.7106 12.6152 17.2048 13.38L18.2088 13.9593C18.4387 14.0907 18.5153 14.3842 18.385 14.616C18.2931 14.7705 18.1398 14.8554 17.9712 14.8554C17.8869 14.8554 17.8102 14.8323 17.7336 14.7936L16.7297 14.2143C16.3311 15.0254 16.0859 15.9215 16.0246 16.8639H17.1818C17.4424 16.8639 17.657 17.0802 17.657 17.3429C17.657 17.6055 17.4424 17.8218 17.1818 17.8218H16.0246C16.0859 18.772 16.3311 19.6681 16.7297 20.4715L17.7336 19.8844C17.9635 19.7531 18.2547 19.8303 18.385 20.0621C18.5153 20.2938 18.4387 20.5874 18.2088 20.7187L17.2048 21.2981C17.7183 22.0629 18.3697 22.7272 19.1284 23.2371L19.7109 22.2251C19.8411 21.9933 20.1324 21.9161 20.3623 22.0474C20.5922 22.1787 20.6688 22.4723 20.5385 22.704L19.9561 23.716C20.7608 24.1177 21.6498 24.3649 22.5924 24.4267V23.2602C22.5924 22.9976 22.807 22.7813 23.0676 22.7813C23.3281 22.7813 23.5427 22.9976 23.5427 23.2602V24.4267C24.4854 24.3649 25.3744 24.1177 26.1791 23.716L25.5966 22.704C25.4663 22.4723 25.543 22.1787 25.7729 22.0474C26.0028 21.9161 26.294 21.9933 26.4243 22.2251L26.9991 23.2371C27.7578 22.7195 28.4169 22.0629 28.9227 21.2981L27.9187 20.7187C27.6888 20.5874 27.6122 20.2938 27.7425 20.0621C27.8727 19.8303 28.164 19.7531 28.3939 19.8844L29.3978 20.4715C29.7963 19.6604 30.0416 18.7643 30.1029 17.8218H28.9457C28.6851 17.8218 28.4705 17.6055 28.4705 17.3429C28.4705 17.0802 28.6851 16.8639 28.9457 16.8639ZM23.0676 20.85C21.144 20.85 19.5806 19.2741 19.5806 17.3352C19.5806 15.3962 21.144 13.8203 23.0676 13.8203C23.8416 13.8203 24.5543 14.0752 25.1291 14.5001L25.9875 13.9362C26.1407 13.8357 26.34 13.8821 26.432 14.0289C26.5009 14.137 26.5009 14.2761 26.432 14.3842L25.8725 15.2571C26.294 15.8365 26.5469 16.5549 26.5469 17.3352C26.5469 19.2741 24.9835 20.85 23.0599 20.85H23.0676Z" fill="var(--fill-0, #197EEB)"/>
<path id="Vector_6" d="M47.2781 22.1552C46.0365 22.0239 44.887 21.7458 43.7604 21.3055C43.7451 21.3055 43.7221 21.29 43.7068 21.29C43.6914 21.29 43.6761 21.2746 43.6531 21.2668C43.4385 21.1819 43.2239 21.0892 43.0094 20.9887C42.5879 20.7879 42.1664 20.5639 41.7372 20.3167C41.239 20.0154 40.7332 19.6832 40.2198 19.3047C39.9362 19.0961 39.5607 19.0961 39.2771 19.3047C38.9093 19.5751 38.5337 19.8377 38.1735 20.0617C38.1582 20.0695 38.1429 20.0849 38.1276 20.0926C38.1122 20.1004 38.0969 20.1081 38.0739 20.1235C38.0126 20.1622 37.9513 20.2008 37.89 20.2394C37.4685 20.4943 37.047 20.7261 36.6178 20.9347C35.223 21.6067 33.7975 22.0084 32.2341 22.1707C31.828 22.2093 31.5214 22.5569 31.5214 22.9663V31.0699C31.5214 31.3943 31.5597 31.7265 31.621 32.051C31.621 32.051 31.621 32.0896 31.621 32.0973C31.713 32.5299 31.8663 32.9625 32.0809 33.4028C32.2801 33.8277 32.5407 34.2526 32.8549 34.6852C33.2074 35.1719 33.6366 35.6663 34.1347 36.1529C34.1577 36.1761 34.1884 36.1993 34.2114 36.2225C34.2344 36.2456 34.2574 36.2765 34.2804 36.2997C36.158 38.1074 38.4571 39.4206 39.3614 39.9073C39.4764 39.9691 39.6067 40 39.7293 40C39.8519 40 39.9822 39.9691 40.1048 39.9073C41.9441 38.9185 47.9601 35.3727 47.9601 31.0622V22.9586C47.9601 22.5492 47.6536 22.2016 47.2474 22.1629L47.2781 22.1552ZM44.1206 27.5396L39.3308 32.6844C39.3308 32.6844 39.3154 32.6999 39.3078 32.7076C39.3001 32.7153 39.2848 32.7308 39.2771 32.7385C39.2771 32.7385 39.2771 32.7385 39.2695 32.7462C39.1238 32.8698 38.9399 32.9393 38.756 32.9393C38.5721 32.9393 38.3805 32.8698 38.2272 32.7308L35.4682 30.2356C35.1464 29.942 35.1157 29.4322 35.4069 29.1077C35.6982 28.7756 36.204 28.7524 36.5258 29.0459L38.7023 31.0235L42.9634 26.4503C43.2623 26.1259 43.7681 26.1104 44.0823 26.4117C44.4042 26.713 44.4195 27.2228 44.1206 27.5396Z" fill="var(--fill-0, #197EEB)"/>
</g>
</svg>
