<svg preserveAspectRatio="none" width="100%" height="100%" overflow="visible" style="display: block;" viewBox="0 0 149.08 27" fill="none" xmlns="http://www.w3.org/2000/svg">
<g id="SVG">
<path id="Vector" d="M13.4994 8.6844e-05L16.5302 9.32829H26.338L18.4033 15.0935L21.4341 24.4217L13.4994 18.6565L5.56467 24.4217L8.59546 15.0935L0.660734 9.32829H10.4686L13.4994 8.6844e-05Z" fill="var(--fill-0, #F09636)"/>
<path id="Vector_2" d="M44.0197 8.6844e-05L47.0505 9.32829H56.8583L48.9236 15.0935L51.9544 24.4217L44.0197 18.6565L36.085 24.4217L39.1158 15.0935L31.181 9.32829H40.9889L44.0197 8.6844e-05Z" fill="var(--fill-0, #F09636)"/>
<path id="Vector_3" d="M74.54 8.6844e-05L77.5708 9.32829H87.3786L79.4439 15.0935L82.4747 24.4217L74.54 18.6565L66.6053 24.4217L69.6361 15.0935L61.7013 9.32829H71.5092L74.54 8.6844e-05Z" fill="var(--fill-0, #F09636)"/>
<path id="Vector_4" d="M105.06 8.6844e-05L108.091 9.32829H117.899L109.964 15.0935L112.995 24.4217L105.06 18.6565L97.1256 24.4217L100.156 15.0935L92.2216 9.32829H102.03L105.06 8.6844e-05Z" fill="var(--fill-0, #F09636)"/>
<path id="Vector_5" d="M135.581 8.6844e-05L138.612 9.32829H148.419L140.485 15.0935L143.516 24.4217L135.581 18.6565L127.645 24.4217L130.676 15.0935L122.742 9.32829H132.55L135.581 8.6844e-05Z" fill="var(--fill-0, #F09636)"/>
</g>
</svg>
