<svg xmlns="http://www.w3.org/2000/svg" viewBox="0 0 60 40" width="100" height="100">
  <!-- Stripes -->
  <rect width="60" height="40" fill="#B22234"/>
  <rect y="3.077" width="60" height="3.077" fill="white"/>
  <rect y="9.231" width="60" height="3.077" fill="white"/>
  <rect y="15.385" width="60" height="3.077" fill="white"/>
  <rect y="21.538" width="60" height="3.077" fill="white"/>
  <rect y="27.692" width="60" height="3.077" fill="white"/>
  <rect y="33.846" width="60" height="3.077" fill="white"/>
  <!-- Canton -->
  <rect width="24" height="21.538" fill="#3C3B6E"/>
  <!-- Stars (simplified 5x5 grid) -->
  <g fill="white" font-size="2.8" text-anchor="middle">
    <text x="2.4" y="4.5">★</text><text x="7.2" y="4.5">★</text><text x="12" y="4.5">★</text><text x="16.8" y="4.5">★</text><text x="21.6" y="4.5">★</text>
    <text x="4.8" y="8.6">★</text><text x="9.6" y="8.6">★</text><text x="14.4" y="8.6">★</text><text x="19.2" y="8.6">★</text>
    <text x="2.4" y="12.7">★</text><text x="7.2" y="12.7">★</text><text x="12" y="12.7">★</text><text x="16.8" y="12.7">★</text><text x="21.6" y="12.7">★</text>
    <text x="4.8" y="16.8">★</text><text x="9.6" y="16.8">★</text><text x="14.4" y="16.8">★</text><text x="19.2" y="16.8">★</text>
    <text x="2.4" y="20.9">★</text><text x="7.2" y="20.9">★</text><text x="12" y="20.9">★</text><text x="16.8" y="20.9">★</text><text x="21.6" y="20.9">★</text>
  </g>
</svg>
